<svg  xmlns="http://www.w3.org/2000/svg" xmlns:xlink="http://www.w3.org/1999/xlink" x="0px" y="0px"
	 width="512px" height="512px" viewBox="0 0 512 512" style="enable-background:new 0 0 512 512;" xml:space="preserve">

	<path class="st0" d="M437,75C388.7,26.6,324.4,0,256,0S123.3,26.6,75,75C26.6,123.3,0,187.6,0,256c0,68.4,26.6,132.7,75,181
		c48.4,48.4,112.6,75,181,75s132.7-26.6,181-75c48.4-48.4,75-112.6,75-181C512,187.6,485.4,123.3,437,75 M256,492.3
		c-130.3,0-236.3-106-236.3-236.3c0-130.3,106-236.3,236.3-236.3s236.3,106,236.3,236.3C492.3,386.3,386.3,492.3,256,492.3"/>
	<path class="st0" d="M462.8,255.9c0-37.3-9.9-72.3-27.3-102.6c-0.1-0.3-0.3-0.5-0.4-0.8c-0.2-0.3-0.4-0.6-0.6-0.9
		c-18-30.6-43.6-56.3-74.2-74.2c-0.3-0.2-0.6-0.4-0.9-0.6c-0.3-0.1-0.5-0.3-0.8-0.4C328.4,59.2,293.3,49.2,256,49.2
		c-37.3,0-72.4,9.9-102.6,27.3c-0.3,0.1-0.5,0.3-0.8,0.4c-0.3,0.2-0.6,0.4-0.9,0.6c-30.6,18-56.3,43.6-74.2,74.2
		c-0.2,0.3-0.4,0.6-0.6,0.9c-0.1,0.3-0.3,0.5-0.4,0.8C59.2,183.6,49.2,218.7,49.2,256c0,37.3,9.9,72.4,27.3,102.6
		c0.1,0.3,0.3,0.5,0.4,0.8c0.1,0.2,0.3,0.5,0.5,0.7c18,30.7,43.6,56.4,74.3,74.4c0.3,0.2,0.6,0.4,0.9,0.6c0.2,0.1,0.4,0.2,0.5,0.3
		c30.3,17.4,65.4,27.4,102.8,27.4s72.5-10,102.8-27.4c0.2-0.1,0.4-0.2,0.5-0.3c0.3-0.2,0.6-0.4,0.9-0.6c30.7-18,56.4-43.7,74.3-74.4
		c0.2-0.2,0.3-0.4,0.5-0.7c0.1-0.3,0.3-0.5,0.4-0.8c17.4-30.2,27.3-65.3,27.3-102.6C462.8,256,462.8,256,462.8,255.9
		C462.8,256,462.8,256,462.8,255.9 M413.5,265.8h29.3c-1.4,26.9-8.5,52.3-20.1,75l-8.3-4.8c-4.7-2.7-10.7-1.1-13.4,3.6
		c-2.7,4.7-1.1,10.7,3.6,13.4l8.2,4.8c-14.3,21.9-33,40.6-54.9,54.9l-4.8-8.2c-2.7-4.7-8.7-6.3-13.4-3.6c-4.7,2.7-6.3,8.7-3.6,13.5
		l4.8,8.3c-22.7,11.6-48.1,18.7-75,20.1v-29.3c0-5.4-4.4-9.8-9.8-9.8c-5.4,0-9.8,4.4-9.8,9.8v29.3c-26.9-1.4-52.3-8.5-75-20.1
		l4.8-8.3c2.7-4.7,1.1-10.7-3.6-13.4c-4.7-2.7-10.7-1.1-13.5,3.6l-4.8,8.2c-21.9-14.3-40.6-33-54.9-54.9l8.2-4.8
		c4.7-2.7,6.3-8.7,3.6-13.4c-2.7-4.7-8.7-6.3-13.5-3.6l-8.3,4.8c-11.6-22.7-18.7-48.1-20.1-75h29.3c5.4,0,9.8-4.4,9.8-9.8
		c0-5.4-4.4-9.8-9.8-9.8H69.2c1.4-26.9,8.5-52.3,20.1-75l8.3,4.8c1.6,0.9,3.2,1.3,4.9,1.3c3.4,0,6.7-1.8,8.5-4.9
		c2.7-4.7,1.1-10.7-3.6-13.5l-8.2-4.8c14.3-21.9,33-40.6,54.9-54.9l4.8,8.2c1.8,3.2,5.1,4.9,8.5,4.9c1.7,0,3.4-0.4,4.9-1.3
		c4.7-2.7,6.3-8.7,3.6-13.5l-4.8-8.3c22.7-11.6,48.1-18.7,75-20.1v29.3c0,5.4,4.4,9.8,9.8,9.8c5.4,0,9.8-4.4,9.8-9.8V69.2
		c26.9,1.4,52.3,8.5,75,20.1l-4.8,8.3c-2.7,4.7-1.1,10.7,3.6,13.4c1.6,0.9,3.2,1.3,4.9,1.3c3.4,0,6.7-1.8,8.5-4.9l4.8-8.2
		c21.9,14.3,40.6,33,54.9,54.9l-8.2,4.8c-4.7,2.7-6.3,8.7-3.6,13.4c1.8,3.2,5.1,4.9,8.5,4.9c1.7,0,3.4-0.4,4.9-1.3l8.3-4.8
		c11.6,22.7,18.7,48.1,20.1,75h-29.3c-5.4,0-9.8,4.4-9.8,9.8C403.7,261.4,408.1,265.8,413.5,265.8"/>
	<path class="st0" d="M322,308.1l-56.2-56.2V137.8c0-5.4-4.4-9.8-9.8-9.8c-5.4,0-9.8,4.4-9.8,9.8V256c0,2.6,1,5.1,2.9,7l59.1,59.1
		c1.9,1.9,4.4,2.9,7,2.9c2.5,0,5-1,7-2.9C325.9,318.2,325.9,312,322,308.1"/>
	<path class="st0" d="M135,249c-1.8-1.8-4.4-2.9-7-2.9s-5.1,1.1-7,2.9c-1.8,1.8-2.9,4.4-2.9,7c0,2.6,1.1,5.1,2.9,7
		c1.8,1.8,4.4,2.9,7,2.9s5.1-1.1,7-2.9c1.8-1.8,2.9-4.4,2.9-7C137.8,253.4,136.8,250.9,135,249"/>
</svg>
