<svg version="1.1" id="Слой_1" xmlns="http://www.w3.org/2000/svg" xmlns:xlink="http://www.w3.org/1999/xlink" x="0px" y="0px"
	 width="512px" height="457.9px" viewBox="0 0 512 457.9" style="enable-background:new 0 0 512 457.9; fill: #ef1231;" xml:space="preserve">
	<path class="st0" d="M478,79.5h-20l0-35.8c0-24-19.5-43.6-43.6-43.6L262.5,0h0c-8.6,0-16.8,3.4-22.9,9.5L12.8,236.3
		C4.5,244.5,0,255.5,0,267.1c0,11.6,4.5,22.6,12.8,30.8L160,445.1c8.5,8.5,19.7,12.7,30.8,12.7c11.2,0,22.3-4.2,30.8-12.7
		l142.8-142.8c3.9-3.9,3.9-10.2,0-14.1c-3.9-3.9-10.2-3.9-14.1,0L207.4,431c-9.2,9.2-24.1,9.2-33.3,0L26.9,283.8
		c-4.5-4.5-6.9-10.4-6.9-16.7s2.5-12.2,6.9-16.7L253.7,23.6c2.3-2.3,5.4-3.6,8.8-3.6h0l151.9,0.1c13,0,23.6,10.6,23.6,23.6l0,83.8
		h-45c-3.9,0-7.4-1.6-9.9-4.1c4.2-1.8,8.1-4.4,11.5-7.8c14.4-14.4,14.4-37.8,0-52.1c-14.4-14.4-37.8-14.4-52.1,0
		c-14.4,14.4-14.4,37.8,0,52.1c5.3,5.3,11.9,8.7,18.8,10.1c4.9,12.8,17.3,21.9,31.8,21.9h45l0,47.9c0,3.3-1.3,6.4-3.6,8.7
		l-27.5,27.5c-3.9,3.9-3.9,10.2,0,14.1c3.9,3.9,10.2,3.9,14.1,0l27.5-27.5c6.1-6.1,9.5-14.2,9.5-22.9l0-47.9H478
		c18.7,0,34-15.3,34-34C512,94.7,496.7,79.5,478,79.5 M356.5,77.6c3.3-3.3,7.6-4.9,11.9-4.9c4.3,0,8.6,1.6,11.9,4.9
		c1,1,1.9,2.2,2.6,3.4c-11,3.4-19.6,12.1-22.8,23.2c-1.3-0.7-2.6-1.7-3.7-2.8C349.9,94.8,349.9,84.1,356.5,77.6 M478,127.5h-20l0-28
		h20c7.7,0,14,6.3,14,14C492,121.2,485.7,127.5,478,127.5"/>
	<path class="st0" d="M161.4,252.3c1.2,4.4,5.3,7.3,9.6,7.3c0.9,0,1.8-0.1,2.7-0.4l102.7-28.6c5.3-1.5,8.4-7,7-12.3
		c-1.5-5.3-7-8.4-12.3-6.9L168.4,240C163,241.5,159.9,247,161.4,252.3"/>
	<path class="st0" d="M206.6,265.5c-5.6,5.6-8.6,13-8.6,20.9c0,7.9,3.1,15.3,8.6,20.8c5.8,5.7,13.3,8.6,20.8,8.6
		c7.6,0,15.1-2.9,20.9-8.6c11.5-11.5,11.5-30.2,0-41.7C236.8,254,218.1,254,206.6,265.5 M234.2,293.1c-3.7,3.7-9.7,3.7-13.4,0
		c-1.8-1.8-2.8-4.2-2.8-6.7c0-2.5,1-4.9,2.8-6.7c1.9-1.8,4.3-2.8,6.7-2.8c2.4,0,4.9,0.9,6.7,2.8
		C237.9,283.3,237.9,289.4,234.2,293.1"/>
	<path class="st0" d="M253.3,206c11.5-11.5,11.5-30.2,0-41.7c-5.6-5.6-13-8.6-20.9-8.6s-15.3,3.1-20.8,8.6
		c-11.5,11.5-11.5,30.2,0,41.7c5.8,5.7,13.3,8.6,20.8,8.6C240,214.6,247.5,211.7,253.3,206 M225.7,178.4c1.8-1.8,4.2-2.8,6.7-2.8
		c2.5,0,4.9,1,6.7,2.8c3.7,3.7,3.7,9.7,0,13.4c-3.7,3.7-9.7,3.7-13.4,0C222,188.1,222,182.1,225.7,178.4"/>
	<path class="st0" d="M99.5,231.6c-3.9-3.9-10.2-3.9-14.1,0l-28.4,28.4c-1.9,1.9-2.9,4.4-2.9,7.1c0,2.7,1.1,5.2,2.9,7.1L183.7,401
		c1.9,1.9,4.5,2.9,7.1,2.9c2.6,0,5.1-1,7.1-2.9l189.6-189.6c3.9-3.9,3.9-10.2,0-14.1L260.6,70.5c-1.9-1.9-4.4-2.9-7.1-2.9
		c-2.7,0-5.2,1.1-7.1,2.9L141.9,175.1c-3.9,3.9-3.9,10.2,0,14.1c3.9,3.9,10.2,3.9,14.1,0l97.5-97.5l112.7,112.7L190.8,379.8
		L78.1,267.1l21.3-21.3C103.4,241.9,103.4,235.5,99.5,231.6"/>
	<path class="st0" d="M385.6,257c-2.6,0-5.2,1.1-7.1,2.9c-1.9,1.9-2.9,4.4-2.9,7.1c0,2.6,1.1,5.2,2.9,7.1c1.9,1.9,4.4,2.9,7.1,2.9
		c2.6,0,5.2-1.1,7.1-2.9c1.9-1.9,2.9-4.4,2.9-7.1c0-2.6-1.1-5.2-2.9-7.1C390.8,258,388.3,257,385.6,257"/>
	<path class="st0" d="M127.7,217.5c1.9-1.9,2.9-4.4,2.9-7.1c0-2.6-1.1-5.2-2.9-7.1c-1.9-1.9-4.4-2.9-7.1-2.9c-2.6,0-5.2,1.1-7.1,2.9
		c-1.9,1.9-2.9,4.4-2.9,7.1c0,2.6,1.1,5.2,2.9,7.1c1.9,1.9,4.4,2.9,7.1,2.9C123.3,220.4,125.9,219.4,127.7,217.5"/>
</svg>
