
<svg  xmlns="http://www.w3.org/2000/svg" xmlns:xlink="http://www.w3.org/1999/xlink" x="0px" y="0px"
	 width="468.6px" height="503.3px" viewBox="0 0 468.6 503.3" style="enable-background:new 0 0 468.6 503.3; fill: #ef1231;" xml:space="preserve"
	>
	<path class="st0" d="M26,52.1h69.4c9.5,0,17.4,7.8,17.4,17.4c0,4.8,3.9,8.7,8.7,8.7s8.7-3.9,8.7-8.7c0-19.1-15.6-34.7-34.7-34.7H26
		c-4.8,0-8.7-3.9-8.7-8.7c0-4.8,3.9-8.7,8.7-8.7h34.7c4.8,0,8.7-3.9,8.7-8.7S65.5,0,60.7,0H26C11.7,0,0,11.7,0,26
		C0,40.4,11.7,52.1,26,52.1"/>
	<path class="st0" d="M456.1,191.8l-143.6,71.8v-64.1c0-6.3-6.5-10.5-12.2-7.9l-154.6,69.6l-6.8-148.8c-0.2-4.6-4-8.3-8.7-8.3H26
		c-4.6,0-8.5,3.6-8.7,8.3L13,207.5l0,0.3L0,494.2c-0.2,4.9,3.7,9.1,8.7,9.1h138.8c0,0,0,0,0,0h156.2c0,0,0,0,0,0h43.4h69.4h43.4
		c4.8,0,8.7-3.9,8.7-8.7V199.6C468.6,193.1,461.8,188.9,456.1,191.8 M295.1,213v64.6c0,0,0,0,0,0V486h-26v-52.1
		c0-4.8-3.9-8.7-8.7-8.7h-69.4c-4.8,0-8.7,3.9-8.7,8.7V486h-26.4l-2.4-52.4c0,0,0,0,0,0l-1.6-34.7c0,0,0,0,0,0l-4.9-108.1l-0.5-10.8
		L295.1,213z M199.6,442.6h52.1V486h-52.1V442.6z M30,216.9h96.2l2.6,57.8v0l0.8,18l4.4,97.7h-112L30,216.9z M125.4,199.6H30.8
		l0.8-17.4h93.1L125.4,199.6z M21.3,407.9h113.6l0.8,17.4H20.5L21.3,407.9z M121.9,121.5l2,43.4H32.4l2-43.4H121.9z M17.8,486
		l2-43.4h116.7l2,43.4H17.8z M355.8,442.6h52.1V486h-52.1V442.6z M451.3,486h-26v-52.1c0-4.8-3.9-8.7-8.7-8.7h-69.4
		c-4.8,0-8.7,3.9-8.7,8.7V486h-26V283.1l138.8-69.4V486z"/>
	<path class="st0" d="M190.9,338.4h69.4c4.8,0,8.7-3.9,8.7-8.7v-34.7c0-4.8-3.9-8.7-8.7-8.7h-69.4c-4.8,0-8.7,3.9-8.7,8.7v34.7
		C182.2,334.6,186.1,338.4,190.9,338.4 M199.6,303.7h52.1v17.4h-52.1V303.7z"/>
	<path class="st0" d="M190.9,373.2h69.4c4.8,0,8.7-3.9,8.7-8.7c0-4.8-3.9-8.7-8.7-8.7h-69.4c-4.8,0-8.7,3.9-8.7,8.7
		C182.2,369.3,186.1,373.2,190.9,373.2"/>
	<path class="st0" d="M190.9,407.9h69.4c4.8,0,8.7-3.9,8.7-8.7s-3.9-8.7-8.7-8.7h-69.4c-4.8,0-8.7,3.9-8.7,8.7
		S186.1,407.9,190.9,407.9"/>
	<path class="st0" d="M347.1,338.4h69.4c4.8,0,8.7-3.9,8.7-8.7v-34.7c0-4.8-3.9-8.7-8.7-8.7h-69.4c-4.8,0-8.7,3.9-8.7,8.7v34.7
		C338.4,334.6,342.3,338.4,347.1,338.4 M355.8,303.7h52.1v17.4h-52.1V303.7z"/>
	<path class="st0" d="M347.1,373.2h69.4c4.8,0,8.7-3.9,8.7-8.7c0-4.8-3.9-8.7-8.7-8.7h-69.4c-4.8,0-8.7,3.9-8.7,8.7
		C338.4,369.3,342.3,373.2,347.1,373.2"/>
	<path class="st0" d="M347.1,407.9h69.4c4.8,0,8.7-3.9,8.7-8.7s-3.9-8.7-8.7-8.7h-69.4c-4.8,0-8.7,3.9-8.7,8.7
		S342.3,407.9,347.1,407.9"/>
</svg>
