<svg  xmlns="http://www.w3.org/2000/svg" xmlns:xlink="http://www.w3.org/1999/xlink" x="0px" y="0px"
	 width="431.3px" height="512px" viewBox="0 0 431.3 512" style="enable-background:new 0 0 431.3 512; fill: #ef1231;" xml:space="preserve">

	<path class="st0" d="M344.6,61.2c-2.8-3.8-7.9-5.1-12.2-3.2c-4.3,1.9-6.7,6.6-5.7,11.2c7.9,36.7,3.6,73.4-12.7,109
		c-0.6,1.2-1.1,2.4-1.7,3.6c0.8-11.7,0.8-24.8-0.8-38.7C306.4,98.4,283.7,37.4,204.3,0.9c-3.7-1.7-8.2-1-11.1,1.9
		c-3,2.9-3.9,7.3-2.3,11.1c18.8,44.7,12.5,75.6-20.9,103.3c-21.6,17.9-35.4,39.6-44.3,59.9c-6.9-29.9-22.9-69.6-60.2-104.6
		c-2.9-2.7-7.2-3.5-10.8-1.9c-3.7,1.6-6,5.2-6,9.2c0,70.7-14.6,102.6-27.5,130.8C10.3,234.4,0,256.9,0,296.4c0,7.4,0.4,14.8,1.1,22
		c0.6,5.5,5.5,9.5,11,8.9c5.5-0.6,9.5-5.5,8.9-11c-0.7-6.6-1-13.3-1-20c0-35.1,9-54.8,19.4-77.6c12.1-26.5,25.7-56.2,28.7-114.6
		c20.5,24.5,33.8,53,39.8,85c3.3,17.7,3.5,32.7,3.1,42c-0.8,6.7-1,10.9-1,11.6c-0.1,5.3,3.8,9.7,9.1,10.2c5.2,0.5,10-3.2,10.8-8.4
		c0.1-0.4,0.7-4.5,1.1-11.4c2.7-20.6,13.1-68.4,51.9-100.6c21.1-17.5,33.2-36.7,37.2-58.7c2.4-13.4,1.7-27.7-2.3-43.3
		c43.2,26.3,68,64.6,73.9,114.1c5.1,43.6-7,80.1-7.1,80.4c-1.5,4.5,0.3,9.4,4.3,11.8c4,2.4,9.2,1.7,12.4-1.7
		c0.7-0.7,17-18.2,30.7-47.9c12.3-26.7,18.6-54.7,18.6-82.7c43.9,66.8,60.8,121.7,60.8,191.8c0,80.4-48.8,149.7-118.3,179.7
		c14.9-17.7,24-40.5,24-65.3c0-13.3-4.7-28.5-13.9-45.4c0-0.1-0.1-0.1-0.1-0.2c-2.1-3.6-4.2-7.1-6.3-10.7
		c-22.8-38.8-44.4-75.4-35.2-115c0.8-3.6-0.4-7.4-3.2-9.8c-2.8-2.4-6.7-3.1-10.2-1.7c-33.1,13-56.6,43.8-65.8,70.9
		c-19-22.5-42.5-25.3-43.8-25.4c-3.5-0.4-7,1.1-9.1,4c-2.1,2.8-2.6,6.6-1.2,9.9c0.2,0.4,16,38.9-4.1,80.2c0,0,0,0.1-0.1,0.1
		c-6.4,13.6-9.7,28.1-9.7,43.2c0,25,9.1,48,24.2,65.7c-37-15.8-68.6-42.8-90.4-78.7c-2.9-4.7-9-6.2-13.7-3.4
		c-4.7,2.9-6.2,9-3.4,13.7c18.9,31.1,45.5,57.2,77.1,75.4c32.5,18.7,69.7,28.6,107.4,28.6c57.6,0,111.7-22.4,152.5-63.2
		c40.7-40.7,63.2-94.9,63.2-152.5C431.3,210.8,407.8,147.1,344.6,61.2 M134.3,410.7c0-12.1,2.6-23.7,7.7-34.6
		c14.7-30.2,13.5-58.7,10.1-76.9c9.2,5.4,20.3,15.5,27.2,34.3c1.9,5,7.4,7.7,12.5,6c5.1-1.6,8-7,6.6-12.2
		c-3.8-13.6,10.5-51.7,40.9-72.4c-1.3,39.3,19.7,74.9,40,109.6c2.1,3.5,4.1,7,6.2,10.5c7.4,13.6,11.4,25.9,11.4,35.6
		c0,44.8-36.5,81.3-81.3,81.3C170.8,492,134.3,455.5,134.3,410.7"/>
	<path class="st0" d="M20.7,372c-2.6,0-5.2-1.1-7.1-2.9c-1.9-1.9-2.9-4.4-2.9-7.1c0-2.6,1.1-5.2,2.9-7.1c1.9-1.9,4.4-2.9,7.1-2.9
		c2.6,0,5.2,1.1,7.1,2.9c1.9,1.9,2.9,4.4,2.9,7.1c0,2.6-1.1,5.2-2.9,7.1C25.9,370.9,23.3,372,20.7,372"/>
</svg>
