<svg
        xmlns="http://www.w3.org/2000/svg"
        width="16px" height="17px">
    <path fill-rule="evenodd"  fill="rgb(239, 18, 49)"
          d="M3.093,0.006 C3.220,0.007 3.390,-0.017 3.491,0.023 C3.491,0.028 3.491,0.034 3.491,0.039 C3.513,0.045 3.535,0.050 3.557,0.056 C3.557,0.061 3.557,0.067 3.557,0.072 C3.579,0.078 3.601,0.083 3.623,0.089 C3.629,0.100 3.634,0.111 3.640,0.122 C3.651,0.122 3.662,0.122 3.673,0.122 C3.690,0.144 3.706,0.166 3.723,0.188 C3.734,0.188 3.745,0.188 3.756,0.188 C3.767,0.205 3.778,0.222 3.789,0.238 C3.800,0.243 3.811,0.249 3.822,0.254 C3.822,0.266 3.822,0.277 3.822,0.288 C3.850,0.310 3.877,0.332 3.905,0.354 C3.905,0.365 3.905,0.376 3.905,0.387 C3.916,0.393 3.927,0.398 3.938,0.404 C3.949,0.437 3.960,0.470 3.971,0.503 C3.982,0.508 3.993,0.514 4.004,0.520 C4.004,0.531 4.004,0.542 4.004,0.553 C4.010,0.553 4.015,0.553 4.021,0.553 C4.021,0.564 4.021,0.575 4.021,0.586 C4.026,0.586 4.032,0.586 4.037,0.586 C4.037,0.597 4.037,0.608 4.037,0.619 C4.043,0.619 4.049,0.619 4.054,0.619 C4.054,0.630 4.054,0.641 4.054,0.652 C4.060,0.652 4.065,0.652 4.071,0.652 C4.071,0.663 4.071,0.674 4.071,0.685 C4.076,0.685 4.082,0.685 4.087,0.685 C4.087,0.696 4.087,0.707 4.087,0.718 C4.093,0.718 4.098,0.718 4.104,0.718 C4.104,0.729 4.104,0.740 4.104,0.751 C4.109,0.751 4.115,0.751 4.120,0.751 C4.126,0.774 4.131,0.796 4.137,0.818 C4.148,0.823 4.159,0.829 4.170,0.834 C4.209,0.923 4.247,1.011 4.286,1.099 C4.291,1.099 4.297,1.099 4.303,1.099 C4.303,1.110 4.303,1.121 4.303,1.132 C4.314,1.138 4.325,1.143 4.336,1.149 C4.336,1.160 4.336,1.171 4.336,1.182 C4.341,1.182 4.347,1.182 4.352,1.182 C4.352,1.193 4.352,1.204 4.352,1.215 C4.358,1.215 4.363,1.215 4.369,1.215 C4.369,1.226 4.369,1.237 4.369,1.248 C4.374,1.248 4.380,1.248 4.385,1.248 C4.385,1.259 4.385,1.270 4.385,1.282 C4.391,1.282 4.396,1.282 4.402,1.282 C4.402,1.293 4.402,1.304 4.402,1.315 C4.408,1.315 4.413,1.315 4.419,1.315 C4.419,1.326 4.419,1.337 4.419,1.348 C4.424,1.348 4.430,1.348 4.435,1.348 C4.435,1.359 4.435,1.370 4.435,1.381 C4.441,1.381 4.446,1.381 4.452,1.381 C4.452,1.392 4.452,1.403 4.452,1.414 C4.463,1.420 4.474,1.425 4.485,1.431 C4.485,1.442 4.485,1.453 4.485,1.464 C4.490,1.464 4.496,1.464 4.501,1.464 C4.501,1.475 4.501,1.486 4.501,1.497 C4.507,1.497 4.512,1.497 4.518,1.497 C4.518,1.508 4.518,1.519 4.518,1.530 C4.523,1.530 4.529,1.530 4.535,1.530 C4.535,1.541 4.535,1.552 4.535,1.563 C4.540,1.563 4.546,1.563 4.551,1.563 C4.551,1.574 4.551,1.585 4.551,1.596 C4.557,1.596 4.562,1.596 4.568,1.596 C4.568,1.607 4.568,1.618 4.568,1.629 C4.573,1.629 4.579,1.629 4.584,1.629 C4.584,1.640 4.584,1.651 4.584,1.662 C4.590,1.662 4.595,1.662 4.601,1.662 C4.601,1.674 4.601,1.685 4.601,1.696 C4.606,1.696 4.612,1.696 4.617,1.696 C4.617,1.707 4.617,1.718 4.617,1.729 C4.628,1.734 4.640,1.740 4.650,1.745 C4.650,1.756 4.650,1.767 4.650,1.778 C4.656,1.778 4.662,1.778 4.667,1.778 C4.667,1.789 4.667,1.801 4.667,1.812 C4.673,1.812 4.678,1.812 4.684,1.812 C4.684,1.823 4.684,1.834 4.684,1.845 C4.689,1.845 4.695,1.845 4.700,1.845 C4.700,1.856 4.700,1.867 4.700,1.878 C4.706,1.878 4.711,1.878 4.717,1.878 C4.717,1.889 4.717,1.900 4.717,1.911 C4.722,1.911 4.728,1.911 4.733,1.911 C4.733,1.922 4.733,1.933 4.733,1.944 C4.778,2.016 4.822,2.088 4.866,2.159 C4.866,2.170 4.866,2.182 4.866,2.193 C4.871,2.193 4.877,2.193 4.882,2.193 C4.882,2.204 4.882,2.215 4.882,2.226 C4.888,2.226 4.894,2.226 4.899,2.226 C4.899,2.237 4.899,2.248 4.899,2.259 C4.905,2.259 4.910,2.259 4.916,2.259 C4.916,2.270 4.916,2.281 4.916,2.292 C4.921,2.292 4.927,2.292 4.932,2.292 C4.932,2.303 4.932,2.314 4.932,2.325 C4.938,2.325 4.943,2.325 4.949,2.325 C4.949,2.336 4.949,2.347 4.949,2.358 C4.960,2.364 4.971,2.369 4.982,2.375 C4.982,2.386 4.982,2.397 4.982,2.408 C4.987,2.408 4.993,2.408 4.998,2.408 C4.998,2.419 4.998,2.430 4.998,2.441 C5.004,2.441 5.009,2.441 5.015,2.441 C5.015,2.452 5.015,2.463 5.015,2.474 C5.021,2.474 5.026,2.474 5.032,2.474 C5.032,2.485 5.032,2.496 5.032,2.507 C5.037,2.507 5.043,2.507 5.048,2.507 C5.048,2.518 5.048,2.529 5.048,2.540 C5.054,2.540 5.059,2.540 5.065,2.540 C5.065,2.551 5.065,2.563 5.065,2.574 C5.109,2.645 5.153,2.717 5.197,2.789 C5.197,2.800 5.197,2.811 5.197,2.822 C5.203,2.822 5.208,2.822 5.214,2.822 C5.214,2.833 5.214,2.844 5.214,2.855 C5.219,2.855 5.225,2.855 5.230,2.855 C5.230,2.866 5.230,2.877 5.230,2.888 C5.236,2.888 5.241,2.888 5.247,2.888 C5.247,2.899 5.247,2.910 5.247,2.921 C5.252,2.921 5.258,2.921 5.264,2.921 C5.264,2.932 5.264,2.944 5.264,2.954 C5.269,2.954 5.275,2.954 5.280,2.954 C5.280,2.965 5.280,2.976 5.280,2.988 C5.291,2.993 5.302,2.999 5.313,3.004 C5.313,3.015 5.313,3.026 5.313,3.037 C5.319,3.037 5.324,3.037 5.330,3.037 C5.330,3.048 5.330,3.059 5.330,3.070 C5.335,3.070 5.341,3.070 5.346,3.070 C5.346,3.081 5.346,3.092 5.346,3.103 C5.352,3.103 5.357,3.103 5.363,3.103 C5.363,3.115 5.363,3.126 5.363,3.137 C5.368,3.137 5.374,3.137 5.379,3.137 C5.379,3.148 5.379,3.159 5.379,3.170 C5.385,3.170 5.391,3.170 5.396,3.170 C5.396,3.181 5.396,3.192 5.396,3.203 C5.402,3.203 5.407,3.203 5.413,3.203 C5.413,3.214 5.413,3.225 5.413,3.236 C5.418,3.236 5.424,3.236 5.429,3.236 C5.429,3.247 5.429,3.258 5.429,3.269 C5.435,3.269 5.440,3.269 5.446,3.269 C5.446,3.280 5.446,3.291 5.446,3.302 C5.457,3.308 5.468,3.313 5.479,3.319 C5.490,3.352 5.501,3.385 5.512,3.418 C5.518,3.418 5.523,3.418 5.529,3.418 C5.529,3.429 5.529,3.440 5.529,3.451 C5.534,3.451 5.540,3.451 5.545,3.451 C5.545,3.462 5.545,3.473 5.545,3.484 C5.551,3.484 5.556,3.484 5.562,3.484 C5.562,3.496 5.562,3.507 5.562,3.518 C5.567,3.518 5.573,3.518 5.578,3.518 C5.578,3.529 5.578,3.540 5.578,3.551 C5.584,3.551 5.589,3.551 5.595,3.551 C5.595,3.562 5.595,3.573 5.595,3.584 C5.606,3.589 5.617,3.595 5.628,3.600 C5.628,3.611 5.628,3.623 5.628,3.634 C5.634,3.634 5.639,3.634 5.645,3.634 C5.645,3.645 5.645,3.656 5.645,3.667 C5.650,3.667 5.656,3.667 5.661,3.667 C5.661,3.678 5.661,3.689 5.661,3.700 C5.667,3.700 5.672,3.700 5.678,3.700 C5.678,3.711 5.678,3.722 5.678,3.733 C5.683,3.733 5.689,3.733 5.694,3.733 C5.694,3.744 5.694,3.755 5.694,3.766 C5.700,3.766 5.705,3.766 5.711,3.766 C5.711,3.777 5.711,3.788 5.711,3.799 C5.716,3.799 5.722,3.799 5.728,3.799 C5.728,3.810 5.728,3.821 5.728,3.832 C5.733,3.832 5.738,3.832 5.744,3.832 C5.744,3.843 5.744,3.854 5.744,3.865 C5.750,3.865 5.755,3.865 5.761,3.865 C5.761,3.877 5.761,3.888 5.761,3.899 C5.766,3.899 5.772,3.899 5.777,3.899 C5.788,3.932 5.799,3.965 5.810,3.998 C5.816,3.998 5.821,3.998 5.827,3.998 C5.827,4.015 5.827,4.031 5.827,4.048 C5.832,4.048 5.838,4.048 5.843,4.048 C5.858,4.091 5.878,4.384 5.860,4.445 C5.821,4.561 5.783,4.677 5.744,4.793 C5.650,4.943 5.518,5.052 5.396,5.174 C5.280,5.295 5.164,5.417 5.048,5.538 C4.918,5.668 4.711,5.811 4.650,6.002 C4.625,6.082 4.667,6.174 4.684,6.218 C4.689,6.256 4.695,6.295 4.700,6.333 C4.706,6.333 4.711,6.333 4.717,6.333 C4.722,6.367 4.728,6.400 4.733,6.433 C4.739,6.433 4.744,6.433 4.750,6.433 C4.750,6.444 4.750,6.455 4.750,6.466 C4.755,6.466 4.761,6.466 4.767,6.466 C4.767,6.483 4.767,6.499 4.767,6.516 C4.772,6.516 4.778,6.516 4.783,6.516 C4.783,6.527 4.783,6.538 4.783,6.549 C4.789,6.549 4.794,6.549 4.800,6.549 C4.800,6.565 4.800,6.582 4.800,6.598 C4.805,6.598 4.811,6.598 4.816,6.598 C4.822,6.621 4.827,6.643 4.833,6.665 C4.838,6.665 4.844,6.665 4.849,6.665 C4.849,6.676 4.849,6.687 4.849,6.698 C4.855,6.698 4.860,6.698 4.866,6.698 C4.866,6.714 4.866,6.731 4.866,6.748 C4.871,6.748 4.877,6.748 4.882,6.748 C4.894,6.781 4.905,6.814 4.916,6.847 C4.921,6.847 4.927,6.847 4.932,6.847 C4.932,6.858 4.932,6.869 4.932,6.880 C4.938,6.880 4.943,6.880 4.949,6.880 C4.954,6.902 4.960,6.924 4.965,6.946 C4.976,6.952 4.987,6.957 4.998,6.963 C4.998,6.974 4.998,6.985 4.998,6.996 C5.004,6.996 5.009,6.996 5.015,6.996 C5.015,7.007 5.015,7.018 5.015,7.029 C5.021,7.029 5.026,7.029 5.032,7.029 C5.032,7.040 5.032,7.051 5.032,7.062 C5.037,7.062 5.043,7.062 5.048,7.062 C5.048,7.073 5.048,7.084 5.048,7.095 C5.059,7.101 5.070,7.106 5.081,7.112 C5.081,7.123 5.081,7.134 5.081,7.145 C5.087,7.145 5.092,7.145 5.098,7.145 C5.098,7.156 5.098,7.167 5.098,7.178 C5.103,7.178 5.109,7.178 5.114,7.178 C5.114,7.189 5.114,7.200 5.114,7.211 C5.120,7.211 5.125,7.211 5.131,7.211 C5.137,7.228 5.142,7.245 5.148,7.261 C5.159,7.266 5.170,7.272 5.181,7.278 C5.186,7.300 5.192,7.322 5.197,7.344 C5.208,7.349 5.219,7.355 5.230,7.360 C5.230,7.372 5.230,7.382 5.230,7.393 C5.241,7.399 5.252,7.405 5.264,7.410 C5.264,7.421 5.264,7.432 5.264,7.443 C5.275,7.449 5.286,7.454 5.297,7.460 C5.297,7.471 5.297,7.482 5.297,7.493 C5.308,7.499 5.319,7.504 5.330,7.509 C5.330,7.520 5.330,7.531 5.330,7.543 C5.341,7.548 5.352,7.554 5.363,7.559 C5.363,7.570 5.363,7.581 5.363,7.592 C5.374,7.598 5.385,7.603 5.396,7.609 C5.396,7.620 5.396,7.631 5.396,7.642 C5.402,7.642 5.407,7.642 5.413,7.642 C5.418,7.658 5.424,7.675 5.429,7.692 C5.440,7.697 5.451,7.703 5.462,7.708 C5.462,7.719 5.462,7.730 5.462,7.741 C5.479,7.752 5.496,7.763 5.512,7.774 C5.512,7.785 5.512,7.797 5.512,7.808 C5.523,7.813 5.534,7.819 5.545,7.824 C5.545,7.835 5.545,7.846 5.545,7.857 C5.556,7.863 5.567,7.868 5.578,7.874 C5.584,7.890 5.589,7.907 5.595,7.924 C5.611,7.935 5.628,7.946 5.645,7.957 C5.645,7.968 5.645,7.979 5.645,7.990 C5.661,8.001 5.678,8.012 5.694,8.023 C5.694,8.034 5.694,8.045 5.694,8.056 C5.716,8.073 5.738,8.089 5.761,8.106 C5.761,8.117 5.761,8.128 5.761,8.139 C5.783,8.155 5.805,8.172 5.827,8.189 C5.827,8.200 5.827,8.211 5.827,8.222 C5.855,8.244 5.882,8.266 5.910,8.288 C5.910,8.299 5.910,8.310 5.910,8.321 C5.926,8.332 5.943,8.343 5.959,8.354 C5.970,8.371 5.982,8.387 5.993,8.404 C5.998,8.404 6.004,8.404 6.009,8.404 C6.009,8.415 6.009,8.426 6.009,8.437 C6.053,8.476 6.097,8.514 6.142,8.553 C6.335,8.820 6.590,9.035 6.821,9.265 C7.023,9.468 7.216,9.692 7.451,9.861 C7.495,9.911 7.539,9.961 7.583,10.011 C7.594,10.011 7.605,10.011 7.616,10.011 C7.622,10.022 7.627,10.033 7.633,10.044 C7.638,10.044 7.644,10.044 7.649,10.044 C7.666,10.066 7.683,10.088 7.699,10.110 C7.710,10.110 7.721,10.110 7.732,10.110 C7.754,10.138 7.776,10.165 7.799,10.193 C7.810,10.193 7.821,10.193 7.832,10.193 C7.848,10.215 7.865,10.237 7.881,10.259 C7.892,10.259 7.903,10.259 7.914,10.259 C7.931,10.281 7.948,10.303 7.964,10.325 C7.975,10.325 7.986,10.325 7.997,10.325 C8.008,10.342 8.019,10.358 8.031,10.375 C8.041,10.375 8.053,10.375 8.064,10.375 C8.075,10.392 8.086,10.408 8.097,10.425 C8.108,10.425 8.119,10.425 8.130,10.425 C8.141,10.441 8.152,10.458 8.163,10.474 C8.174,10.474 8.185,10.474 8.196,10.474 C8.202,10.485 8.207,10.496 8.213,10.507 C8.224,10.507 8.235,10.507 8.246,10.507 C8.257,10.524 8.268,10.541 8.279,10.557 C8.290,10.557 8.301,10.557 8.312,10.557 C8.318,10.568 8.323,10.579 8.329,10.590 C8.345,10.596 8.362,10.601 8.378,10.607 C8.378,10.612 8.378,10.618 8.378,10.623 C8.390,10.623 8.400,10.623 8.412,10.623 C8.417,10.634 8.423,10.646 8.428,10.657 C8.439,10.657 8.450,10.657 8.461,10.657 C8.472,10.673 8.483,10.690 8.494,10.706 C8.505,10.706 8.517,10.706 8.528,10.706 C8.533,10.717 8.539,10.728 8.544,10.739 C8.561,10.745 8.577,10.750 8.594,10.756 C8.594,10.761 8.594,10.767 8.594,10.773 C8.616,10.778 8.638,10.784 8.660,10.789 C8.666,10.800 8.671,10.811 8.677,10.822 C8.688,10.822 8.699,10.822 8.710,10.822 C8.715,10.833 8.721,10.844 8.726,10.855 C8.737,10.855 8.749,10.855 8.759,10.855 C8.765,10.866 8.771,10.877 8.776,10.888 C8.787,10.888 8.798,10.888 8.809,10.888 C8.809,10.894 8.809,10.900 8.809,10.905 C8.820,10.905 8.831,10.905 8.842,10.905 C8.848,10.916 8.853,10.927 8.859,10.938 C8.892,10.949 8.925,10.960 8.958,10.971 C8.964,10.982 8.969,10.993 8.975,11.004 C8.986,11.004 8.997,11.004 9.008,11.004 C9.008,11.010 9.008,11.015 9.008,11.021 C9.019,11.021 9.030,11.021 9.041,11.021 C9.041,11.027 9.041,11.032 9.041,11.038 C9.052,11.038 9.063,11.038 9.074,11.038 C9.074,11.043 9.074,11.049 9.074,11.054 C9.085,11.054 9.096,11.054 9.107,11.054 C9.107,11.060 9.107,11.065 9.107,11.071 C9.118,11.071 9.129,11.071 9.141,11.071 C9.141,11.076 9.141,11.082 9.141,11.087 C9.152,11.087 9.163,11.087 9.174,11.087 C9.174,11.093 9.174,11.098 9.174,11.104 C9.185,11.104 9.196,11.104 9.207,11.104 C9.207,11.109 9.207,11.115 9.207,11.120 C9.218,11.120 9.229,11.120 9.240,11.120 C9.240,11.126 9.240,11.131 9.240,11.137 C9.251,11.137 9.262,11.137 9.273,11.137 C9.273,11.142 9.273,11.148 9.273,11.154 C9.306,11.165 9.339,11.176 9.373,11.187 C9.373,11.192 9.373,11.198 9.373,11.203 C9.389,11.203 9.406,11.203 9.422,11.203 C9.422,11.209 9.422,11.214 9.422,11.220 C9.433,11.220 9.444,11.220 9.455,11.220 C9.455,11.225 9.455,11.231 9.455,11.236 C9.472,11.236 9.488,11.236 9.505,11.236 C9.505,11.242 9.505,11.247 9.505,11.253 C9.516,11.253 9.527,11.253 9.538,11.253 C9.538,11.258 9.538,11.264 9.538,11.269 C9.571,11.275 9.605,11.281 9.638,11.286 C9.638,11.292 9.638,11.297 9.638,11.303 C9.687,11.308 9.737,11.314 9.787,11.319 C9.787,11.325 9.787,11.330 9.787,11.336 C9.814,11.336 9.842,11.336 9.870,11.336 C9.870,11.341 9.870,11.347 9.870,11.352 C9.944,11.374 10.015,11.337 10.052,11.319 C10.203,11.245 10.288,11.116 10.400,11.004 C10.576,10.833 10.753,10.662 10.930,10.491 C10.930,10.485 10.930,10.480 10.930,10.474 C10.941,10.469 10.952,10.463 10.963,10.458 C10.963,10.447 10.963,10.436 10.963,10.425 C10.985,10.408 11.007,10.392 11.029,10.375 C11.057,10.342 11.085,10.309 11.112,10.276 C11.123,10.276 11.134,10.276 11.145,10.276 C11.162,10.253 11.179,10.231 11.195,10.209 C11.206,10.209 11.217,10.209 11.228,10.209 C11.234,10.198 11.239,10.187 11.245,10.176 C11.256,10.176 11.267,10.176 11.278,10.176 C11.278,10.171 11.278,10.165 11.278,10.160 C11.289,10.160 11.300,10.160 11.311,10.160 C11.311,10.154 11.311,10.149 11.311,10.143 C11.322,10.143 11.333,10.143 11.344,10.143 C11.344,10.138 11.344,10.132 11.344,10.126 C11.355,10.126 11.366,10.126 11.377,10.126 C11.377,10.121 11.377,10.115 11.377,10.110 C11.388,10.110 11.399,10.110 11.411,10.110 C11.411,10.104 11.411,10.099 11.411,10.093 C11.422,10.093 11.433,10.093 11.444,10.093 C11.444,10.088 11.444,10.082 11.444,10.077 C11.460,10.077 11.477,10.077 11.493,10.077 C11.493,10.071 11.493,10.066 11.493,10.060 C11.515,10.060 11.537,10.060 11.560,10.060 C11.560,10.055 11.560,10.049 11.560,10.044 C11.611,10.028 11.971,10.006 12.040,10.027 C12.040,10.033 12.040,10.038 12.040,10.044 C12.062,10.044 12.084,10.044 12.106,10.044 C12.106,10.049 12.106,10.055 12.106,10.060 C12.128,10.060 12.150,10.060 12.173,10.060 C12.173,10.066 12.173,10.071 12.173,10.077 C12.189,10.077 12.206,10.077 12.222,10.077 C12.222,10.082 12.222,10.088 12.222,10.093 C12.244,10.099 12.267,10.104 12.289,10.110 C12.289,10.115 12.289,10.121 12.289,10.126 C12.305,10.126 12.322,10.126 12.338,10.126 C12.344,10.138 12.349,10.149 12.355,10.160 C12.377,10.165 12.399,10.171 12.421,10.176 C12.427,10.187 12.432,10.198 12.438,10.209 C12.460,10.215 12.482,10.220 12.504,10.226 C12.509,10.237 12.515,10.248 12.521,10.259 C12.543,10.265 12.565,10.270 12.587,10.276 C12.592,10.287 12.598,10.298 12.603,10.309 C12.637,10.320 12.670,10.331 12.703,10.342 C12.708,10.353 12.714,10.364 12.719,10.375 C12.741,10.380 12.764,10.386 12.786,10.392 C12.791,10.403 12.797,10.414 12.802,10.425 C12.824,10.430 12.846,10.436 12.868,10.441 C12.874,10.452 12.879,10.463 12.885,10.474 C12.896,10.474 12.907,10.474 12.918,10.474 C12.918,10.480 12.918,10.485 12.918,10.491 C12.929,10.491 12.940,10.491 12.951,10.491 C12.957,10.502 12.962,10.513 12.968,10.524 C13.001,10.535 13.034,10.546 13.067,10.557 C13.073,10.568 13.078,10.579 13.084,10.590 C13.106,10.596 13.128,10.601 13.150,10.607 C13.156,10.618 13.161,10.629 13.167,10.640 C13.189,10.646 13.211,10.651 13.233,10.657 C13.238,10.668 13.244,10.679 13.250,10.690 C13.261,10.690 13.272,10.690 13.283,10.690 C13.283,10.695 13.283,10.701 13.283,10.706 C13.294,10.706 13.305,10.706 13.316,10.706 C13.321,10.717 13.327,10.728 13.332,10.739 C13.366,10.750 13.399,10.761 13.432,10.773 C13.437,10.784 13.443,10.795 13.448,10.806 C13.470,10.811 13.493,10.817 13.515,10.822 C13.520,10.833 13.526,10.844 13.531,10.855 C13.553,10.861 13.575,10.866 13.597,10.872 C13.603,10.883 13.609,10.894 13.614,10.905 C13.636,10.911 13.658,10.916 13.680,10.922 C13.686,10.933 13.691,10.944 13.697,10.955 C13.730,10.966 13.763,10.977 13.796,10.988 C13.802,10.999 13.807,11.010 13.813,11.021 C13.835,11.027 13.857,11.032 13.879,11.038 C13.885,11.049 13.890,11.060 13.896,11.071 C13.918,11.076 13.940,11.082 13.962,11.087 C13.968,11.098 13.973,11.109 13.979,11.120 C14.001,11.126 14.023,11.131 14.045,11.137 C14.050,11.148 14.056,11.159 14.061,11.170 C14.084,11.176 14.106,11.181 14.128,11.187 C14.133,11.198 14.139,11.209 14.144,11.220 C14.177,11.231 14.211,11.242 14.244,11.253 C14.249,11.264 14.255,11.275 14.260,11.286 C14.271,11.286 14.282,11.286 14.293,11.286 C14.293,11.292 14.293,11.297 14.293,11.303 C14.304,11.303 14.315,11.303 14.326,11.303 C14.332,11.314 14.338,11.325 14.343,11.336 C14.365,11.341 14.387,11.347 14.409,11.352 C14.415,11.363 14.420,11.374 14.426,11.385 C14.437,11.385 14.448,11.385 14.459,11.385 C14.459,11.391 14.459,11.396 14.459,11.402 C14.470,11.402 14.481,11.402 14.492,11.402 C14.498,11.413 14.503,11.424 14.509,11.435 C14.542,11.446 14.575,11.457 14.608,11.468 C14.614,11.479 14.619,11.490 14.625,11.501 C14.647,11.507 14.669,11.512 14.691,11.518 C14.697,11.529 14.702,11.540 14.708,11.551 C14.730,11.557 14.752,11.562 14.774,11.567 C14.779,11.579 14.785,11.590 14.790,11.601 C14.813,11.606 14.835,11.612 14.857,11.617 C14.862,11.628 14.868,11.639 14.873,11.650 C14.906,11.661 14.940,11.673 14.973,11.684 C14.978,11.694 14.984,11.706 14.989,11.717 C15.011,11.722 15.033,11.728 15.056,11.733 C15.061,11.744 15.067,11.755 15.072,11.766 C15.094,11.772 15.116,11.777 15.138,11.783 C15.144,11.794 15.149,11.805 15.155,11.816 C15.177,11.821 15.199,11.827 15.221,11.833 C15.227,11.844 15.232,11.855 15.238,11.866 C15.271,11.877 15.304,11.888 15.337,11.899 C15.343,11.910 15.348,11.921 15.354,11.932 C15.376,11.937 15.398,11.943 15.420,11.948 C15.426,11.960 15.431,11.971 15.437,11.982 C15.459,11.987 15.481,11.993 15.503,11.998 C15.508,12.009 15.514,12.020 15.519,12.031 C15.541,12.037 15.564,12.042 15.586,12.048 C15.591,12.059 15.597,12.070 15.602,12.081 C15.613,12.081 15.624,12.081 15.635,12.081 C15.641,12.092 15.646,12.103 15.652,12.114 C15.663,12.114 15.674,12.114 15.685,12.114 C15.702,12.136 15.718,12.158 15.735,12.180 C15.779,12.219 15.823,12.258 15.867,12.296 C15.867,12.307 15.867,12.318 15.867,12.329 C15.878,12.335 15.890,12.341 15.900,12.346 C15.900,12.357 15.900,12.368 15.900,12.379 C15.912,12.385 15.923,12.390 15.934,12.396 C15.934,12.407 15.934,12.418 15.934,12.429 C15.939,12.429 15.945,12.429 15.950,12.429 C15.950,12.445 15.950,12.462 15.950,12.479 C15.956,12.479 15.961,12.479 15.967,12.479 C15.967,12.490 15.967,12.501 15.967,12.512 C15.972,12.512 15.978,12.512 15.983,12.512 C15.983,12.534 15.983,12.556 15.983,12.578 C15.989,12.578 15.994,12.578 16.000,12.578 C16.000,12.688 16.000,12.799 16.000,12.909 C15.994,12.909 15.989,12.909 15.983,12.909 C15.983,12.926 15.983,12.942 15.983,12.959 C15.978,12.959 15.972,12.959 15.967,12.959 C15.967,12.975 15.967,12.992 15.967,13.009 C15.961,13.009 15.956,13.009 15.950,13.009 C15.950,13.025 15.950,13.042 15.950,13.058 C15.945,13.058 15.939,13.058 15.934,13.058 C15.934,13.069 15.934,13.080 15.934,13.091 C15.928,13.091 15.923,13.091 15.917,13.091 C15.917,13.102 15.917,13.114 15.917,13.125 C15.819,13.280 15.663,13.395 15.536,13.522 C15.042,14.016 14.564,14.526 14.045,14.996 C13.990,15.057 13.934,15.118 13.879,15.178 C13.758,15.294 13.636,15.410 13.515,15.526 C13.470,15.576 13.426,15.626 13.382,15.675 C13.371,15.675 13.360,15.675 13.349,15.675 C13.338,15.692 13.327,15.709 13.316,15.725 C13.305,15.725 13.294,15.725 13.283,15.725 C13.277,15.736 13.272,15.747 13.266,15.758 C13.233,15.769 13.200,15.780 13.167,15.791 C13.167,15.797 13.167,15.802 13.167,15.808 C13.156,15.808 13.145,15.808 13.134,15.808 C13.134,15.813 13.134,15.819 13.134,15.824 C13.123,15.824 13.111,15.824 13.100,15.824 C13.100,15.830 13.100,15.836 13.100,15.841 C13.067,15.852 13.034,15.863 13.001,15.874 C13.001,15.880 13.001,15.885 13.001,15.891 C12.984,15.891 12.968,15.891 12.951,15.891 C12.951,15.896 12.951,15.902 12.951,15.907 C12.935,15.907 12.918,15.907 12.902,15.907 C12.902,15.913 12.902,15.918 12.902,15.924 C12.885,15.924 12.868,15.924 12.852,15.924 C12.852,15.929 12.852,15.935 12.852,15.940 C12.830,15.940 12.808,15.940 12.786,15.940 C12.786,15.946 12.786,15.951 12.786,15.957 C12.764,15.957 12.741,15.957 12.719,15.957 C12.719,15.963 12.719,15.968 12.719,15.974 C12.686,15.974 12.653,15.974 12.620,15.974 C12.457,16.020 11.970,15.998 11.825,15.957 C11.781,15.957 11.736,15.957 11.692,15.957 C11.692,15.951 11.692,15.946 11.692,15.940 C11.648,15.940 11.604,15.940 11.560,15.940 C11.560,15.935 11.560,15.929 11.560,15.924 C11.521,15.924 11.482,15.924 11.444,15.924 C11.444,15.918 11.444,15.913 11.444,15.907 C11.405,15.907 11.366,15.907 11.328,15.907 C11.328,15.902 11.328,15.896 11.328,15.891 C11.289,15.891 11.250,15.891 11.212,15.891 C11.212,15.885 11.212,15.880 11.212,15.874 C11.184,15.874 11.156,15.874 11.129,15.874 C11.129,15.869 11.129,15.863 11.129,15.858 C11.096,15.858 11.063,15.858 11.029,15.858 C11.029,15.852 11.029,15.847 11.029,15.841 C11.007,15.841 10.985,15.841 10.963,15.841 C10.963,15.836 10.963,15.830 10.963,15.824 C10.935,15.824 10.908,15.824 10.880,15.824 C10.880,15.819 10.880,15.813 10.880,15.808 C10.836,15.802 10.792,15.797 10.748,15.791 C10.748,15.786 10.748,15.780 10.748,15.775 C10.687,15.764 10.626,15.753 10.565,15.742 C10.565,15.736 10.565,15.731 10.565,15.725 C10.549,15.725 10.532,15.725 10.516,15.725 C10.516,15.720 10.516,15.714 10.516,15.709 C10.499,15.709 10.483,15.709 10.466,15.709 C10.466,15.703 10.466,15.697 10.466,15.692 C10.449,15.692 10.433,15.692 10.416,15.692 C10.416,15.686 10.416,15.681 10.416,15.675 C10.394,15.675 10.372,15.675 10.350,15.675 C10.350,15.670 10.350,15.664 10.350,15.659 C10.334,15.659 10.317,15.659 10.300,15.659 C10.300,15.653 10.300,15.648 10.300,15.642 C10.284,15.642 10.267,15.642 10.251,15.642 C10.251,15.637 10.251,15.631 10.251,15.626 C10.234,15.626 10.217,15.626 10.201,15.626 C10.201,15.620 10.201,15.615 10.201,15.609 C10.184,15.609 10.168,15.609 10.151,15.609 C10.151,15.604 10.151,15.598 10.151,15.593 C10.140,15.593 10.129,15.593 10.118,15.593 C10.118,15.587 10.118,15.582 10.118,15.576 C10.068,15.565 10.019,15.554 9.969,15.543 C9.969,15.537 9.969,15.532 9.969,15.526 C9.958,15.526 9.947,15.526 9.936,15.526 C9.936,15.521 9.936,15.515 9.936,15.510 C9.903,15.504 9.870,15.499 9.837,15.493 C9.837,15.488 9.837,15.482 9.837,15.477 C9.825,15.477 9.814,15.477 9.803,15.477 C9.803,15.471 9.803,15.466 9.803,15.460 C9.787,15.460 9.770,15.460 9.754,15.460 C9.754,15.455 9.754,15.449 9.754,15.443 C9.743,15.443 9.732,15.443 9.720,15.443 C9.720,15.438 9.720,15.432 9.720,15.427 C9.704,15.427 9.687,15.427 9.671,15.427 C9.671,15.421 9.671,15.416 9.671,15.410 C9.660,15.410 9.649,15.410 9.638,15.410 C9.638,15.405 9.638,15.399 9.638,15.394 C9.621,15.394 9.605,15.394 9.588,15.394 C9.588,15.388 9.588,15.383 9.588,15.377 C9.577,15.377 9.566,15.377 9.555,15.377 C9.555,15.372 9.555,15.366 9.555,15.361 C9.538,15.361 9.522,15.361 9.505,15.361 C9.505,15.355 9.505,15.350 9.505,15.344 C9.494,15.344 9.483,15.344 9.472,15.344 C9.472,15.339 9.472,15.333 9.472,15.328 C9.455,15.328 9.439,15.328 9.422,15.328 C9.422,15.322 9.422,15.316 9.422,15.311 C9.400,15.305 9.378,15.300 9.356,15.294 C9.356,15.289 9.356,15.283 9.356,15.278 C9.339,15.278 9.323,15.278 9.306,15.278 C9.306,15.272 9.306,15.267 9.306,15.261 C9.295,15.261 9.284,15.261 9.273,15.261 C9.273,15.256 9.273,15.250 9.273,15.245 C9.240,15.234 9.207,15.223 9.174,15.212 C9.174,15.206 9.174,15.201 9.174,15.195 C9.157,15.195 9.141,15.195 9.124,15.195 C9.124,15.189 9.124,15.184 9.124,15.178 C9.091,15.167 9.058,15.156 9.025,15.145 C9.025,15.140 9.025,15.134 9.025,15.129 C9.014,15.129 9.002,15.129 8.991,15.129 C8.991,15.123 8.991,15.118 8.991,15.112 C8.980,15.112 8.969,15.112 8.958,15.112 C8.958,15.107 8.958,15.101 8.958,15.096 C8.947,15.096 8.936,15.096 8.925,15.096 C8.925,15.090 8.925,15.085 8.925,15.079 C8.914,15.079 8.903,15.079 8.892,15.079 C8.892,15.074 8.892,15.068 8.892,15.062 C8.870,15.057 8.848,15.051 8.826,15.046 C8.826,15.040 8.826,15.035 8.826,15.029 C8.804,15.024 8.782,15.018 8.759,15.013 C8.759,15.007 8.759,15.002 8.759,14.996 C8.749,14.996 8.737,14.996 8.726,14.996 C8.726,14.991 8.726,14.985 8.726,14.980 C8.715,14.980 8.704,14.980 8.693,14.980 C8.693,14.974 8.693,14.969 8.693,14.963 C8.682,14.963 8.671,14.963 8.660,14.963 C8.660,14.958 8.660,14.952 8.660,14.947 C8.649,14.947 8.638,14.947 8.627,14.947 C8.627,14.941 8.627,14.935 8.627,14.930 C8.616,14.930 8.605,14.930 8.594,14.930 C8.594,14.924 8.594,14.919 8.594,14.913 C8.572,14.908 8.550,14.902 8.528,14.897 C8.522,14.886 8.517,14.875 8.511,14.864 C8.500,14.864 8.489,14.864 8.478,14.864 C8.478,14.858 8.478,14.853 8.478,14.847 C8.467,14.847 8.456,14.847 8.445,14.847 C8.445,14.842 8.445,14.836 8.445,14.831 C8.434,14.831 8.423,14.831 8.412,14.831 C8.412,14.825 8.412,14.820 8.412,14.814 C8.400,14.814 8.390,14.814 8.378,14.814 C8.378,14.808 8.378,14.803 8.378,14.797 C8.367,14.797 8.356,14.797 8.345,14.797 C8.340,14.786 8.334,14.775 8.329,14.764 C8.318,14.764 8.307,14.764 8.296,14.764 C8.296,14.759 8.296,14.753 8.296,14.748 C8.285,14.748 8.273,14.748 8.262,14.748 C8.262,14.742 8.262,14.737 8.262,14.731 C8.251,14.731 8.240,14.731 8.229,14.731 C8.229,14.726 8.229,14.720 8.229,14.715 C8.218,14.715 8.207,14.715 8.196,14.715 C8.191,14.704 8.185,14.693 8.180,14.682 C8.146,14.670 8.113,14.659 8.080,14.648 C8.075,14.637 8.069,14.626 8.064,14.615 C8.041,14.610 8.019,14.604 7.997,14.599 C7.992,14.588 7.986,14.577 7.981,14.566 C7.948,14.555 7.914,14.543 7.881,14.532 C7.876,14.521 7.870,14.510 7.865,14.499 C7.843,14.494 7.821,14.488 7.799,14.483 C7.793,14.472 7.787,14.461 7.782,14.450 C7.760,14.444 7.738,14.439 7.716,14.433 C7.716,14.428 7.716,14.422 7.716,14.416 C7.699,14.411 7.682,14.405 7.666,14.400 C7.660,14.389 7.655,14.378 7.649,14.367 C7.627,14.361 7.605,14.356 7.583,14.350 C7.578,14.339 7.572,14.328 7.567,14.317 C7.556,14.317 7.544,14.317 7.533,14.317 C7.528,14.306 7.522,14.295 7.517,14.284 C7.495,14.278 7.473,14.273 7.451,14.268 C7.451,14.262 7.451,14.256 7.451,14.251 C7.434,14.245 7.417,14.240 7.401,14.234 C7.395,14.223 7.390,14.212 7.384,14.201 C7.362,14.196 7.340,14.190 7.318,14.185 C7.313,14.174 7.307,14.162 7.302,14.151 C7.290,14.151 7.279,14.151 7.268,14.151 C7.263,14.141 7.257,14.129 7.252,14.118 C7.241,14.118 7.230,14.118 7.219,14.118 C7.213,14.107 7.208,14.096 7.202,14.085 C7.191,14.085 7.180,14.085 7.169,14.085 C7.163,14.074 7.158,14.063 7.152,14.052 C7.141,14.052 7.130,14.052 7.119,14.052 C7.114,14.041 7.108,14.030 7.103,14.019 C7.092,14.019 7.081,14.019 7.070,14.019 C7.070,14.014 7.070,14.008 7.070,14.002 C7.053,13.997 7.036,13.991 7.020,13.986 C7.014,13.975 7.009,13.964 7.003,13.953 C6.992,13.953 6.981,13.953 6.970,13.953 C6.965,13.942 6.959,13.931 6.954,13.920 C6.943,13.920 6.931,13.920 6.920,13.920 C6.920,13.914 6.920,13.908 6.920,13.903 C6.904,13.898 6.887,13.892 6.871,13.887 C6.865,13.875 6.860,13.864 6.854,13.853 C6.843,13.853 6.832,13.853 6.821,13.853 C6.810,13.837 6.799,13.820 6.788,13.804 C6.777,13.804 6.766,13.804 6.755,13.804 C6.749,13.793 6.744,13.781 6.738,13.771 C6.727,13.771 6.716,13.771 6.705,13.771 C6.694,13.754 6.683,13.737 6.672,13.721 C6.661,13.721 6.650,13.721 6.639,13.721 C6.633,13.710 6.628,13.699 6.622,13.688 C6.611,13.688 6.600,13.688 6.589,13.688 C6.578,13.671 6.567,13.654 6.556,13.638 C6.545,13.638 6.534,13.638 6.523,13.638 C6.512,13.622 6.501,13.605 6.490,13.588 C6.479,13.588 6.467,13.588 6.456,13.588 C6.445,13.572 6.434,13.555 6.423,13.539 C6.412,13.539 6.401,13.539 6.390,13.539 C6.379,13.522 6.368,13.506 6.357,13.489 C6.346,13.489 6.335,13.489 6.324,13.489 C6.307,13.467 6.291,13.445 6.274,13.423 C6.263,13.423 6.252,13.423 6.241,13.423 C6.225,13.401 6.208,13.379 6.191,13.356 C6.180,13.356 6.169,13.356 6.158,13.356 C6.147,13.340 6.136,13.323 6.125,13.307 C6.114,13.307 6.103,13.307 6.092,13.307 C6.070,13.279 6.048,13.252 6.026,13.224 C6.015,13.224 6.004,13.224 5.993,13.224 C5.976,13.202 5.959,13.180 5.943,13.158 C5.932,13.158 5.921,13.158 5.910,13.158 C5.888,13.130 5.866,13.102 5.843,13.075 C5.832,13.075 5.821,13.075 5.810,13.075 C5.788,13.047 5.766,13.020 5.744,12.992 C5.733,12.992 5.722,12.992 5.711,12.992 C5.683,12.959 5.656,12.926 5.628,12.893 C5.617,12.893 5.606,12.893 5.595,12.893 C5.562,12.854 5.529,12.815 5.496,12.777 C5.484,12.777 5.473,12.777 5.462,12.777 C5.424,12.733 5.385,12.688 5.346,12.644 C5.335,12.644 5.324,12.644 5.313,12.644 C5.264,12.589 5.214,12.534 5.164,12.479 C5.153,12.479 5.142,12.479 5.131,12.479 C5.125,12.467 5.120,12.456 5.114,12.445 C5.087,12.423 5.059,12.401 5.032,12.379 C4.987,12.329 4.943,12.280 4.899,12.230 C4.667,12.062 4.486,11.834 4.286,11.634 C4.107,11.455 3.906,11.295 3.756,11.087 C3.706,11.043 3.656,10.999 3.607,10.955 C3.590,10.933 3.574,10.911 3.557,10.888 C3.546,10.883 3.535,10.877 3.524,10.872 C3.524,10.861 3.524,10.850 3.524,10.839 C3.469,10.789 3.413,10.739 3.358,10.690 C3.358,10.679 3.358,10.668 3.358,10.657 C3.320,10.623 3.281,10.590 3.242,10.557 C3.242,10.546 3.242,10.535 3.242,10.524 C3.204,10.491 3.165,10.458 3.126,10.425 C3.126,10.414 3.126,10.403 3.126,10.392 C3.093,10.364 3.060,10.336 3.027,10.309 C3.027,10.298 3.027,10.287 3.027,10.276 C2.999,10.253 2.972,10.231 2.944,10.209 C2.944,10.198 2.944,10.187 2.944,10.176 C2.916,10.154 2.889,10.132 2.861,10.110 C2.861,10.099 2.861,10.088 2.861,10.077 C2.839,10.060 2.817,10.044 2.795,10.027 C2.795,10.016 2.795,10.005 2.795,9.994 C2.773,9.977 2.751,9.961 2.729,9.944 C2.729,9.933 2.729,9.922 2.729,9.911 C2.706,9.895 2.684,9.878 2.662,9.861 C2.662,9.850 2.662,9.839 2.662,9.828 C2.640,9.812 2.618,9.795 2.596,9.779 C2.596,9.768 2.596,9.757 2.596,9.746 C2.579,9.734 2.563,9.723 2.546,9.713 C2.546,9.701 2.546,9.690 2.546,9.679 C2.530,9.668 2.513,9.657 2.497,9.646 C2.497,9.635 2.497,9.624 2.497,9.613 C2.480,9.602 2.463,9.591 2.447,9.580 C2.447,9.569 2.447,9.558 2.447,9.547 C2.430,9.536 2.414,9.525 2.397,9.514 C2.392,9.497 2.386,9.480 2.381,9.464 C2.370,9.459 2.359,9.453 2.347,9.447 C2.347,9.436 2.347,9.425 2.347,9.414 C2.337,9.409 2.325,9.403 2.314,9.398 C2.314,9.387 2.314,9.376 2.314,9.365 C2.303,9.359 2.292,9.353 2.281,9.348 C2.276,9.332 2.270,9.315 2.265,9.298 C2.248,9.287 2.232,9.276 2.215,9.265 C2.215,9.254 2.215,9.243 2.215,9.232 C2.209,9.232 2.204,9.232 2.198,9.232 C2.193,9.216 2.187,9.199 2.182,9.182 C2.171,9.177 2.160,9.171 2.149,9.166 C2.149,9.155 2.149,9.144 2.149,9.133 C2.132,9.122 2.116,9.111 2.099,9.099 C2.099,9.089 2.099,9.078 2.099,9.066 C2.093,9.066 2.088,9.066 2.082,9.066 C2.077,9.050 2.071,9.033 2.066,9.017 C2.055,9.011 2.044,9.006 2.033,9.000 C2.033,8.989 2.033,8.978 2.033,8.967 C2.016,8.956 2.000,8.945 1.983,8.934 C1.983,8.923 1.983,8.912 1.983,8.901 C1.972,8.895 1.961,8.890 1.950,8.884 C1.944,8.868 1.939,8.851 1.933,8.835 C1.928,8.835 1.922,8.835 1.917,8.835 C1.917,8.824 1.917,8.813 1.917,8.801 C1.906,8.796 1.895,8.790 1.884,8.785 C1.884,8.774 1.884,8.763 1.884,8.752 C1.873,8.746 1.861,8.741 1.850,8.735 C1.850,8.724 1.850,8.713 1.850,8.702 C1.839,8.697 1.828,8.691 1.817,8.686 C1.817,8.674 1.817,8.663 1.817,8.652 C1.806,8.647 1.795,8.641 1.784,8.636 C1.784,8.625 1.784,8.614 1.784,8.603 C1.773,8.597 1.762,8.592 1.751,8.586 C1.751,8.575 1.751,8.564 1.751,8.553 C1.740,8.547 1.729,8.542 1.718,8.536 C1.712,8.514 1.707,8.492 1.701,8.470 C1.696,8.470 1.690,8.470 1.685,8.470 C1.679,8.454 1.674,8.437 1.668,8.420 C1.657,8.415 1.646,8.409 1.635,8.404 C1.629,8.382 1.624,8.360 1.618,8.338 C1.613,8.338 1.607,8.338 1.602,8.338 C1.596,8.321 1.591,8.305 1.585,8.288 C1.574,8.282 1.563,8.277 1.552,8.271 C1.547,8.249 1.541,8.227 1.536,8.205 C1.525,8.200 1.514,8.194 1.502,8.189 C1.497,8.166 1.491,8.144 1.486,8.122 C1.475,8.117 1.464,8.111 1.453,8.106 C1.447,8.089 1.442,8.073 1.436,8.056 C1.431,8.056 1.425,8.056 1.420,8.056 C1.409,8.023 1.398,7.990 1.387,7.957 C1.375,7.951 1.364,7.946 1.353,7.940 C1.353,7.929 1.353,7.918 1.353,7.907 C1.348,7.907 1.342,7.907 1.337,7.907 C1.337,7.896 1.337,7.885 1.337,7.874 C1.331,7.874 1.326,7.874 1.320,7.874 C1.320,7.863 1.320,7.852 1.320,7.841 C1.309,7.835 1.298,7.830 1.287,7.824 C1.276,7.791 1.265,7.758 1.254,7.725 C1.243,7.719 1.232,7.714 1.221,7.708 C1.221,7.697 1.221,7.686 1.221,7.675 C1.215,7.675 1.210,7.675 1.204,7.675 C1.204,7.664 1.204,7.653 1.204,7.642 C1.199,7.642 1.193,7.642 1.188,7.642 C1.188,7.631 1.188,7.620 1.188,7.609 C1.182,7.609 1.177,7.609 1.171,7.609 C1.171,7.598 1.171,7.587 1.171,7.576 C1.166,7.576 1.160,7.576 1.155,7.576 C1.149,7.554 1.144,7.531 1.138,7.509 C1.127,7.504 1.116,7.499 1.105,7.493 C1.066,7.405 1.028,7.316 0.989,7.228 C0.983,7.228 0.978,7.228 0.972,7.228 C0.972,7.217 0.972,7.206 0.972,7.195 C0.967,7.195 0.961,7.195 0.956,7.195 C0.956,7.184 0.956,7.173 0.956,7.162 C0.950,7.162 0.945,7.162 0.939,7.162 C0.939,7.151 0.939,7.139 0.939,7.129 C0.934,7.129 0.928,7.129 0.923,7.129 C0.923,7.118 0.923,7.106 0.923,7.095 C0.917,7.095 0.912,7.095 0.906,7.095 C0.895,7.062 0.884,7.029 0.873,6.996 C0.867,6.996 0.862,6.996 0.856,6.996 C0.856,6.979 0.856,6.963 0.856,6.946 C0.851,6.946 0.845,6.946 0.840,6.946 C0.840,6.935 0.840,6.924 0.840,6.913 C0.834,6.913 0.829,6.913 0.823,6.913 C0.823,6.902 0.823,6.891 0.823,6.880 C0.818,6.880 0.812,6.880 0.807,6.880 C0.796,6.847 0.785,6.814 0.773,6.781 C0.768,6.781 0.762,6.781 0.757,6.781 C0.757,6.764 0.757,6.748 0.757,6.731 C0.751,6.731 0.746,6.731 0.740,6.731 C0.740,6.720 0.740,6.709 0.740,6.698 C0.735,6.698 0.729,6.698 0.724,6.698 C0.718,6.676 0.713,6.654 0.707,6.632 C0.702,6.632 0.696,6.632 0.691,6.632 C0.691,6.615 0.691,6.598 0.691,6.582 C0.685,6.582 0.680,6.582 0.674,6.582 C0.669,6.560 0.663,6.538 0.658,6.516 C0.652,6.516 0.646,6.516 0.641,6.516 C0.641,6.499 0.641,6.483 0.641,6.466 C0.635,6.466 0.630,6.466 0.624,6.466 C0.624,6.455 0.624,6.444 0.624,6.433 C0.619,6.433 0.613,6.433 0.608,6.433 C0.608,6.416 0.608,6.400 0.608,6.383 C0.602,6.383 0.597,6.383 0.591,6.383 C0.591,6.372 0.591,6.361 0.591,6.350 C0.586,6.350 0.580,6.350 0.575,6.350 C0.569,6.322 0.564,6.295 0.558,6.267 C0.553,6.267 0.547,6.267 0.541,6.267 C0.541,6.251 0.541,6.234 0.541,6.218 C0.536,6.218 0.531,6.218 0.525,6.218 C0.525,6.206 0.525,6.195 0.525,6.184 C0.519,6.184 0.514,6.184 0.508,6.184 C0.497,6.135 0.486,6.085 0.475,6.035 C0.470,6.035 0.464,6.035 0.459,6.035 C0.459,6.024 0.459,6.013 0.459,6.002 C0.453,6.002 0.448,6.002 0.442,6.002 C0.442,5.986 0.442,5.969 0.442,5.952 C0.437,5.952 0.431,5.952 0.426,5.952 C0.426,5.936 0.426,5.919 0.426,5.903 C0.420,5.903 0.414,5.903 0.409,5.903 C0.409,5.886 0.409,5.870 0.409,5.853 C0.403,5.853 0.398,5.853 0.392,5.853 C0.392,5.837 0.392,5.820 0.392,5.803 C0.387,5.803 0.381,5.803 0.376,5.803 C0.376,5.781 0.376,5.759 0.376,5.737 C0.370,5.737 0.365,5.737 0.359,5.737 C0.359,5.721 0.359,5.704 0.359,5.687 C0.354,5.687 0.348,5.687 0.343,5.687 C0.343,5.671 0.343,5.654 0.343,5.638 C0.337,5.638 0.332,5.638 0.326,5.638 C0.326,5.621 0.326,5.605 0.326,5.588 C0.321,5.588 0.315,5.588 0.310,5.588 C0.304,5.549 0.299,5.511 0.293,5.472 C0.287,5.472 0.282,5.472 0.276,5.472 C0.271,5.433 0.265,5.395 0.260,5.356 C0.254,5.356 0.249,5.356 0.243,5.356 C0.243,5.334 0.243,5.312 0.243,5.290 C0.238,5.290 0.232,5.290 0.227,5.290 C0.227,5.268 0.227,5.246 0.227,5.224 C0.221,5.224 0.216,5.224 0.210,5.224 C0.210,5.207 0.210,5.190 0.210,5.174 C0.205,5.174 0.199,5.174 0.194,5.174 C0.194,5.152 0.194,5.130 0.194,5.108 C0.188,5.108 0.182,5.108 0.177,5.108 C0.177,5.080 0.177,5.052 0.177,5.025 C0.172,5.025 0.166,5.025 0.160,5.025 C0.160,5.003 0.160,4.981 0.160,4.959 C0.155,4.959 0.149,4.959 0.144,4.959 C0.144,4.937 0.144,4.914 0.144,4.892 C0.138,4.892 0.133,4.892 0.127,4.892 C0.127,4.865 0.127,4.837 0.127,4.810 C0.122,4.810 0.116,4.810 0.111,4.810 C0.111,4.782 0.111,4.754 0.111,4.727 C0.105,4.727 0.100,4.727 0.094,4.727 C0.094,4.694 0.094,4.661 0.094,4.627 C0.089,4.627 0.083,4.627 0.078,4.627 C0.072,4.561 0.067,4.495 0.061,4.429 C0.055,4.429 0.050,4.429 0.044,4.429 C0.044,4.384 0.044,4.340 0.044,4.296 C0.001,4.143 -0.021,3.607 0.028,3.435 C0.028,3.385 0.028,3.335 0.028,3.286 C0.033,3.286 0.039,3.286 0.044,3.286 C0.044,3.264 0.044,3.242 0.044,3.219 C0.050,3.219 0.055,3.219 0.061,3.219 C0.061,3.197 0.061,3.175 0.061,3.153 C0.122,3.015 0.182,2.877 0.243,2.739 C0.249,2.739 0.254,2.739 0.260,2.739 C0.265,2.722 0.271,2.706 0.276,2.690 C0.287,2.684 0.299,2.678 0.310,2.673 C0.310,2.662 0.310,2.651 0.310,2.640 C0.547,2.408 0.785,2.176 1.022,1.944 C1.039,1.922 1.055,1.900 1.072,1.878 C1.083,1.872 1.094,1.867 1.105,1.861 C1.105,1.850 1.105,1.839 1.105,1.828 C1.480,1.458 1.856,1.088 2.232,0.718 C2.397,0.547 2.563,0.376 2.729,0.205 C2.740,0.205 2.751,0.205 2.762,0.205 C2.778,0.183 2.795,0.161 2.811,0.139 C2.822,0.139 2.834,0.139 2.845,0.139 C2.850,0.128 2.856,0.116 2.861,0.106 C2.872,0.106 2.883,0.106 2.894,0.106 C2.894,0.100 2.894,0.095 2.894,0.089 C2.905,0.089 2.916,0.089 2.927,0.089 C2.927,0.083 2.927,0.078 2.927,0.072 C2.938,0.072 2.949,0.072 2.961,0.072 C2.961,0.067 2.961,0.061 2.961,0.056 C2.987,0.042 3.075,0.035 3.093,0.023 C3.093,0.017 3.093,0.012 3.093,0.006 Z"/>
</svg>
