<svg
        xmlns="http://www.w3.org/2000/svg"
        width="16px" height="13px">
    <path fill-rule="evenodd"  fill="rgb(239, 18, 49)"
          d="M1.174,0.005 C5.010,0.005 8.848,0.005 12.684,0.005 C13.194,0.005 13.705,0.005 14.215,0.005 C14.438,0.005 14.719,-0.019 14.891,0.039 C14.912,0.039 14.934,0.039 14.956,0.039 C14.956,0.044 14.956,0.050 14.956,0.055 C15.006,0.067 15.055,0.078 15.105,0.089 C15.105,0.095 15.105,0.100 15.105,0.106 C15.138,0.117 15.170,0.129 15.203,0.140 C15.203,0.146 15.203,0.151 15.203,0.157 C15.214,0.157 15.225,0.157 15.236,0.157 C15.236,0.162 15.236,0.168 15.236,0.174 C15.258,0.179 15.280,0.185 15.302,0.190 C15.308,0.202 15.313,0.213 15.319,0.224 C15.330,0.224 15.341,0.224 15.352,0.224 C15.357,0.236 15.363,0.247 15.368,0.258 C15.384,0.264 15.401,0.269 15.417,0.275 C15.428,0.292 15.439,0.309 15.450,0.326 C15.461,0.326 15.472,0.326 15.483,0.326 C15.516,0.365 15.549,0.405 15.582,0.444 C15.615,0.472 15.648,0.500 15.681,0.529 C15.681,0.540 15.681,0.551 15.681,0.562 C15.697,0.574 15.714,0.585 15.730,0.596 C15.730,0.607 15.730,0.619 15.730,0.630 C15.747,0.641 15.763,0.653 15.780,0.664 C15.785,0.686 15.791,0.709 15.796,0.731 C15.807,0.737 15.818,0.743 15.829,0.748 C15.835,0.771 15.840,0.793 15.846,0.816 C15.851,0.816 15.857,0.816 15.862,0.816 C15.862,0.827 15.862,0.838 15.862,0.850 C15.868,0.850 15.873,0.850 15.879,0.850 C15.879,0.861 15.879,0.872 15.879,0.883 C15.884,0.883 15.890,0.883 15.895,0.883 C15.895,0.900 15.895,0.917 15.895,0.934 C15.901,0.934 15.906,0.934 15.911,0.934 C15.911,0.945 15.911,0.957 15.911,0.968 C15.917,0.968 15.922,0.968 15.928,0.968 C15.933,1.007 15.939,1.047 15.944,1.086 C15.950,1.086 15.955,1.086 15.961,1.086 C15.998,1.200 15.994,1.343 15.994,1.492 C15.994,1.582 15.994,1.672 15.994,1.762 C15.970,1.849 15.954,1.968 15.928,2.049 C15.928,2.072 15.928,2.095 15.928,2.117 C15.922,2.117 15.917,2.117 15.911,2.117 C15.911,2.134 15.911,2.151 15.911,2.168 C15.906,2.168 15.901,2.168 15.895,2.168 C15.895,2.185 15.895,2.202 15.895,2.218 C15.890,2.218 15.884,2.218 15.879,2.218 C15.879,2.235 15.879,2.252 15.879,2.269 C15.873,2.269 15.868,2.269 15.862,2.269 C15.862,2.286 15.862,2.303 15.862,2.320 C15.857,2.320 15.851,2.320 15.846,2.320 C15.846,2.331 15.846,2.342 15.846,2.354 C15.840,2.354 15.835,2.354 15.829,2.354 C15.829,2.371 15.829,2.387 15.829,2.404 C15.824,2.404 15.818,2.404 15.813,2.404 C15.807,2.427 15.802,2.449 15.796,2.472 C15.791,2.472 15.785,2.472 15.780,2.472 C15.780,2.483 15.780,2.495 15.780,2.506 C15.774,2.506 15.769,2.506 15.763,2.506 C15.758,2.534 15.752,2.562 15.747,2.590 C15.736,2.596 15.725,2.602 15.714,2.607 C15.714,2.618 15.714,2.630 15.714,2.641 C15.708,2.641 15.703,2.641 15.697,2.641 C15.697,2.652 15.697,2.663 15.697,2.675 C15.692,2.675 15.686,2.675 15.681,2.675 C15.681,2.686 15.681,2.697 15.681,2.709 C15.675,2.709 15.670,2.709 15.664,2.709 C15.664,2.720 15.664,2.731 15.664,2.742 C15.659,2.742 15.653,2.742 15.648,2.742 C15.642,2.759 15.637,2.776 15.631,2.793 C15.621,2.799 15.610,2.804 15.599,2.810 C15.593,2.832 15.588,2.855 15.582,2.877 C15.566,2.889 15.549,2.900 15.533,2.911 C15.533,2.923 15.533,2.934 15.533,2.945 C15.522,2.951 15.511,2.956 15.500,2.962 C15.500,2.973 15.500,2.985 15.500,2.996 C15.483,3.007 15.467,3.018 15.450,3.030 C15.450,3.041 15.450,3.052 15.450,3.063 C15.434,3.075 15.417,3.086 15.401,3.097 C15.401,3.108 15.401,3.120 15.401,3.131 C15.379,3.148 15.357,3.165 15.335,3.182 C15.335,3.193 15.335,3.204 15.335,3.215 C15.308,3.238 15.280,3.260 15.253,3.283 C15.253,3.294 15.253,3.306 15.253,3.317 C15.187,3.379 15.121,3.441 15.055,3.503 C14.984,3.582 14.912,3.660 14.841,3.739 C14.830,3.739 14.819,3.739 14.808,3.739 C14.786,3.767 14.764,3.796 14.742,3.824 C14.731,3.824 14.720,3.824 14.709,3.824 C14.693,3.846 14.676,3.869 14.660,3.891 C14.649,3.891 14.638,3.891 14.627,3.891 C14.616,3.908 14.605,3.925 14.594,3.942 C14.583,3.942 14.572,3.942 14.561,3.942 C14.550,3.959 14.539,3.976 14.528,3.993 C14.517,3.993 14.506,3.993 14.495,3.993 C14.490,4.004 14.484,4.015 14.479,4.027 C14.468,4.027 14.457,4.027 14.446,4.027 C14.435,4.043 14.424,4.060 14.413,4.077 C14.402,4.077 14.391,4.077 14.380,4.077 C14.380,4.083 14.380,4.089 14.380,4.094 C14.364,4.100 14.347,4.106 14.331,4.111 C14.325,4.122 14.320,4.134 14.314,4.145 C14.303,4.145 14.292,4.145 14.281,4.145 C14.270,4.162 14.259,4.179 14.248,4.196 C14.237,4.196 14.226,4.196 14.215,4.196 C14.215,4.201 14.215,4.207 14.215,4.213 C14.199,4.218 14.183,4.224 14.166,4.229 C14.161,4.241 14.155,4.252 14.150,4.263 C14.139,4.263 14.128,4.263 14.117,4.263 C14.106,4.280 14.095,4.297 14.084,4.314 C14.073,4.314 14.062,4.314 14.051,4.314 C14.051,4.320 14.051,4.325 14.051,4.331 C14.034,4.336 14.018,4.342 14.001,4.348 C13.996,4.359 13.990,4.370 13.985,4.381 C13.974,4.381 13.963,4.381 13.952,4.381 C13.941,4.398 13.930,4.415 13.919,4.432 C13.908,4.432 13.897,4.432 13.886,4.432 C13.886,4.438 13.886,4.443 13.886,4.449 C13.870,4.455 13.853,4.460 13.837,4.466 C13.831,4.477 13.826,4.488 13.820,4.500 C13.809,4.500 13.798,4.500 13.787,4.500 C13.776,4.517 13.765,4.534 13.754,4.550 C13.743,4.550 13.732,4.550 13.721,4.550 C13.721,4.556 13.721,4.562 13.721,4.567 C13.705,4.573 13.688,4.579 13.672,4.584 C13.667,4.596 13.661,4.607 13.656,4.618 C13.645,4.618 13.634,4.618 13.623,4.618 C13.612,4.635 13.601,4.652 13.590,4.669 C13.579,4.669 13.568,4.669 13.557,4.669 C13.557,4.674 13.557,4.680 13.557,4.686 C13.540,4.691 13.524,4.697 13.507,4.703 C13.502,4.714 13.496,4.725 13.491,4.736 C13.480,4.736 13.469,4.736 13.458,4.736 C13.447,4.753 13.436,4.770 13.425,4.787 C13.414,4.787 13.403,4.787 13.392,4.787 C13.392,4.793 13.392,4.798 13.392,4.804 C13.376,4.810 13.359,4.815 13.343,4.821 C13.337,4.832 13.332,4.843 13.326,4.855 C13.315,4.855 13.304,4.855 13.293,4.855 C13.282,4.871 13.271,4.888 13.260,4.905 C13.249,4.905 13.238,4.905 13.227,4.905 C13.222,4.917 13.216,4.928 13.211,4.939 C13.200,4.939 13.189,4.939 13.178,4.939 C13.173,4.950 13.167,4.962 13.162,4.973 C13.151,4.973 13.140,4.973 13.129,4.973 C13.118,4.990 13.107,5.007 13.096,5.024 C13.085,5.024 13.074,5.024 13.063,5.024 C13.063,5.029 13.063,5.035 13.063,5.041 C13.046,5.046 13.030,5.052 13.013,5.057 C13.008,5.069 13.002,5.080 12.997,5.091 C12.986,5.091 12.975,5.091 12.964,5.091 C12.953,5.108 12.942,5.125 12.931,5.142 C12.920,5.142 12.909,5.142 12.898,5.142 C12.898,5.148 12.898,5.153 12.898,5.159 C12.882,5.164 12.865,5.170 12.849,5.176 C12.843,5.187 12.838,5.198 12.832,5.210 C12.821,5.210 12.810,5.210 12.799,5.210 C12.788,5.226 12.777,5.243 12.766,5.260 C12.755,5.260 12.744,5.260 12.733,5.260 C12.733,5.266 12.733,5.271 12.733,5.277 C12.717,5.283 12.701,5.288 12.684,5.294 C12.679,5.305 12.673,5.317 12.668,5.328 C12.657,5.328 12.646,5.328 12.635,5.328 C12.624,5.345 12.613,5.362 12.602,5.378 C12.591,5.378 12.580,5.378 12.569,5.378 C12.569,5.384 12.569,5.390 12.569,5.395 C12.552,5.401 12.536,5.407 12.519,5.412 C12.514,5.424 12.508,5.435 12.503,5.446 C12.492,5.446 12.481,5.446 12.470,5.446 C12.459,5.463 12.448,5.480 12.437,5.497 C12.426,5.497 12.415,5.497 12.404,5.497 C12.404,5.502 12.404,5.508 12.404,5.514 C12.388,5.519 12.371,5.525 12.355,5.531 C12.349,5.542 12.344,5.553 12.338,5.564 C12.327,5.564 12.316,5.564 12.305,5.564 C12.294,5.581 12.283,5.598 12.272,5.615 C12.261,5.615 12.250,5.615 12.239,5.615 C12.239,5.621 12.239,5.626 12.239,5.632 C12.223,5.638 12.207,5.643 12.190,5.649 C12.185,5.660 12.179,5.671 12.174,5.683 C12.163,5.683 12.152,5.683 12.141,5.683 C12.130,5.700 12.119,5.716 12.108,5.733 C12.097,5.733 12.086,5.733 12.075,5.733 C12.075,5.739 12.075,5.745 12.075,5.750 C12.058,5.756 12.042,5.762 12.025,5.767 C12.020,5.778 12.014,5.790 12.009,5.801 C11.998,5.801 11.987,5.801 11.976,5.801 C11.965,5.818 11.954,5.835 11.943,5.852 C11.932,5.852 11.921,5.852 11.910,5.852 C11.910,5.857 11.910,5.863 11.910,5.869 C11.894,5.874 11.877,5.880 11.861,5.885 C11.855,5.897 11.850,5.908 11.844,5.919 C11.833,5.919 11.822,5.919 11.811,5.919 C11.800,5.936 11.789,5.953 11.778,5.970 C11.767,5.970 11.756,5.970 11.746,5.970 C11.746,5.976 11.746,5.981 11.746,5.987 C11.729,5.992 11.713,5.998 11.696,6.004 C11.691,6.015 11.685,6.026 11.680,6.038 C11.669,6.038 11.658,6.038 11.647,6.038 C11.636,6.055 11.625,6.071 11.614,6.088 C11.603,6.088 11.592,6.088 11.581,6.088 C11.581,6.094 11.581,6.099 11.581,6.105 C11.564,6.111 11.548,6.116 11.531,6.122 C11.526,6.133 11.520,6.145 11.515,6.156 C11.504,6.156 11.493,6.156 11.482,6.156 C11.471,6.173 11.460,6.190 11.449,6.206 C11.438,6.206 11.427,6.206 11.416,6.206 C11.416,6.212 11.416,6.218 11.416,6.223 C11.400,6.229 11.383,6.235 11.367,6.240 C11.361,6.252 11.356,6.263 11.350,6.274 C11.339,6.274 11.328,6.274 11.317,6.274 C11.306,6.291 11.295,6.308 11.284,6.325 C11.273,6.325 11.262,6.325 11.251,6.325 C11.251,6.330 11.251,6.336 11.251,6.342 C11.235,6.347 11.219,6.353 11.202,6.359 C11.197,6.370 11.191,6.381 11.186,6.392 C11.175,6.392 11.164,6.392 11.153,6.392 C11.142,6.409 11.131,6.426 11.120,6.443 C11.109,6.443 11.098,6.443 11.087,6.443 C11.087,6.449 11.087,6.454 11.087,6.460 C11.070,6.466 11.054,6.471 11.037,6.477 C11.032,6.488 11.026,6.499 11.021,6.511 C11.010,6.511 10.999,6.511 10.988,6.511 C10.977,6.528 10.966,6.545 10.955,6.562 C10.944,6.562 10.933,6.562 10.922,6.562 C10.922,6.567 10.922,6.573 10.922,6.578 C10.906,6.584 10.889,6.590 10.873,6.595 C10.867,6.606 10.862,6.618 10.856,6.629 C10.845,6.629 10.834,6.629 10.823,6.629 C10.812,6.646 10.801,6.663 10.790,6.680 C10.780,6.680 10.769,6.680 10.758,6.680 C10.752,6.691 10.747,6.702 10.741,6.713 C10.730,6.713 10.719,6.713 10.708,6.713 C10.703,6.725 10.697,6.736 10.692,6.747 C10.681,6.747 10.670,6.747 10.659,6.747 C10.648,6.764 10.637,6.781 10.626,6.798 C10.615,6.798 10.604,6.798 10.593,6.798 C10.593,6.804 10.593,6.809 10.593,6.815 C10.576,6.820 10.560,6.826 10.543,6.832 C10.538,6.843 10.532,6.854 10.527,6.866 C10.516,6.866 10.505,6.866 10.494,6.866 C10.483,6.883 10.472,6.899 10.461,6.916 C10.450,6.916 10.439,6.916 10.428,6.916 C10.423,6.928 10.417,6.939 10.412,6.950 C10.401,6.950 10.390,6.950 10.379,6.950 C10.368,6.967 10.357,6.984 10.346,7.001 C10.335,7.001 10.324,7.001 10.313,7.001 C10.313,7.006 10.313,7.012 10.313,7.018 C10.296,7.023 10.280,7.029 10.263,7.035 C10.258,7.046 10.253,7.057 10.247,7.068 C10.236,7.068 10.225,7.068 10.214,7.068 C10.209,7.080 10.203,7.091 10.198,7.102 C10.181,7.108 10.165,7.113 10.148,7.119 C10.137,7.136 10.126,7.153 10.115,7.170 C10.104,7.170 10.093,7.170 10.082,7.170 C10.077,7.181 10.071,7.192 10.066,7.204 C10.055,7.204 10.044,7.204 10.033,7.204 C10.028,7.215 10.022,7.226 10.017,7.237 C10.000,7.243 9.984,7.249 9.967,7.254 C9.956,7.271 9.945,7.288 9.934,7.305 C9.923,7.305 9.912,7.305 9.901,7.305 C9.896,7.316 9.890,7.327 9.885,7.339 C9.874,7.339 9.863,7.339 9.852,7.339 C9.841,7.356 9.830,7.373 9.819,7.389 C9.808,7.389 9.797,7.389 9.786,7.389 C9.781,7.401 9.775,7.412 9.770,7.423 C9.759,7.423 9.748,7.423 9.737,7.423 C9.726,7.440 9.715,7.457 9.704,7.474 C9.693,7.474 9.682,7.474 9.671,7.474 C9.665,7.485 9.660,7.497 9.654,7.508 C9.643,7.508 9.632,7.508 9.621,7.508 C9.610,7.525 9.599,7.542 9.588,7.558 C9.577,7.558 9.566,7.558 9.555,7.558 C9.550,7.570 9.544,7.581 9.539,7.592 C9.523,7.598 9.506,7.604 9.490,7.609 C9.490,7.615 9.490,7.620 9.490,7.626 C9.479,7.626 9.468,7.626 9.457,7.626 C9.451,7.637 9.446,7.649 9.440,7.660 C9.429,7.660 9.418,7.660 9.407,7.660 C9.402,7.671 9.396,7.682 9.391,7.694 C9.380,7.694 9.369,7.694 9.358,7.694 C9.352,7.705 9.347,7.716 9.341,7.727 C9.330,7.727 9.319,7.727 9.308,7.727 C9.303,7.739 9.298,7.750 9.292,7.761 C9.281,7.761 9.270,7.761 9.259,7.761 C9.254,7.773 9.248,7.784 9.243,7.795 C9.221,7.801 9.199,7.806 9.177,7.812 C9.171,7.823 9.166,7.834 9.160,7.846 C9.149,7.846 9.138,7.846 9.127,7.846 C9.122,7.857 9.116,7.868 9.111,7.880 C9.100,7.880 9.089,7.880 9.078,7.880 C9.078,7.885 9.078,7.891 9.078,7.896 C9.067,7.896 9.056,7.896 9.045,7.896 C9.040,7.908 9.034,7.919 9.029,7.930 C9.007,7.936 8.985,7.941 8.963,7.947 C8.957,7.958 8.952,7.970 8.946,7.981 C8.924,7.987 8.902,7.992 8.880,7.998 C8.880,8.003 8.880,8.009 8.880,8.015 C8.869,8.015 8.858,8.015 8.847,8.015 C8.847,8.020 8.847,8.026 8.847,8.032 C8.836,8.032 8.825,8.032 8.815,8.032 C8.815,8.037 8.815,8.043 8.815,8.048 C8.804,8.048 8.793,8.048 8.782,8.048 C8.782,8.054 8.782,8.060 8.782,8.065 C8.771,8.065 8.760,8.065 8.749,8.065 C8.749,8.071 8.749,8.077 8.749,8.082 C8.738,8.082 8.727,8.082 8.716,8.082 C8.716,8.088 8.716,8.094 8.716,8.099 C8.694,8.105 8.672,8.110 8.650,8.116 C8.650,8.122 8.650,8.127 8.650,8.133 C8.639,8.133 8.628,8.133 8.617,8.133 C8.617,8.139 8.617,8.144 8.617,8.150 C8.589,8.156 8.562,8.161 8.535,8.167 C8.535,8.172 8.535,8.178 8.535,8.184 C8.502,8.189 8.469,8.195 8.436,8.201 C8.436,8.206 8.436,8.212 8.436,8.217 C8.419,8.217 8.403,8.217 8.386,8.217 C8.386,8.223 8.386,8.229 8.386,8.234 C8.364,8.234 8.342,8.234 8.321,8.234 C8.321,8.240 8.321,8.246 8.321,8.251 C8.255,8.257 8.189,8.263 8.123,8.268 C8.123,8.274 8.123,8.280 8.123,8.285 C8.041,8.285 7.958,8.285 7.876,8.285 C7.876,8.280 7.876,8.274 7.876,8.268 C7.837,8.268 7.799,8.268 7.761,8.268 C7.761,8.263 7.761,8.257 7.761,8.251 C7.733,8.251 7.706,8.251 7.678,8.251 C7.678,8.246 7.678,8.240 7.678,8.234 C7.656,8.234 7.634,8.234 7.612,8.234 C7.612,8.229 7.612,8.223 7.612,8.217 C7.596,8.217 7.580,8.217 7.563,8.217 C7.563,8.212 7.563,8.206 7.563,8.201 C7.547,8.201 7.530,8.201 7.514,8.201 C7.514,8.195 7.514,8.189 7.514,8.184 C7.497,8.184 7.481,8.184 7.464,8.184 C7.464,8.178 7.464,8.172 7.464,8.167 C7.453,8.167 7.442,8.167 7.431,8.167 C7.431,8.161 7.431,8.156 7.431,8.150 C7.415,8.150 7.398,8.150 7.382,8.150 C7.382,8.144 7.382,8.139 7.382,8.133 C7.349,8.122 7.316,8.110 7.283,8.099 C7.283,8.094 7.283,8.088 7.283,8.082 C7.272,8.082 7.261,8.082 7.250,8.082 C7.250,8.077 7.250,8.071 7.250,8.065 C7.239,8.065 7.228,8.065 7.217,8.065 C7.217,8.060 7.217,8.054 7.217,8.048 C7.206,8.048 7.195,8.048 7.184,8.048 C7.184,8.043 7.184,8.037 7.184,8.032 C7.173,8.032 7.162,8.032 7.151,8.032 C7.151,8.026 7.151,8.020 7.151,8.015 C7.140,8.015 7.129,8.015 7.118,8.015 C7.118,8.009 7.118,8.003 7.118,7.998 C7.108,7.998 7.097,7.998 7.086,7.998 C7.086,7.992 7.086,7.987 7.086,7.981 C7.075,7.981 7.064,7.981 7.053,7.981 C7.047,7.970 7.042,7.958 7.036,7.947 C7.014,7.941 6.992,7.936 6.970,7.930 C6.965,7.919 6.959,7.908 6.954,7.896 C6.932,7.891 6.910,7.885 6.888,7.880 C6.888,7.874 6.888,7.868 6.888,7.863 C6.871,7.857 6.855,7.851 6.839,7.846 C6.833,7.834 6.828,7.823 6.822,7.812 C6.800,7.806 6.778,7.801 6.756,7.795 C6.751,7.784 6.745,7.773 6.740,7.761 C6.729,7.761 6.718,7.761 6.707,7.761 C6.701,7.750 6.696,7.739 6.690,7.727 C6.679,7.727 6.668,7.727 6.657,7.727 C6.657,7.722 6.657,7.716 6.657,7.711 C6.641,7.705 6.625,7.699 6.608,7.694 C6.603,7.682 6.597,7.671 6.592,7.660 C6.581,7.660 6.570,7.660 6.559,7.660 C6.553,7.649 6.548,7.637 6.542,7.626 C6.531,7.626 6.520,7.626 6.509,7.626 C6.509,7.620 6.509,7.615 6.509,7.609 C6.493,7.604 6.476,7.598 6.460,7.592 C6.454,7.581 6.449,7.570 6.443,7.558 C6.432,7.558 6.421,7.558 6.410,7.558 C6.400,7.542 6.389,7.525 6.378,7.508 C6.367,7.508 6.356,7.508 6.345,7.508 C6.339,7.497 6.334,7.485 6.328,7.474 C6.317,7.474 6.306,7.474 6.295,7.474 C6.284,7.457 6.273,7.440 6.262,7.423 C6.251,7.423 6.240,7.423 6.229,7.423 C6.224,7.412 6.218,7.401 6.213,7.389 C6.202,7.389 6.191,7.389 6.180,7.389 C6.169,7.373 6.158,7.356 6.147,7.339 C6.136,7.339 6.125,7.339 6.114,7.339 C6.109,7.327 6.103,7.316 6.098,7.305 C6.087,7.305 6.076,7.305 6.065,7.305 C6.054,7.288 6.043,7.271 6.032,7.254 C6.021,7.254 6.010,7.254 5.999,7.254 C5.988,7.237 5.977,7.220 5.966,7.204 C5.955,7.204 5.944,7.204 5.933,7.204 C5.927,7.192 5.922,7.181 5.916,7.170 C5.905,7.170 5.894,7.170 5.883,7.170 C5.878,7.159 5.873,7.147 5.867,7.136 C5.851,7.130 5.834,7.125 5.818,7.119 C5.807,7.102 5.796,7.085 5.785,7.068 C5.774,7.068 5.763,7.068 5.752,7.068 C5.746,7.057 5.741,7.046 5.735,7.035 C5.724,7.035 5.713,7.035 5.702,7.035 C5.691,7.018 5.680,7.001 5.669,6.984 C5.659,6.984 5.648,6.984 5.637,6.984 C5.637,6.978 5.637,6.973 5.637,6.967 C5.620,6.961 5.604,6.956 5.587,6.950 C5.582,6.939 5.576,6.928 5.571,6.916 C5.560,6.916 5.549,6.916 5.538,6.916 C5.527,6.899 5.516,6.883 5.505,6.866 C5.494,6.866 5.483,6.866 5.472,6.866 C5.466,6.854 5.461,6.843 5.455,6.832 C5.444,6.832 5.433,6.832 5.422,6.832 C5.412,6.815 5.401,6.798 5.390,6.781 C5.379,6.781 5.368,6.781 5.357,6.781 C5.351,6.770 5.346,6.759 5.340,6.747 C5.329,6.747 5.318,6.747 5.307,6.747 C5.296,6.730 5.285,6.713 5.274,6.697 C5.263,6.697 5.252,6.697 5.241,6.697 C5.236,6.685 5.230,6.674 5.225,6.663 C5.214,6.663 5.203,6.663 5.192,6.663 C5.186,6.652 5.181,6.640 5.175,6.629 C5.164,6.629 5.153,6.629 5.142,6.629 C5.132,6.612 5.121,6.595 5.110,6.578 C5.099,6.578 5.088,6.578 5.077,6.578 C5.077,6.573 5.077,6.567 5.077,6.562 C5.060,6.556 5.044,6.550 5.027,6.545 C5.022,6.533 5.016,6.522 5.011,6.511 C5.000,6.511 4.989,6.511 4.978,6.511 C4.967,6.494 4.956,6.477 4.945,6.460 C4.934,6.460 4.923,6.460 4.912,6.460 C4.912,6.454 4.912,6.449 4.912,6.443 C4.896,6.438 4.879,6.432 4.863,6.426 C4.857,6.415 4.852,6.404 4.846,6.392 C4.835,6.392 4.824,6.392 4.813,6.392 C4.802,6.376 4.791,6.359 4.780,6.342 C4.769,6.342 4.758,6.342 4.747,6.342 C4.742,6.330 4.736,6.319 4.731,6.308 C4.720,6.308 4.709,6.308 4.698,6.308 C4.687,6.291 4.676,6.274 4.665,6.257 C4.654,6.257 4.643,6.257 4.632,6.257 C4.632,6.252 4.632,6.246 4.632,6.240 C4.616,6.235 4.599,6.229 4.583,6.223 C4.577,6.212 4.572,6.201 4.566,6.190 C4.555,6.190 4.544,6.190 4.533,6.190 C4.522,6.173 4.511,6.156 4.500,6.139 C4.489,6.139 4.478,6.139 4.467,6.139 C4.467,6.133 4.467,6.128 4.467,6.122 C4.451,6.116 4.434,6.111 4.418,6.105 C4.413,6.094 4.407,6.083 4.402,6.071 C4.391,6.071 4.380,6.071 4.369,6.071 C4.358,6.055 4.347,6.038 4.336,6.021 C4.325,6.021 4.314,6.021 4.303,6.021 C4.303,6.015 4.303,6.009 4.303,6.004 C4.286,5.998 4.270,5.992 4.253,5.987 C4.248,5.976 4.242,5.964 4.237,5.953 C4.226,5.953 4.215,5.953 4.204,5.953 C4.193,5.936 4.182,5.919 4.171,5.902 C4.160,5.902 4.149,5.902 4.138,5.902 C4.138,5.897 4.138,5.891 4.138,5.885 C4.122,5.880 4.105,5.874 4.089,5.869 C4.083,5.857 4.078,5.846 4.072,5.835 C4.061,5.835 4.050,5.835 4.039,5.835 C4.028,5.818 4.017,5.801 4.006,5.784 C3.995,5.784 3.984,5.784 3.973,5.784 C3.973,5.778 3.973,5.773 3.973,5.767 C3.957,5.762 3.941,5.756 3.924,5.750 C3.919,5.739 3.913,5.728 3.908,5.716 C3.897,5.716 3.886,5.716 3.875,5.716 C3.864,5.700 3.853,5.683 3.842,5.666 C3.831,5.666 3.820,5.666 3.809,5.666 C3.809,5.660 3.809,5.655 3.809,5.649 C3.792,5.643 3.776,5.638 3.759,5.632 C3.754,5.621 3.748,5.609 3.743,5.598 C3.732,5.598 3.721,5.598 3.710,5.598 C3.699,5.581 3.688,5.564 3.677,5.548 C3.666,5.548 3.655,5.548 3.644,5.548 C3.644,5.542 3.644,5.536 3.644,5.531 C3.628,5.525 3.611,5.519 3.595,5.514 C3.589,5.502 3.584,5.491 3.578,5.480 C3.567,5.480 3.556,5.480 3.545,5.480 C3.534,5.463 3.523,5.446 3.512,5.429 C3.501,5.429 3.490,5.429 3.479,5.429 C3.479,5.424 3.479,5.418 3.479,5.412 C3.463,5.407 3.446,5.401 3.430,5.395 C3.425,5.384 3.419,5.373 3.414,5.362 C3.403,5.362 3.392,5.362 3.381,5.362 C3.370,5.345 3.359,5.328 3.348,5.311 C3.337,5.311 3.326,5.311 3.315,5.311 C3.315,5.305 3.315,5.300 3.315,5.294 C3.298,5.288 3.282,5.283 3.265,5.277 C3.260,5.266 3.254,5.255 3.249,5.243 C3.238,5.243 3.227,5.243 3.216,5.243 C3.205,5.226 3.194,5.210 3.183,5.193 C3.172,5.193 3.161,5.193 3.150,5.193 C3.150,5.187 3.150,5.181 3.150,5.176 C3.134,5.170 3.117,5.164 3.101,5.159 C3.095,5.148 3.090,5.136 3.084,5.125 C3.073,5.125 3.062,5.125 3.051,5.125 C3.040,5.108 3.029,5.091 3.018,5.074 C3.007,5.074 2.996,5.074 2.986,5.074 C2.980,5.063 2.975,5.052 2.969,5.041 C2.958,5.041 2.947,5.041 2.936,5.041 C2.936,5.035 2.936,5.029 2.936,5.024 C2.920,5.018 2.903,5.012 2.887,5.007 C2.881,4.995 2.876,4.984 2.870,4.973 C2.859,4.973 2.848,4.973 2.837,4.973 C2.826,4.956 2.815,4.939 2.804,4.922 C2.793,4.922 2.782,4.922 2.771,4.922 C2.766,4.911 2.760,4.900 2.755,4.888 C2.744,4.888 2.733,4.888 2.722,4.888 C2.717,4.877 2.711,4.866 2.706,4.855 C2.695,4.855 2.684,4.855 2.673,4.855 C2.662,4.838 2.651,4.821 2.640,4.804 C2.629,4.804 2.618,4.804 2.607,4.804 C2.607,4.798 2.607,4.793 2.607,4.787 C2.590,4.781 2.574,4.776 2.557,4.770 C2.552,4.759 2.546,4.748 2.541,4.736 C2.530,4.736 2.519,4.736 2.508,4.736 C2.497,4.720 2.486,4.703 2.475,4.686 C2.464,4.686 2.453,4.686 2.442,4.686 C2.442,4.680 2.442,4.674 2.442,4.669 C2.426,4.663 2.409,4.657 2.393,4.652 C2.387,4.641 2.382,4.629 2.376,4.618 C2.365,4.618 2.354,4.618 2.343,4.618 C2.332,4.601 2.321,4.584 2.310,4.567 C2.299,4.567 2.288,4.567 2.277,4.567 C2.277,4.562 2.277,4.556 2.277,4.550 C2.261,4.545 2.245,4.539 2.228,4.534 C2.223,4.522 2.217,4.511 2.212,4.500 C2.201,4.500 2.190,4.500 2.179,4.500 C2.168,4.483 2.157,4.466 2.146,4.449 C2.135,4.449 2.124,4.449 2.113,4.449 C2.107,4.438 2.102,4.427 2.096,4.415 C2.085,4.415 2.074,4.415 2.063,4.415 C2.052,4.398 2.041,4.381 2.030,4.364 C2.019,4.364 2.009,4.364 1.998,4.364 C1.998,4.359 1.998,4.353 1.998,4.348 C1.981,4.342 1.965,4.336 1.948,4.331 C1.943,4.320 1.937,4.308 1.932,4.297 C1.921,4.297 1.910,4.297 1.899,4.297 C1.888,4.280 1.877,4.263 1.866,4.246 C1.855,4.246 1.844,4.246 1.833,4.246 C1.827,4.235 1.822,4.224 1.816,4.213 C1.805,4.213 1.794,4.213 1.783,4.213 C1.778,4.201 1.772,4.190 1.767,4.179 C1.756,4.179 1.745,4.179 1.734,4.179 C1.723,4.162 1.712,4.145 1.701,4.128 C1.690,4.128 1.679,4.128 1.668,4.128 C1.668,4.122 1.668,4.117 1.668,4.111 C1.652,4.106 1.635,4.100 1.619,4.094 C1.613,4.083 1.608,4.072 1.602,4.060 C1.591,4.060 1.580,4.060 1.569,4.060 C1.558,4.043 1.547,4.027 1.536,4.010 C1.525,4.010 1.514,4.010 1.504,4.010 C1.498,3.998 1.493,3.987 1.487,3.976 C1.476,3.976 1.465,3.976 1.454,3.976 C1.449,3.965 1.443,3.953 1.438,3.942 C1.421,3.936 1.405,3.931 1.388,3.925 C1.377,3.908 1.366,3.891 1.355,3.874 C1.344,3.874 1.333,3.874 1.322,3.874 C1.300,3.846 1.279,3.818 1.257,3.790 C1.246,3.790 1.235,3.790 1.224,3.790 C1.185,3.745 1.147,3.700 1.108,3.655 C1.097,3.655 1.086,3.655 1.075,3.655 C1.031,3.604 0.988,3.553 0.944,3.503 C0.922,3.486 0.900,3.469 0.878,3.452 C0.878,3.441 0.878,3.429 0.878,3.418 C0.828,3.373 0.779,3.328 0.730,3.283 C0.730,3.272 0.730,3.260 0.730,3.249 C0.719,3.244 0.708,3.238 0.697,3.232 C0.697,3.227 0.697,3.221 0.697,3.215 C0.680,3.204 0.664,3.193 0.647,3.182 C0.647,3.170 0.647,3.159 0.647,3.148 C0.625,3.131 0.603,3.114 0.581,3.097 C0.581,3.086 0.581,3.075 0.581,3.063 C0.565,3.052 0.548,3.041 0.532,3.030 C0.532,3.018 0.532,3.007 0.532,2.996 C0.516,2.985 0.499,2.973 0.483,2.962 C0.483,2.951 0.483,2.939 0.483,2.928 C0.466,2.917 0.450,2.906 0.433,2.894 C0.433,2.883 0.433,2.872 0.433,2.861 C0.422,2.855 0.411,2.849 0.400,2.844 C0.395,2.827 0.389,2.810 0.384,2.793 C0.378,2.793 0.373,2.793 0.367,2.793 C0.367,2.782 0.367,2.770 0.367,2.759 C0.356,2.754 0.345,2.748 0.334,2.742 C0.329,2.720 0.323,2.697 0.318,2.675 C0.307,2.669 0.296,2.663 0.285,2.658 C0.280,2.635 0.274,2.613 0.269,2.590 C0.258,2.585 0.247,2.579 0.236,2.573 C0.230,2.551 0.225,2.528 0.219,2.506 C0.214,2.506 0.208,2.506 0.203,2.506 C0.192,2.472 0.181,2.438 0.170,2.404 C0.164,2.404 0.159,2.404 0.153,2.404 C0.148,2.376 0.142,2.348 0.137,2.320 C0.131,2.320 0.126,2.320 0.120,2.320 C0.120,2.309 0.120,2.297 0.120,2.286 C0.115,2.286 0.109,2.286 0.104,2.286 C0.093,2.235 0.082,2.185 0.071,2.134 C0.065,2.134 0.060,2.134 0.054,2.134 C0.054,2.111 0.054,2.089 0.054,2.066 C-0.046,1.759 0.005,1.261 0.104,1.002 C0.109,0.968 0.115,0.934 0.120,0.900 C0.126,0.900 0.131,0.900 0.137,0.900 C0.137,0.889 0.137,0.878 0.137,0.867 C0.142,0.867 0.148,0.867 0.153,0.867 C0.170,0.816 0.186,0.765 0.203,0.714 C0.214,0.709 0.225,0.703 0.236,0.697 C0.241,0.675 0.247,0.653 0.252,0.630 C0.258,0.630 0.263,0.630 0.269,0.630 C0.274,0.613 0.280,0.596 0.285,0.579 C0.296,0.574 0.307,0.568 0.318,0.562 C0.318,0.551 0.318,0.540 0.318,0.529 C0.334,0.517 0.351,0.506 0.367,0.495 C0.367,0.483 0.367,0.472 0.367,0.461 C0.417,0.416 0.466,0.371 0.516,0.326 C0.532,0.303 0.548,0.281 0.565,0.258 C0.576,0.258 0.587,0.258 0.598,0.258 C0.603,0.247 0.609,0.236 0.614,0.224 C0.631,0.219 0.647,0.213 0.664,0.207 C0.664,0.202 0.664,0.196 0.664,0.190 C0.686,0.185 0.708,0.179 0.730,0.174 C0.735,0.162 0.741,0.151 0.746,0.140 C0.773,0.134 0.801,0.129 0.828,0.123 C0.828,0.117 0.828,0.112 0.828,0.106 C0.839,0.106 0.850,0.106 0.861,0.106 C0.861,0.100 0.861,0.095 0.861,0.089 C0.894,0.083 0.927,0.078 0.960,0.072 C0.960,0.067 0.960,0.061 0.960,0.055 C1.031,0.044 1.103,0.033 1.174,0.022 C1.174,0.016 1.174,0.010 1.174,0.005 ZM0.005,4.179 C0.049,4.229 0.093,4.280 0.137,4.331 C0.256,4.453 0.377,4.566 0.516,4.669 C0.538,4.697 0.559,4.725 0.581,4.753 C0.592,4.753 0.603,4.753 0.614,4.753 C0.625,4.770 0.636,4.787 0.647,4.804 C0.658,4.804 0.669,4.804 0.680,4.804 C0.691,4.821 0.702,4.838 0.713,4.855 C0.724,4.855 0.735,4.855 0.746,4.855 C0.757,4.871 0.768,4.888 0.779,4.905 C0.790,4.905 0.801,4.905 0.812,4.905 C0.812,4.911 0.812,4.917 0.812,4.922 C0.828,4.928 0.845,4.934 0.861,4.939 C0.867,4.950 0.872,4.962 0.878,4.973 C0.889,4.973 0.900,4.973 0.911,4.973 C0.922,4.990 0.933,5.007 0.944,5.024 C0.955,5.024 0.966,5.024 0.977,5.024 C0.982,5.035 0.988,5.046 0.993,5.057 C1.004,5.057 1.015,5.057 1.026,5.057 C1.026,5.063 1.026,5.069 1.026,5.074 C1.042,5.080 1.059,5.086 1.075,5.091 C1.081,5.102 1.086,5.114 1.092,5.125 C1.103,5.125 1.114,5.125 1.125,5.125 C1.130,5.136 1.136,5.148 1.141,5.159 C1.152,5.159 1.163,5.159 1.174,5.159 C1.185,5.176 1.196,5.193 1.207,5.210 C1.218,5.210 1.229,5.210 1.240,5.210 C1.246,5.221 1.251,5.232 1.257,5.243 C1.268,5.243 1.279,5.243 1.289,5.243 C1.295,5.255 1.300,5.266 1.306,5.277 C1.317,5.277 1.328,5.277 1.339,5.277 C1.339,5.283 1.339,5.288 1.339,5.294 C1.355,5.300 1.372,5.305 1.388,5.311 C1.394,5.322 1.399,5.334 1.405,5.345 C1.416,5.345 1.427,5.345 1.438,5.345 C1.449,5.362 1.460,5.378 1.471,5.395 C1.482,5.395 1.493,5.395 1.504,5.395 C1.509,5.407 1.514,5.418 1.520,5.429 C1.536,5.435 1.553,5.441 1.569,5.446 C1.569,5.452 1.569,5.457 1.569,5.463 C1.580,5.463 1.591,5.463 1.602,5.463 C1.608,5.474 1.613,5.485 1.619,5.497 C1.630,5.497 1.641,5.497 1.652,5.497 C1.657,5.508 1.663,5.519 1.668,5.531 C1.679,5.531 1.690,5.531 1.701,5.531 C1.707,5.542 1.712,5.553 1.718,5.564 C1.728,5.564 1.739,5.564 1.750,5.564 C1.761,5.581 1.772,5.598 1.783,5.615 C1.794,5.615 1.805,5.615 1.816,5.615 C1.822,5.626 1.827,5.638 1.833,5.649 C1.844,5.649 1.855,5.649 1.866,5.649 C1.866,5.655 1.866,5.660 1.866,5.666 C1.882,5.671 1.899,5.677 1.915,5.683 C1.921,5.694 1.926,5.705 1.932,5.716 C1.943,5.716 1.954,5.716 1.965,5.716 C1.976,5.733 1.987,5.750 1.998,5.767 C2.009,5.767 2.019,5.767 2.030,5.767 C2.036,5.778 2.041,5.790 2.047,5.801 C2.063,5.807 2.080,5.812 2.096,5.818 C2.096,5.824 2.096,5.829 2.096,5.835 C2.107,5.835 2.118,5.835 2.129,5.835 C2.135,5.846 2.140,5.857 2.146,5.869 C2.157,5.869 2.168,5.869 2.179,5.869 C2.184,5.880 2.190,5.891 2.195,5.902 C2.206,5.902 2.217,5.902 2.228,5.902 C2.239,5.919 2.250,5.936 2.261,5.953 C2.272,5.953 2.283,5.953 2.294,5.953 C2.299,5.964 2.305,5.976 2.310,5.987 C2.321,5.987 2.332,5.987 2.343,5.987 C2.343,5.992 2.343,5.998 2.343,6.004 C2.360,6.009 2.376,6.015 2.393,6.021 C2.398,6.032 2.404,6.043 2.409,6.055 C2.420,6.055 2.431,6.055 2.442,6.055 C2.453,6.071 2.464,6.088 2.475,6.105 C2.486,6.105 2.497,6.105 2.508,6.105 C2.513,6.116 2.519,6.128 2.524,6.139 C2.535,6.139 2.546,6.139 2.557,6.139 C2.557,6.145 2.557,6.150 2.557,6.156 C2.574,6.162 2.590,6.167 2.607,6.173 C2.612,6.184 2.618,6.195 2.623,6.206 C2.634,6.206 2.645,6.206 2.656,6.206 C2.667,6.223 2.678,6.240 2.689,6.257 C2.700,6.257 2.711,6.257 2.722,6.257 C2.727,6.269 2.733,6.280 2.738,6.291 C2.749,6.291 2.760,6.291 2.771,6.291 C2.771,6.297 2.771,6.302 2.771,6.308 C2.788,6.314 2.804,6.319 2.821,6.325 C2.826,6.336 2.832,6.347 2.837,6.359 C2.848,6.359 2.859,6.359 2.870,6.359 C2.881,6.376 2.892,6.392 2.903,6.409 C2.914,6.409 2.925,6.409 2.936,6.409 C2.942,6.421 2.947,6.432 2.953,6.443 C2.964,6.443 2.975,6.443 2.986,6.443 C2.986,6.449 2.986,6.454 2.986,6.460 C3.002,6.466 3.018,6.471 3.035,6.477 C3.040,6.488 3.046,6.499 3.051,6.511 C3.062,6.511 3.073,6.511 3.084,6.511 C3.095,6.528 3.106,6.545 3.117,6.562 C3.128,6.562 3.139,6.562 3.150,6.562 C3.150,6.567 3.150,6.573 3.150,6.578 C3.167,6.584 3.183,6.590 3.200,6.595 C3.205,6.606 3.211,6.618 3.216,6.629 C3.227,6.629 3.238,6.629 3.249,6.629 C3.260,6.646 3.271,6.663 3.282,6.680 C3.293,6.680 3.304,6.680 3.315,6.680 C3.320,6.691 3.326,6.702 3.331,6.713 C3.342,6.713 3.353,6.713 3.364,6.713 C3.364,6.719 3.364,6.725 3.364,6.730 C3.381,6.736 3.397,6.742 3.414,6.747 C3.419,6.759 3.425,6.770 3.430,6.781 C3.441,6.781 3.452,6.781 3.463,6.781 C3.474,6.798 3.485,6.815 3.496,6.832 C3.507,6.832 3.518,6.832 3.529,6.832 C3.529,6.837 3.529,6.843 3.529,6.849 C3.545,6.854 3.562,6.860 3.578,6.866 C3.584,6.877 3.589,6.888 3.595,6.899 C3.606,6.899 3.617,6.899 3.628,6.899 C3.639,6.916 3.650,6.933 3.661,6.950 C3.672,6.950 3.683,6.950 3.694,6.950 C3.699,6.961 3.705,6.973 3.710,6.984 C3.721,6.984 3.732,6.984 3.743,6.984 C3.754,7.001 3.765,7.018 3.776,7.035 C3.787,7.035 3.798,7.035 3.809,7.035 C3.814,7.046 3.820,7.057 3.825,7.068 C3.836,7.068 3.847,7.068 3.858,7.068 C3.864,7.080 3.869,7.091 3.875,7.102 C3.886,7.102 3.897,7.102 3.908,7.102 C3.919,7.119 3.930,7.136 3.941,7.153 C3.952,7.153 3.962,7.153 3.973,7.153 C3.984,7.160 3.986,7.175 4.006,7.187 C3.992,7.206 4.008,7.189 3.990,7.204 C3.957,7.243 3.924,7.283 3.891,7.322 C3.880,7.327 3.869,7.333 3.858,7.339 C3.735,7.514 3.576,7.645 3.430,7.795 C3.062,8.178 2.694,8.561 2.327,8.944 C2.146,9.124 1.965,9.305 1.783,9.485 C1.665,9.653 1.513,9.779 1.372,9.924 C1.289,10.015 1.207,10.105 1.125,10.195 C0.955,10.364 0.784,10.533 0.614,10.702 C0.614,10.707 0.614,10.713 0.614,10.719 C0.477,10.854 0.340,10.989 0.203,11.124 C0.139,11.190 0.085,11.279 0.005,11.327 C0.005,8.944 0.005,6.561 0.005,4.179 ZM15.977,4.179 C16.015,4.224 15.994,4.558 15.994,4.652 C15.994,5.102 15.994,5.553 15.994,6.004 C15.994,7.778 15.994,9.553 15.994,11.327 C15.988,11.327 15.983,11.327 15.977,11.327 C15.955,11.288 15.924,11.273 15.895,11.243 C15.829,11.175 15.763,11.107 15.697,11.040 C15.670,11.006 15.642,10.972 15.615,10.938 C15.445,10.769 15.275,10.600 15.105,10.431 C14.408,9.705 13.710,8.978 13.013,8.251 C12.805,8.043 12.596,7.834 12.388,7.626 C12.371,7.604 12.355,7.581 12.338,7.558 C12.272,7.497 12.207,7.434 12.141,7.373 C12.141,7.361 12.141,7.350 12.141,7.339 C12.130,7.333 12.119,7.327 12.108,7.322 C12.069,7.277 12.031,7.232 11.992,7.187 C12.014,7.176 12.015,7.160 12.025,7.153 C12.036,7.153 12.047,7.153 12.058,7.153 C12.064,7.142 12.069,7.130 12.075,7.119 C12.086,7.119 12.097,7.119 12.108,7.119 C12.119,7.102 12.130,7.085 12.141,7.068 C12.152,7.068 12.163,7.068 12.174,7.068 C12.174,7.063 12.174,7.057 12.174,7.052 C12.190,7.046 12.207,7.040 12.223,7.035 C12.228,7.023 12.234,7.012 12.239,7.001 C12.250,7.001 12.261,7.001 12.272,7.001 C12.283,6.984 12.294,6.967 12.305,6.950 C12.316,6.950 12.327,6.950 12.338,6.950 C12.344,6.939 12.349,6.928 12.355,6.916 C12.366,6.916 12.377,6.916 12.388,6.916 C12.393,6.905 12.399,6.894 12.404,6.883 C12.415,6.883 12.426,6.883 12.437,6.883 C12.448,6.866 12.459,6.849 12.470,6.832 C12.481,6.832 12.492,6.832 12.503,6.832 C12.503,6.826 12.503,6.820 12.503,6.815 C12.519,6.809 12.536,6.804 12.552,6.798 C12.558,6.787 12.563,6.776 12.569,6.764 C12.580,6.764 12.591,6.764 12.602,6.764 C12.613,6.747 12.624,6.730 12.635,6.713 C12.646,6.713 12.657,6.713 12.668,6.713 C12.673,6.702 12.679,6.691 12.684,6.680 C12.695,6.680 12.706,6.680 12.717,6.680 C12.717,6.674 12.717,6.669 12.717,6.663 C12.733,6.657 12.750,6.652 12.766,6.646 C12.772,6.635 12.777,6.623 12.783,6.612 C12.794,6.612 12.805,6.612 12.816,6.612 C12.827,6.595 12.838,6.578 12.849,6.562 C12.860,6.562 12.871,6.562 12.882,6.562 C12.887,6.550 12.893,6.539 12.898,6.528 C12.909,6.528 12.920,6.528 12.931,6.528 C12.931,6.522 12.931,6.516 12.931,6.511 C12.947,6.505 12.964,6.499 12.980,6.494 C12.986,6.483 12.991,6.471 12.997,6.460 C13.008,6.460 13.019,6.460 13.030,6.460 C13.041,6.443 13.052,6.426 13.063,6.409 C13.074,6.409 13.085,6.409 13.096,6.409 C13.096,6.404 13.096,6.398 13.096,6.392 C13.112,6.387 13.129,6.381 13.145,6.376 C13.151,6.364 13.156,6.353 13.162,6.342 C13.173,6.342 13.184,6.342 13.195,6.342 C13.206,6.325 13.216,6.308 13.227,6.291 C13.238,6.291 13.249,6.291 13.260,6.291 C13.266,6.280 13.271,6.269 13.277,6.257 C13.288,6.257 13.299,6.257 13.310,6.257 C13.310,6.252 13.310,6.246 13.310,6.240 C13.326,6.235 13.343,6.229 13.359,6.223 C13.365,6.212 13.370,6.201 13.376,6.190 C13.387,6.190 13.398,6.190 13.409,6.190 C13.420,6.173 13.431,6.156 13.442,6.139 C13.453,6.139 13.463,6.139 13.474,6.139 C13.480,6.128 13.485,6.116 13.491,6.105 C13.507,6.099 13.524,6.094 13.540,6.088 C13.540,6.083 13.540,6.077 13.540,6.071 C13.551,6.071 13.562,6.071 13.573,6.071 C13.579,6.060 13.584,6.049 13.590,6.038 C13.601,6.038 13.612,6.038 13.623,6.038 C13.628,6.026 13.634,6.015 13.639,6.004 C13.650,6.004 13.661,6.004 13.672,6.004 C13.683,5.987 13.694,5.970 13.705,5.953 C13.716,5.953 13.727,5.953 13.738,5.953 C13.743,5.942 13.749,5.931 13.754,5.919 C13.771,5.914 13.787,5.908 13.804,5.902 C13.804,5.897 13.804,5.891 13.804,5.885 C13.815,5.885 13.826,5.885 13.837,5.885 C13.842,5.874 13.848,5.863 13.853,5.852 C13.864,5.852 13.875,5.852 13.886,5.852 C13.892,5.840 13.897,5.829 13.903,5.818 C13.914,5.818 13.924,5.818 13.935,5.818 C13.946,5.801 13.957,5.784 13.968,5.767 C13.979,5.767 13.990,5.767 14.001,5.767 C14.007,5.756 14.012,5.745 14.018,5.733 C14.029,5.733 14.040,5.733 14.051,5.733 C14.051,5.728 14.051,5.722 14.051,5.716 C14.067,5.711 14.084,5.705 14.100,5.700 C14.106,5.688 14.111,5.677 14.117,5.666 C14.128,5.666 14.139,5.666 14.150,5.666 C14.161,5.649 14.172,5.632 14.183,5.615 C14.194,5.615 14.204,5.615 14.215,5.615 C14.221,5.604 14.226,5.592 14.232,5.581 C14.248,5.576 14.265,5.570 14.281,5.564 C14.281,5.559 14.281,5.553 14.281,5.548 C14.292,5.548 14.303,5.548 14.314,5.548 C14.320,5.536 14.325,5.525 14.331,5.514 C14.342,5.514 14.353,5.514 14.364,5.514 C14.369,5.502 14.375,5.491 14.380,5.480 C14.391,5.480 14.402,5.480 14.413,5.480 C14.419,5.469 14.424,5.457 14.429,5.446 C14.440,5.446 14.451,5.446 14.462,5.446 C14.473,5.429 14.484,5.412 14.495,5.395 C14.506,5.395 14.517,5.395 14.528,5.395 C14.534,5.384 14.539,5.373 14.545,5.362 C14.561,5.356 14.578,5.350 14.594,5.345 C14.594,5.339 14.594,5.334 14.594,5.328 C14.605,5.328 14.616,5.328 14.627,5.328 C14.633,5.317 14.638,5.305 14.643,5.294 C14.654,5.294 14.665,5.294 14.676,5.294 C14.682,5.283 14.687,5.271 14.693,5.260 C14.704,5.260 14.715,5.260 14.726,5.260 C14.731,5.249 14.737,5.238 14.742,5.226 C14.753,5.226 14.764,5.226 14.775,5.226 C14.786,5.210 14.797,5.193 14.808,5.176 C14.819,5.176 14.830,5.176 14.841,5.176 C14.847,5.164 14.852,5.153 14.858,5.142 C14.869,5.142 14.880,5.142 14.891,5.142 C14.891,5.136 14.891,5.131 14.891,5.125 C14.907,5.119 14.923,5.114 14.940,5.108 C14.945,5.097 14.951,5.086 14.956,5.074 C14.967,5.074 14.978,5.074 14.989,5.074 C14.989,5.069 14.989,5.063 14.989,5.057 C15.006,5.052 15.022,5.046 15.039,5.041 C15.044,5.029 15.050,5.018 15.055,5.007 C15.066,5.007 15.077,5.007 15.088,5.007 C15.099,4.990 15.110,4.973 15.121,4.956 C15.132,4.956 15.143,4.956 15.154,4.956 C15.160,4.945 15.165,4.934 15.170,4.922 C15.181,4.922 15.192,4.922 15.203,4.922 C15.214,4.905 15.225,4.888 15.236,4.871 C15.247,4.871 15.258,4.871 15.269,4.871 C15.275,4.860 15.280,4.849 15.286,4.838 C15.302,4.832 15.319,4.827 15.335,4.821 C15.352,4.798 15.368,4.776 15.384,4.753 C15.395,4.753 15.406,4.753 15.417,4.753 C15.434,4.731 15.450,4.708 15.467,4.686 C15.478,4.686 15.489,4.686 15.500,4.686 C15.522,4.657 15.544,4.629 15.566,4.601 C15.571,4.601 15.577,4.601 15.582,4.601 C15.588,4.590 15.593,4.579 15.599,4.567 C15.610,4.567 15.621,4.567 15.631,4.567 C15.670,4.522 15.708,4.477 15.747,4.432 C15.806,4.372 15.956,4.262 15.977,4.179 ZM5.011,7.947 C5.027,7.947 5.044,7.947 5.060,7.947 C5.090,7.992 5.131,8.001 5.175,8.032 C5.181,8.043 5.186,8.054 5.192,8.065 C5.203,8.065 5.214,8.065 5.225,8.065 C5.236,8.082 5.247,8.099 5.258,8.116 C5.269,8.116 5.280,8.116 5.291,8.116 C5.302,8.133 5.313,8.150 5.324,8.167 C5.335,8.167 5.346,8.167 5.357,8.167 C5.368,8.184 5.379,8.201 5.390,8.217 C5.401,8.217 5.412,8.217 5.422,8.217 C5.433,8.234 5.444,8.251 5.455,8.268 C5.466,8.268 5.477,8.268 5.488,8.268 C5.494,8.280 5.499,8.291 5.505,8.302 C5.516,8.302 5.527,8.302 5.538,8.302 C5.549,8.319 5.560,8.336 5.571,8.353 C5.582,8.353 5.593,8.353 5.604,8.353 C5.615,8.370 5.626,8.387 5.637,8.403 C5.648,8.403 5.659,8.403 5.669,8.403 C5.675,8.415 5.680,8.426 5.686,8.437 C5.697,8.437 5.708,8.437 5.719,8.437 C5.724,8.448 5.730,8.460 5.735,8.471 C5.752,8.477 5.768,8.482 5.785,8.488 C5.796,8.505 5.807,8.522 5.818,8.539 C5.829,8.539 5.840,8.539 5.851,8.539 C5.851,8.544 5.851,8.550 5.851,8.555 C5.867,8.561 5.883,8.567 5.900,8.572 C5.905,8.584 5.911,8.595 5.916,8.606 C5.927,8.606 5.938,8.606 5.949,8.606 C5.960,8.623 5.971,8.640 5.982,8.657 C5.993,8.657 6.004,8.657 6.015,8.657 C6.021,8.668 6.026,8.679 6.032,8.691 C6.048,8.696 6.065,8.702 6.081,8.708 C6.081,8.713 6.081,8.719 6.081,8.724 C6.092,8.724 6.103,8.724 6.114,8.724 C6.120,8.736 6.125,8.747 6.130,8.758 C6.141,8.758 6.152,8.758 6.163,8.758 C6.169,8.770 6.174,8.781 6.180,8.792 C6.191,8.792 6.202,8.792 6.213,8.792 C6.218,8.803 6.224,8.815 6.229,8.826 C6.240,8.826 6.251,8.826 6.262,8.826 C6.268,8.837 6.273,8.848 6.279,8.860 C6.312,8.871 6.345,8.882 6.378,8.894 C6.383,8.905 6.389,8.916 6.394,8.927 C6.405,8.927 6.416,8.927 6.427,8.927 C6.427,8.933 6.427,8.938 6.427,8.944 C6.438,8.944 6.449,8.944 6.460,8.944 C6.460,8.950 6.460,8.955 6.460,8.961 C6.471,8.961 6.482,8.961 6.493,8.961 C6.493,8.967 6.493,8.972 6.493,8.978 C6.504,8.978 6.515,8.978 6.526,8.978 C6.526,8.984 6.526,8.989 6.526,8.995 C6.537,8.995 6.548,8.995 6.559,8.995 C6.559,9.001 6.559,9.006 6.559,9.012 C6.570,9.012 6.581,9.012 6.592,9.012 C6.592,9.017 6.592,9.023 6.592,9.029 C6.603,9.029 6.614,9.029 6.625,9.029 C6.625,9.034 6.625,9.040 6.625,9.045 C6.635,9.045 6.646,9.045 6.657,9.045 C6.657,9.051 6.657,9.057 6.657,9.062 C6.668,9.062 6.679,9.062 6.690,9.062 C6.690,9.068 6.690,9.074 6.690,9.079 C6.723,9.091 6.756,9.102 6.789,9.113 C6.789,9.119 6.789,9.124 6.789,9.130 C6.817,9.136 6.844,9.141 6.871,9.147 C6.871,9.153 6.871,9.158 6.871,9.164 C6.893,9.169 6.915,9.175 6.937,9.181 C6.937,9.186 6.937,9.192 6.937,9.198 C6.954,9.198 6.970,9.198 6.987,9.198 C6.987,9.203 6.987,9.209 6.987,9.215 C6.998,9.215 7.009,9.215 7.020,9.215 C7.020,9.220 7.020,9.226 7.020,9.231 C7.047,9.237 7.075,9.243 7.102,9.248 C7.102,9.254 7.102,9.260 7.102,9.265 C7.135,9.271 7.168,9.277 7.201,9.282 C7.201,9.288 7.201,9.293 7.201,9.299 C7.212,9.299 7.223,9.299 7.234,9.299 C7.234,9.305 7.234,9.310 7.234,9.316 C7.311,9.333 7.387,9.350 7.464,9.367 C7.670,9.437 8.045,9.491 8.288,9.417 C8.321,9.417 8.353,9.417 8.386,9.417 C8.386,9.412 8.386,9.406 8.386,9.401 C8.414,9.401 8.441,9.401 8.469,9.401 C8.469,9.395 8.469,9.389 8.469,9.384 C8.491,9.384 8.513,9.384 8.535,9.384 C8.535,9.378 8.535,9.372 8.535,9.367 C8.556,9.367 8.578,9.367 8.600,9.367 C8.600,9.361 8.600,9.355 8.600,9.350 C8.617,9.350 8.633,9.350 8.650,9.350 C8.650,9.344 8.650,9.338 8.650,9.333 C8.688,9.327 8.727,9.322 8.765,9.316 C8.765,9.310 8.765,9.305 8.765,9.299 C8.776,9.299 8.787,9.299 8.798,9.299 C8.798,9.293 8.798,9.288 8.798,9.282 C8.831,9.277 8.864,9.271 8.897,9.265 C8.897,9.260 8.897,9.254 8.897,9.248 C8.924,9.243 8.952,9.237 8.979,9.231 C8.979,9.226 8.979,9.220 8.979,9.215 C8.990,9.215 9.001,9.215 9.012,9.215 C9.012,9.209 9.012,9.203 9.012,9.198 C9.029,9.198 9.045,9.198 9.062,9.198 C9.062,9.192 9.062,9.186 9.062,9.181 C9.083,9.175 9.105,9.169 9.127,9.164 C9.127,9.158 9.127,9.153 9.127,9.147 C9.138,9.147 9.149,9.147 9.160,9.147 C9.160,9.141 9.160,9.136 9.160,9.130 C9.177,9.130 9.193,9.130 9.210,9.130 C9.210,9.124 9.210,9.119 9.210,9.113 C9.243,9.102 9.276,9.091 9.308,9.079 C9.308,9.074 9.308,9.068 9.308,9.062 C9.319,9.062 9.330,9.062 9.341,9.062 C9.341,9.057 9.341,9.051 9.341,9.045 C9.352,9.045 9.363,9.045 9.374,9.045 C9.374,9.040 9.374,9.034 9.374,9.029 C9.385,9.029 9.396,9.029 9.407,9.029 C9.407,9.023 9.407,9.017 9.407,9.012 C9.418,9.012 9.429,9.012 9.440,9.012 C9.440,9.006 9.440,9.001 9.440,8.995 C9.451,8.995 9.462,8.995 9.473,8.995 C9.473,8.989 9.473,8.984 9.473,8.978 C9.484,8.978 9.495,8.978 9.506,8.978 C9.506,8.972 9.506,8.967 9.506,8.961 C9.517,8.961 9.528,8.961 9.539,8.961 C9.539,8.955 9.539,8.950 9.539,8.944 C9.550,8.944 9.561,8.944 9.572,8.944 C9.572,8.938 9.572,8.933 9.572,8.927 C9.583,8.927 9.594,8.927 9.605,8.927 C9.610,8.916 9.616,8.905 9.621,8.894 C9.654,8.882 9.687,8.871 9.720,8.860 C9.726,8.848 9.731,8.837 9.737,8.826 C9.748,8.826 9.759,8.826 9.770,8.826 C9.775,8.815 9.781,8.803 9.786,8.792 C9.797,8.792 9.808,8.792 9.819,8.792 C9.824,8.781 9.830,8.770 9.835,8.758 C9.846,8.758 9.857,8.758 9.868,8.758 C9.868,8.753 9.868,8.747 9.868,8.741 C9.885,8.736 9.901,8.730 9.918,8.724 C9.923,8.713 9.929,8.702 9.934,8.691 C9.945,8.691 9.956,8.691 9.967,8.691 C9.973,8.679 9.978,8.668 9.984,8.657 C9.995,8.657 10.006,8.657 10.017,8.657 C10.028,8.640 10.039,8.623 10.049,8.606 C10.060,8.606 10.071,8.606 10.082,8.606 C10.082,8.601 10.082,8.595 10.082,8.589 C10.099,8.584 10.115,8.578 10.132,8.572 C10.137,8.561 10.143,8.550 10.148,8.539 C10.159,8.539 10.170,8.539 10.181,8.539 C10.192,8.522 10.203,8.505 10.214,8.488 C10.225,8.488 10.236,8.488 10.247,8.488 C10.258,8.471 10.269,8.454 10.280,8.437 C10.291,8.437 10.302,8.437 10.313,8.437 C10.318,8.426 10.324,8.415 10.329,8.403 C10.340,8.403 10.351,8.403 10.362,8.403 C10.373,8.387 10.384,8.370 10.395,8.353 C10.406,8.353 10.417,8.353 10.428,8.353 C10.439,8.336 10.450,8.319 10.461,8.302 C10.472,8.302 10.483,8.302 10.494,8.302 C10.500,8.291 10.505,8.280 10.511,8.268 C10.521,8.268 10.532,8.268 10.543,8.268 C10.554,8.251 10.565,8.234 10.576,8.217 C10.587,8.217 10.598,8.217 10.609,8.217 C10.620,8.201 10.631,8.184 10.642,8.167 C10.653,8.167 10.664,8.167 10.675,8.167 C10.686,8.150 10.697,8.133 10.708,8.116 C10.719,8.116 10.730,8.116 10.741,8.116 C10.747,8.105 10.752,8.094 10.758,8.082 C10.769,8.082 10.780,8.082 10.790,8.082 C10.801,8.065 10.812,8.048 10.823,8.032 C10.834,8.032 10.845,8.032 10.856,8.032 C10.862,8.020 10.867,8.009 10.873,7.998 C10.884,7.998 10.895,7.998 10.906,7.998 C10.906,7.992 10.906,7.987 10.906,7.981 C10.935,7.957 10.938,7.954 10.988,7.947 C11.014,7.992 11.053,8.013 11.087,8.048 C11.158,8.122 11.229,8.195 11.301,8.268 C11.328,8.302 11.356,8.336 11.383,8.370 C11.581,8.567 11.778,8.764 11.976,8.961 C12.146,9.141 12.316,9.322 12.487,9.502 C12.617,9.636 12.755,9.751 12.865,9.907 C13.282,10.330 13.699,10.752 14.117,11.175 C14.254,11.321 14.391,11.468 14.528,11.614 C14.648,11.738 14.773,11.842 14.874,11.986 C14.945,12.054 15.017,12.121 15.088,12.189 C15.187,12.290 15.286,12.392 15.384,12.493 C15.429,12.538 15.460,12.595 15.516,12.628 C15.516,12.634 15.516,12.639 15.516,12.645 C15.511,12.645 15.505,12.645 15.500,12.645 C15.489,12.662 15.478,12.679 15.467,12.696 C15.456,12.696 15.445,12.696 15.434,12.696 C15.423,12.713 15.412,12.729 15.401,12.746 C15.390,12.746 15.379,12.746 15.368,12.746 C15.363,12.758 15.357,12.769 15.352,12.780 C15.341,12.780 15.330,12.780 15.319,12.780 C15.313,12.791 15.308,12.803 15.302,12.814 C15.291,12.814 15.280,12.814 15.269,12.814 C15.269,12.820 15.269,12.825 15.269,12.831 C15.258,12.831 15.247,12.831 15.236,12.831 C15.236,12.837 15.236,12.842 15.236,12.848 C15.225,12.848 15.214,12.848 15.203,12.848 C15.203,12.853 15.203,12.859 15.203,12.865 C15.192,12.865 15.181,12.865 15.170,12.865 C15.170,12.870 15.170,12.876 15.170,12.882 C15.149,12.887 15.127,12.893 15.105,12.898 C15.105,12.904 15.105,12.910 15.105,12.915 C15.088,12.915 15.072,12.915 15.055,12.915 C15.055,12.921 15.055,12.927 15.055,12.932 C15.039,12.932 15.022,12.932 15.006,12.932 C15.006,12.938 15.006,12.944 15.006,12.949 C14.989,12.949 14.973,12.949 14.956,12.949 C14.956,12.955 14.956,12.961 14.956,12.966 C14.934,12.966 14.912,12.966 14.891,12.966 C14.891,12.972 14.891,12.977 14.891,12.983 C14.858,12.983 14.825,12.983 14.792,12.983 C14.792,12.989 14.792,12.994 14.792,13.000 C14.578,13.000 14.364,13.000 14.150,13.000 C13.612,13.000 13.074,13.000 12.536,13.000 C9.611,13.000 6.685,13.000 3.759,13.000 C3.079,13.000 2.398,13.000 1.718,13.000 C1.547,13.000 1.377,13.000 1.207,13.000 C1.207,12.994 1.207,12.989 1.207,12.983 C1.174,12.983 1.141,12.983 1.108,12.983 C1.108,12.977 1.108,12.972 1.108,12.966 C1.086,12.966 1.064,12.966 1.042,12.966 C1.042,12.961 1.042,12.955 1.042,12.949 C1.026,12.949 1.010,12.949 0.993,12.949 C0.993,12.944 0.993,12.938 0.993,12.932 C0.977,12.932 0.960,12.932 0.944,12.932 C0.944,12.927 0.944,12.921 0.944,12.915 C0.927,12.915 0.911,12.915 0.894,12.915 C0.894,12.910 0.894,12.904 0.894,12.898 C0.861,12.887 0.828,12.876 0.795,12.865 C0.795,12.859 0.795,12.853 0.795,12.848 C0.762,12.837 0.730,12.825 0.697,12.814 C0.691,12.803 0.686,12.791 0.680,12.780 C0.669,12.780 0.658,12.780 0.647,12.780 C0.642,12.769 0.636,12.758 0.631,12.746 C0.572,12.706 0.519,12.693 0.483,12.628 C0.562,12.580 0.616,12.491 0.680,12.425 C0.800,12.302 0.925,12.198 1.026,12.054 C1.119,11.964 1.213,11.873 1.306,11.783 C1.498,11.580 1.690,11.377 1.882,11.175 C2.283,10.769 2.684,10.364 3.084,9.958 C3.199,9.796 3.344,9.675 3.479,9.536 C3.661,9.344 3.842,9.153 4.023,8.961 C4.220,8.764 4.418,8.567 4.616,8.370 C4.643,8.336 4.671,8.302 4.698,8.268 C4.769,8.195 4.841,8.122 4.912,8.048 C4.946,8.013 4.985,7.992 5.011,7.947 Z"/>
</svg>
