<svg
        xmlns="http://www.w3.org/2000/svg"
        width="19px" height="19px">
    <path fill-rule="evenodd"  fill="rgb(239, 18, 49)"
          d="M9.474,14.823 C9.474,14.810 9.474,14.796 9.474,14.783 C9.388,14.730 9.353,14.644 9.295,14.563 C9.268,14.543 9.241,14.523 9.215,14.503 C9.215,14.490 9.215,14.476 9.215,14.463 C9.188,14.443 9.161,14.423 9.135,14.403 C9.135,14.390 9.135,14.377 9.135,14.363 C9.108,14.343 9.082,14.323 9.055,14.303 C9.055,14.290 9.055,14.277 9.055,14.263 C9.028,14.243 9.002,14.223 8.975,14.204 C8.975,14.190 8.975,14.177 8.975,14.164 C8.962,14.157 8.948,14.150 8.935,14.144 C8.929,14.124 8.922,14.104 8.915,14.084 C8.889,14.064 8.862,14.044 8.835,14.024 C8.835,14.010 8.835,13.997 8.835,13.984 C8.815,13.970 8.795,13.957 8.775,13.944 C8.775,13.931 8.775,13.917 8.775,13.904 C8.749,13.884 8.722,13.864 8.696,13.844 C8.696,13.831 8.696,13.817 8.696,13.804 C8.676,13.791 8.656,13.777 8.636,13.764 C8.636,13.751 8.636,13.737 8.636,13.724 C8.616,13.711 8.596,13.698 8.576,13.684 C8.576,13.671 8.576,13.657 8.576,13.644 C8.556,13.631 8.536,13.617 8.516,13.604 C8.516,13.591 8.516,13.578 8.516,13.564 C8.496,13.551 8.476,13.538 8.456,13.524 C8.456,13.511 8.456,13.498 8.456,13.484 C8.436,13.471 8.416,13.458 8.396,13.444 C8.389,13.424 8.383,13.404 8.376,13.384 C8.363,13.378 8.349,13.371 8.336,13.364 C8.336,13.351 8.336,13.338 8.336,13.325 C8.323,13.318 8.309,13.311 8.296,13.305 C8.296,13.291 8.296,13.278 8.296,13.265 C8.283,13.258 8.269,13.251 8.256,13.245 C8.250,13.225 8.243,13.205 8.236,13.185 C8.216,13.171 8.196,13.158 8.176,13.145 C8.176,13.131 8.176,13.118 8.176,13.105 C8.163,13.098 8.150,13.092 8.136,13.085 C8.136,13.072 8.136,13.058 8.136,13.045 C8.116,13.032 8.096,13.018 8.076,13.005 C8.076,12.992 8.076,12.978 8.076,12.965 C8.063,12.958 8.050,12.952 8.036,12.945 C8.036,12.932 8.036,12.918 8.036,12.905 C8.017,12.892 7.997,12.878 7.977,12.865 C7.977,12.852 7.977,12.839 7.977,12.825 C7.963,12.819 7.950,12.812 7.937,12.805 C7.937,12.792 7.937,12.778 7.937,12.765 C7.917,12.752 7.897,12.739 7.877,12.725 C7.877,12.712 7.877,12.699 7.877,12.685 C7.870,12.685 7.863,12.685 7.857,12.685 C7.850,12.665 7.844,12.645 7.837,12.625 C7.824,12.619 7.810,12.612 7.797,12.605 C7.797,12.592 7.797,12.579 7.797,12.565 C7.777,12.552 7.757,12.539 7.737,12.525 C7.737,12.512 7.737,12.499 7.737,12.486 C7.724,12.479 7.710,12.472 7.697,12.466 C7.690,12.446 7.684,12.426 7.677,12.406 C7.670,12.406 7.664,12.406 7.657,12.406 C7.657,12.392 7.657,12.379 7.657,12.366 C7.644,12.359 7.630,12.352 7.617,12.346 C7.617,12.332 7.617,12.319 7.617,12.306 C7.604,12.299 7.591,12.292 7.577,12.286 C7.577,12.272 7.577,12.259 7.577,12.246 C7.557,12.233 7.537,12.219 7.517,12.206 C7.517,12.193 7.517,12.179 7.517,12.166 C7.504,12.159 7.491,12.153 7.477,12.146 C7.471,12.126 7.464,12.106 7.457,12.086 C7.451,12.086 7.444,12.086 7.437,12.086 C7.437,12.073 7.437,12.059 7.437,12.046 C7.424,12.039 7.411,12.033 7.397,12.026 C7.397,12.013 7.397,12.000 7.397,11.986 C7.384,11.980 7.371,11.973 7.358,11.966 C7.358,11.953 7.358,11.939 7.358,11.926 C7.344,11.919 7.331,11.913 7.318,11.906 C7.318,11.893 7.318,11.879 7.318,11.866 C7.304,11.860 7.291,11.853 7.278,11.846 C7.278,11.833 7.278,11.820 7.278,11.806 C7.264,11.800 7.251,11.793 7.238,11.786 C7.231,11.760 7.224,11.733 7.218,11.706 C7.205,11.700 7.191,11.693 7.178,11.686 C7.178,11.673 7.178,11.660 7.178,11.646 C7.171,11.646 7.165,11.646 7.158,11.646 C7.151,11.627 7.145,11.607 7.138,11.587 C7.125,11.580 7.111,11.573 7.098,11.567 C7.098,11.553 7.098,11.540 7.098,11.527 C7.085,11.520 7.071,11.513 7.058,11.507 C7.051,11.487 7.045,11.467 7.038,11.447 C7.031,11.447 7.025,11.447 7.018,11.447 C7.011,11.420 7.005,11.393 6.998,11.367 C6.991,11.367 6.985,11.367 6.978,11.367 C6.972,11.347 6.965,11.327 6.958,11.307 C6.945,11.300 6.932,11.294 6.918,11.287 C6.912,11.260 6.905,11.234 6.898,11.207 C6.892,11.207 6.885,11.207 6.878,11.207 C6.872,11.187 6.865,11.167 6.858,11.147 C6.845,11.140 6.832,11.134 6.818,11.127 C6.818,11.114 6.818,11.100 6.818,11.087 C6.812,11.087 6.805,11.087 6.798,11.087 C6.798,11.074 6.798,11.060 6.798,11.047 C6.785,11.040 6.772,11.034 6.758,11.027 C6.752,11.001 6.745,10.974 6.739,10.947 C6.732,10.947 6.725,10.947 6.718,10.947 C6.712,10.927 6.705,10.907 6.699,10.887 C6.685,10.881 6.672,10.874 6.659,10.867 C6.652,10.841 6.645,10.814 6.639,10.787 C6.625,10.781 6.612,10.774 6.599,10.768 C6.592,10.741 6.585,10.714 6.579,10.688 C6.565,10.681 6.552,10.674 6.539,10.668 C6.526,10.628 6.512,10.588 6.499,10.548 C6.486,10.541 6.472,10.534 6.459,10.528 C6.459,10.515 6.459,10.501 6.459,10.488 C6.452,10.488 6.446,10.488 6.439,10.488 C6.439,10.475 6.439,10.461 6.439,10.448 C6.426,10.441 6.412,10.435 6.399,10.428 C6.386,10.388 6.372,10.348 6.359,10.308 C6.346,10.301 6.332,10.295 6.319,10.288 C6.306,10.248 6.293,10.208 6.279,10.168 C6.266,10.161 6.253,10.155 6.239,10.148 C6.239,10.135 6.239,10.122 6.239,10.108 C6.233,10.108 6.226,10.108 6.219,10.108 C6.219,10.095 6.219,10.082 6.219,10.068 C6.213,10.068 6.206,10.068 6.199,10.068 C6.199,10.055 6.199,10.042 6.199,10.028 C6.193,10.028 6.186,10.028 6.179,10.028 C6.179,10.015 6.179,10.002 6.179,9.988 C6.166,9.982 6.153,9.975 6.139,9.968 C6.139,9.955 6.139,9.942 6.139,9.928 C6.133,9.928 6.126,9.928 6.119,9.928 C6.119,9.915 6.119,9.902 6.119,9.889 C6.113,9.889 6.106,9.889 6.099,9.889 C6.099,9.875 6.099,9.862 6.099,9.849 C6.093,9.849 6.086,9.849 6.079,9.849 C6.079,9.835 6.079,9.822 6.079,9.809 C6.073,9.809 6.066,9.809 6.060,9.809 C6.060,9.795 6.060,9.782 6.060,9.769 C6.046,9.762 6.033,9.755 6.020,9.749 C6.013,9.722 6.006,9.695 6.000,9.669 C5.993,9.669 5.986,9.669 5.980,9.669 C5.980,9.656 5.980,9.642 5.980,9.629 C5.973,9.629 5.966,9.629 5.960,9.629 C5.960,9.616 5.960,9.602 5.960,9.589 C5.953,9.589 5.946,9.589 5.940,9.589 C5.940,9.576 5.940,9.562 5.940,9.549 C5.933,9.549 5.926,9.549 5.920,9.549 C5.920,9.536 5.920,9.522 5.920,9.509 C5.913,9.509 5.906,9.509 5.900,9.509 C5.900,9.496 5.900,9.482 5.900,9.469 C5.893,9.469 5.886,9.469 5.880,9.469 C5.873,9.442 5.866,9.416 5.860,9.389 C5.853,9.389 5.847,9.389 5.840,9.389 C5.827,9.349 5.813,9.309 5.800,9.269 C5.787,9.263 5.773,9.256 5.760,9.249 C5.740,9.189 5.720,9.129 5.700,9.069 C5.693,9.069 5.687,9.069 5.680,9.069 C5.673,9.043 5.667,9.016 5.660,8.990 C5.653,8.990 5.647,8.990 5.640,8.990 C5.640,8.976 5.640,8.963 5.640,8.950 C5.633,8.950 5.627,8.950 5.620,8.950 C5.620,8.936 5.620,8.923 5.620,8.910 C5.614,8.910 5.607,8.910 5.600,8.910 C5.600,8.896 5.600,8.883 5.600,8.870 C5.594,8.870 5.587,8.870 5.580,8.870 C5.580,8.856 5.580,8.843 5.580,8.830 C5.574,8.830 5.567,8.830 5.560,8.830 C5.554,8.803 5.547,8.777 5.540,8.750 C5.534,8.750 5.527,8.750 5.520,8.750 C5.520,8.737 5.520,8.723 5.520,8.710 C5.514,8.710 5.507,8.710 5.500,8.710 C5.500,8.690 5.500,8.670 5.500,8.650 C5.494,8.650 5.487,8.650 5.480,8.650 C5.480,8.637 5.480,8.623 5.480,8.610 C5.474,8.610 5.467,8.610 5.460,8.610 C5.454,8.583 5.447,8.557 5.441,8.530 C5.434,8.530 5.427,8.530 5.420,8.530 C5.420,8.510 5.420,8.490 5.420,8.470 C5.414,8.470 5.407,8.470 5.401,8.470 C5.401,8.457 5.401,8.443 5.401,8.430 C5.394,8.430 5.387,8.430 5.381,8.430 C5.374,8.404 5.367,8.377 5.361,8.350 C5.354,8.350 5.347,8.350 5.341,8.350 C5.341,8.330 5.341,8.310 5.341,8.290 C5.334,8.290 5.327,8.290 5.321,8.290 C5.314,8.264 5.307,8.237 5.301,8.210 C5.294,8.210 5.287,8.210 5.281,8.210 C5.281,8.190 5.281,8.171 5.281,8.151 C5.274,8.151 5.267,8.151 5.261,8.151 C5.261,8.137 5.261,8.124 5.261,8.111 C5.254,8.111 5.247,8.111 5.241,8.111 C5.234,8.077 5.227,8.044 5.221,8.011 C5.214,8.011 5.208,8.011 5.201,8.011 C5.201,7.991 5.201,7.971 5.201,7.951 C5.194,7.951 5.187,7.951 5.181,7.951 C5.181,7.938 5.181,7.924 5.181,7.911 C5.174,7.911 5.168,7.911 5.161,7.911 C5.161,7.891 5.161,7.871 5.161,7.851 C5.154,7.851 5.148,7.851 5.141,7.851 C5.141,7.837 5.141,7.824 5.141,7.811 C5.134,7.811 5.128,7.811 5.121,7.811 C5.121,7.791 5.121,7.771 5.121,7.751 C5.114,7.751 5.108,7.751 5.101,7.751 C5.101,7.738 5.101,7.724 5.101,7.711 C5.094,7.711 5.088,7.711 5.081,7.711 C5.068,7.651 5.054,7.591 5.041,7.531 C5.034,7.531 5.028,7.531 5.021,7.531 C5.021,7.518 5.021,7.505 5.021,7.491 C5.014,7.491 5.008,7.491 5.001,7.491 C4.988,7.431 4.975,7.371 4.961,7.312 C4.954,7.312 4.948,7.312 4.941,7.312 C4.941,7.292 4.941,7.272 4.941,7.252 C4.935,7.252 4.928,7.252 4.921,7.252 C4.921,7.232 4.921,7.212 4.921,7.192 C4.915,7.192 4.908,7.192 4.901,7.192 C4.901,7.172 4.901,7.152 4.901,7.132 C4.895,7.132 4.888,7.132 4.881,7.132 C4.881,7.112 4.881,7.092 4.881,7.072 C4.875,7.072 4.868,7.072 4.861,7.072 C4.848,7.005 4.835,6.939 4.821,6.872 C4.815,6.872 4.808,6.872 4.801,6.872 C4.788,6.799 4.775,6.725 4.762,6.652 C4.755,6.652 4.748,6.652 4.742,6.652 C4.722,6.539 4.702,6.426 4.682,6.313 C4.675,6.313 4.668,6.313 4.662,6.313 C4.662,6.279 4.662,6.246 4.662,6.213 C4.634,6.122 4.609,5.987 4.582,5.893 C4.582,5.846 4.582,5.800 4.582,5.753 C4.575,5.753 4.568,5.753 4.562,5.753 C4.555,5.627 4.548,5.500 4.542,5.374 C4.499,5.220 4.499,4.768 4.542,4.615 C4.548,4.495 4.555,4.375 4.562,4.255 C4.568,4.255 4.575,4.255 4.582,4.255 C4.582,4.215 4.582,4.175 4.582,4.135 C4.588,4.135 4.595,4.135 4.602,4.135 C4.602,4.095 4.602,4.055 4.602,4.015 C4.608,4.015 4.615,4.015 4.622,4.015 C4.622,3.989 4.622,3.962 4.622,3.935 C4.628,3.935 4.635,3.935 4.642,3.935 C4.642,3.902 4.642,3.869 4.642,3.836 C4.648,3.836 4.655,3.836 4.662,3.836 C4.662,3.809 4.662,3.782 4.662,3.755 C4.668,3.755 4.675,3.755 4.682,3.755 C4.682,3.729 4.682,3.702 4.682,3.676 C4.688,3.676 4.695,3.676 4.702,3.676 C4.702,3.656 4.702,3.636 4.702,3.616 C4.708,3.616 4.715,3.616 4.722,3.616 C4.728,3.569 4.735,3.522 4.742,3.476 C4.748,3.476 4.755,3.476 4.762,3.476 C4.762,3.456 4.762,3.436 4.762,3.416 C4.768,3.416 4.775,3.416 4.781,3.416 C4.781,3.396 4.781,3.376 4.781,3.356 C4.788,3.356 4.795,3.356 4.801,3.356 C4.801,3.336 4.801,3.316 4.801,3.296 C4.808,3.296 4.815,3.296 4.821,3.296 C4.821,3.276 4.821,3.256 4.821,3.236 C4.828,3.236 4.835,3.236 4.841,3.236 C4.841,3.223 4.841,3.210 4.841,3.196 C4.848,3.196 4.855,3.196 4.861,3.196 C4.861,3.176 4.861,3.156 4.861,3.136 C4.868,3.136 4.875,3.136 4.881,3.136 C4.881,3.123 4.881,3.110 4.881,3.096 C4.888,3.096 4.895,3.096 4.901,3.096 C4.901,3.076 4.901,3.056 4.901,3.036 C4.908,3.036 4.915,3.036 4.921,3.036 C4.921,3.023 4.921,3.010 4.921,2.997 C4.928,2.997 4.935,2.997 4.941,2.997 C4.948,2.963 4.954,2.930 4.961,2.896 C4.968,2.896 4.975,2.896 4.981,2.896 C4.994,2.857 5.008,2.817 5.021,2.777 C5.028,2.777 5.034,2.777 5.041,2.777 C5.041,2.763 5.041,2.750 5.041,2.737 C5.048,2.737 5.054,2.737 5.061,2.737 C5.061,2.723 5.061,2.710 5.061,2.697 C5.068,2.697 5.074,2.697 5.081,2.697 C5.081,2.683 5.081,2.670 5.081,2.657 C5.088,2.657 5.094,2.657 5.101,2.657 C5.101,2.644 5.101,2.630 5.101,2.617 C5.108,2.617 5.114,2.617 5.121,2.617 C5.121,2.604 5.121,2.590 5.121,2.577 C5.134,2.570 5.148,2.564 5.161,2.557 C5.174,2.517 5.187,2.477 5.201,2.437 C5.214,2.430 5.227,2.424 5.241,2.417 C5.241,2.404 5.241,2.391 5.241,2.377 C5.247,2.377 5.254,2.377 5.261,2.377 C5.261,2.364 5.261,2.351 5.261,2.337 C5.267,2.337 5.274,2.337 5.281,2.337 C5.287,2.317 5.294,2.297 5.301,2.277 C5.314,2.271 5.327,2.264 5.341,2.257 C5.341,2.244 5.341,2.231 5.341,2.217 C5.347,2.217 5.354,2.217 5.361,2.217 C5.367,2.197 5.374,2.177 5.381,2.157 C5.394,2.151 5.407,2.144 5.420,2.138 C5.420,2.124 5.420,2.111 5.420,2.097 C5.441,2.084 5.460,2.071 5.480,2.057 C5.480,2.044 5.480,2.031 5.480,2.018 C5.500,2.004 5.520,1.991 5.540,1.978 C5.540,1.964 5.540,1.951 5.540,1.938 C5.560,1.924 5.580,1.911 5.600,1.898 C5.600,1.884 5.600,1.871 5.600,1.858 C5.620,1.844 5.640,1.831 5.660,1.818 C5.667,1.798 5.673,1.778 5.680,1.758 C5.733,1.711 5.787,1.665 5.840,1.618 C5.840,1.605 5.840,1.591 5.840,1.578 C5.906,1.518 5.973,1.458 6.039,1.398 C6.066,1.365 6.093,1.332 6.119,1.298 C6.133,1.298 6.146,1.298 6.159,1.298 C6.199,1.252 6.239,1.205 6.279,1.159 C6.293,1.159 6.306,1.159 6.319,1.159 C6.326,1.145 6.332,1.132 6.339,1.119 C6.346,1.119 6.352,1.119 6.359,1.119 C6.372,1.099 6.386,1.079 6.399,1.059 C6.412,1.059 6.426,1.059 6.439,1.059 C6.452,1.039 6.466,1.019 6.479,0.999 C6.492,0.999 6.506,0.999 6.519,0.999 C6.532,0.979 6.545,0.959 6.559,0.939 C6.572,0.939 6.585,0.939 6.599,0.939 C6.612,0.919 6.625,0.899 6.639,0.879 C6.652,0.879 6.665,0.879 6.679,0.879 C6.685,0.866 6.692,0.852 6.699,0.839 C6.712,0.839 6.725,0.839 6.739,0.839 C6.745,0.826 6.752,0.812 6.758,0.799 C6.778,0.792 6.798,0.786 6.818,0.779 C6.818,0.772 6.818,0.766 6.818,0.759 C6.832,0.759 6.845,0.759 6.858,0.759 C6.858,0.752 6.858,0.746 6.858,0.739 C6.872,0.739 6.885,0.739 6.898,0.739 C6.905,0.726 6.912,0.712 6.918,0.699 C6.945,0.692 6.972,0.686 6.998,0.679 C7.005,0.666 7.011,0.653 7.018,0.639 C7.031,0.639 7.045,0.639 7.058,0.639 C7.058,0.633 7.058,0.626 7.058,0.619 C7.071,0.619 7.085,0.619 7.098,0.619 C7.098,0.613 7.098,0.606 7.098,0.599 C7.111,0.599 7.125,0.599 7.138,0.599 C7.138,0.593 7.138,0.586 7.138,0.579 C7.151,0.579 7.165,0.579 7.178,0.579 C7.184,0.566 7.191,0.553 7.198,0.539 C7.224,0.533 7.251,0.526 7.278,0.519 C7.278,0.513 7.278,0.506 7.278,0.499 C7.304,0.493 7.331,0.486 7.358,0.479 C7.358,0.473 7.358,0.466 7.358,0.459 C7.378,0.459 7.397,0.459 7.417,0.459 C7.417,0.453 7.417,0.446 7.417,0.439 C7.431,0.439 7.444,0.439 7.457,0.439 C7.457,0.433 7.457,0.426 7.457,0.419 C7.484,0.413 7.511,0.406 7.537,0.399 C7.537,0.393 7.537,0.386 7.537,0.379 C7.557,0.379 7.577,0.379 7.597,0.379 C7.597,0.373 7.597,0.366 7.597,0.359 C7.611,0.359 7.624,0.359 7.637,0.359 C7.637,0.353 7.637,0.346 7.637,0.339 C7.670,0.333 7.704,0.326 7.737,0.319 C7.737,0.313 7.737,0.306 7.737,0.300 C7.757,0.300 7.777,0.300 7.797,0.300 C8.244,0.121 8.750,-0.000 9.375,-0.000 C9.567,-0.000 9.761,-0.000 9.954,-0.000 C9.954,0.007 9.954,0.013 9.954,0.020 C10.020,0.020 10.087,0.020 10.153,0.020 C10.153,0.027 10.153,0.033 10.153,0.040 C10.200,0.040 10.247,0.040 10.293,0.040 C10.499,0.086 10.706,0.133 10.912,0.180 C10.912,0.186 10.912,0.193 10.912,0.200 C10.932,0.200 10.952,0.200 10.972,0.200 C10.972,0.206 10.972,0.213 10.972,0.220 C10.992,0.220 11.012,0.220 11.032,0.220 C11.032,0.226 11.032,0.233 11.032,0.240 C11.052,0.240 11.072,0.240 11.092,0.240 C11.092,0.246 11.092,0.253 11.092,0.260 C11.112,0.260 11.132,0.260 11.152,0.260 C11.152,0.266 11.152,0.273 11.152,0.280 C11.192,0.286 11.232,0.293 11.272,0.300 C11.272,0.306 11.272,0.313 11.272,0.319 C11.285,0.319 11.298,0.319 11.312,0.319 C11.312,0.326 11.312,0.333 11.312,0.339 C11.332,0.339 11.352,0.339 11.372,0.339 C11.372,0.346 11.372,0.353 11.372,0.359 C11.385,0.359 11.398,0.359 11.411,0.359 C11.411,0.366 11.411,0.373 11.411,0.379 C11.431,0.379 11.451,0.379 11.471,0.379 C11.471,0.386 11.471,0.393 11.471,0.399 C11.511,0.413 11.551,0.426 11.591,0.439 C11.591,0.446 11.591,0.453 11.591,0.459 C11.604,0.459 11.618,0.459 11.631,0.459 C11.631,0.466 11.631,0.473 11.631,0.479 C11.651,0.479 11.671,0.479 11.691,0.479 C11.691,0.486 11.691,0.493 11.691,0.499 C11.704,0.499 11.718,0.499 11.731,0.499 C11.731,0.506 11.731,0.513 11.731,0.519 C11.744,0.519 11.758,0.519 11.771,0.519 C11.778,0.533 11.784,0.546 11.791,0.559 C11.804,0.559 11.818,0.559 11.831,0.559 C11.831,0.566 11.831,0.573 11.831,0.579 C11.844,0.579 11.857,0.579 11.871,0.579 C11.871,0.586 11.871,0.593 11.871,0.599 C11.884,0.599 11.897,0.599 11.911,0.599 C11.911,0.606 11.911,0.613 11.911,0.619 C11.924,0.619 11.937,0.619 11.951,0.619 C11.951,0.626 11.951,0.633 11.951,0.639 C11.964,0.639 11.977,0.639 11.991,0.639 C11.997,0.653 12.004,0.666 12.011,0.679 C12.037,0.686 12.064,0.692 12.090,0.699 C12.090,0.706 12.090,0.712 12.090,0.719 C12.110,0.726 12.130,0.732 12.150,0.739 C12.157,0.752 12.164,0.766 12.170,0.779 C12.197,0.786 12.224,0.792 12.250,0.799 C12.257,0.812 12.263,0.826 12.270,0.839 C12.283,0.839 12.297,0.839 12.310,0.839 C12.323,0.859 12.337,0.879 12.350,0.899 C12.363,0.899 12.377,0.899 12.390,0.899 C12.397,0.912 12.403,0.925 12.410,0.939 C12.423,0.939 12.437,0.939 12.450,0.939 C12.463,0.959 12.476,0.979 12.490,0.999 C12.503,0.999 12.516,0.999 12.530,0.999 C12.550,1.025 12.570,1.052 12.590,1.079 C12.603,1.079 12.616,1.079 12.630,1.079 C12.650,1.105 12.670,1.132 12.690,1.159 C12.703,1.159 12.716,1.159 12.729,1.159 C12.756,1.192 12.783,1.225 12.809,1.258 C12.829,1.272 12.849,1.285 12.869,1.298 C12.869,1.305 12.869,1.312 12.869,1.318 C12.882,1.318 12.896,1.318 12.909,1.318 C12.956,1.372 13.002,1.425 13.049,1.478 C13.082,1.505 13.115,1.532 13.149,1.558 C13.149,1.571 13.149,1.585 13.149,1.598 C13.202,1.645 13.255,1.691 13.309,1.738 C13.309,1.751 13.309,1.765 13.309,1.778 C13.335,1.798 13.362,1.818 13.388,1.838 C13.388,1.851 13.388,1.864 13.388,1.878 C13.415,1.898 13.442,1.918 13.468,1.938 C13.468,1.951 13.468,1.964 13.468,1.978 C13.488,1.991 13.508,2.004 13.528,2.018 C13.528,2.031 13.528,2.044 13.528,2.057 C13.542,2.064 13.555,2.071 13.568,2.077 C13.568,2.091 13.568,2.104 13.568,2.118 C13.588,2.131 13.608,2.144 13.628,2.157 C13.628,2.171 13.628,2.184 13.628,2.197 C13.641,2.204 13.655,2.211 13.668,2.217 C13.675,2.237 13.681,2.257 13.688,2.277 C13.695,2.277 13.701,2.277 13.708,2.277 C13.715,2.304 13.721,2.331 13.728,2.357 C13.741,2.364 13.755,2.371 13.768,2.377 C13.775,2.404 13.781,2.430 13.788,2.457 C13.801,2.464 13.814,2.470 13.828,2.477 C13.828,2.490 13.828,2.504 13.828,2.517 C13.834,2.517 13.841,2.517 13.848,2.517 C13.848,2.530 13.848,2.544 13.848,2.557 C13.854,2.557 13.861,2.557 13.868,2.557 C13.868,2.570 13.868,2.584 13.868,2.597 C13.874,2.597 13.881,2.597 13.888,2.597 C13.888,2.610 13.888,2.624 13.888,2.637 C13.901,2.644 13.914,2.650 13.928,2.657 C13.934,2.683 13.941,2.710 13.948,2.737 C13.954,2.737 13.961,2.737 13.968,2.737 C13.981,2.777 13.994,2.817 14.007,2.857 C14.014,2.857 14.021,2.857 14.027,2.857 C14.027,2.877 14.027,2.896 14.027,2.916 C14.034,2.916 14.041,2.916 14.047,2.916 C14.047,2.930 14.047,2.943 14.047,2.957 C14.054,2.957 14.061,2.957 14.067,2.957 C14.074,2.983 14.081,3.010 14.087,3.036 C14.094,3.036 14.101,3.036 14.107,3.036 C14.187,3.276 14.267,3.516 14.347,3.755 C14.347,3.789 14.347,3.822 14.347,3.856 C14.354,3.856 14.360,3.856 14.367,3.856 C14.367,3.882 14.367,3.909 14.367,3.935 C14.374,3.935 14.380,3.935 14.387,3.935 C14.387,3.969 14.387,4.002 14.387,4.035 C14.394,4.035 14.400,4.035 14.407,4.035 C14.407,4.075 14.407,4.115 14.407,4.155 C14.414,4.155 14.420,4.155 14.427,4.155 C14.427,4.195 14.427,4.235 14.427,4.275 C14.434,4.275 14.440,4.275 14.447,4.275 C14.447,4.328 14.447,4.381 14.447,4.435 C14.454,4.435 14.460,4.435 14.467,4.435 C14.467,4.508 14.467,4.581 14.467,4.655 C14.473,4.655 14.480,4.655 14.487,4.655 C14.487,4.881 14.487,5.107 14.487,5.334 C14.480,5.334 14.473,5.334 14.467,5.334 C14.460,5.467 14.454,5.600 14.447,5.733 C14.440,5.733 14.434,5.733 14.427,5.733 C14.420,5.820 14.414,5.906 14.407,5.993 C14.400,5.993 14.394,5.993 14.387,5.993 C14.387,6.026 14.387,6.060 14.387,6.093 C14.380,6.093 14.374,6.093 14.367,6.093 C14.367,6.126 14.367,6.159 14.367,6.193 C14.360,6.193 14.354,6.193 14.347,6.193 C14.347,6.226 14.347,6.259 14.347,6.293 C14.340,6.293 14.334,6.293 14.327,6.293 C14.327,6.326 14.327,6.359 14.327,6.393 C14.320,6.393 14.314,6.393 14.307,6.393 C14.307,6.419 14.307,6.446 14.307,6.472 C14.300,6.472 14.294,6.472 14.287,6.472 C14.287,6.499 14.287,6.526 14.287,6.552 C14.280,6.552 14.274,6.552 14.267,6.552 C14.267,6.579 14.267,6.606 14.267,6.632 C14.260,6.632 14.254,6.632 14.247,6.632 C14.247,6.659 14.247,6.686 14.247,6.712 C14.240,6.712 14.234,6.712 14.227,6.712 C14.227,6.732 14.227,6.752 14.227,6.772 C14.221,6.772 14.214,6.772 14.207,6.772 C14.207,6.799 14.207,6.825 14.207,6.852 C14.094,7.185 13.981,7.518 13.868,7.851 C13.861,7.851 13.854,7.851 13.848,7.851 C13.848,7.864 13.848,7.877 13.848,7.891 C13.841,7.891 13.834,7.891 13.828,7.891 C13.828,7.911 13.828,7.931 13.828,7.951 C13.821,7.951 13.814,7.951 13.808,7.951 C13.808,7.964 13.808,7.977 13.808,7.991 C13.801,7.991 13.794,7.991 13.788,7.991 C13.788,8.011 13.788,8.031 13.788,8.051 C13.781,8.051 13.775,8.051 13.768,8.051 C13.761,8.077 13.755,8.104 13.748,8.131 C13.741,8.131 13.735,8.131 13.728,8.131 C13.728,8.151 13.728,8.171 13.728,8.190 C13.721,8.190 13.715,8.190 13.708,8.190 C13.708,8.204 13.708,8.217 13.708,8.230 C13.701,8.230 13.695,8.230 13.688,8.230 C13.688,8.250 13.688,8.270 13.688,8.290 C13.681,8.290 13.675,8.290 13.668,8.290 C13.661,8.317 13.655,8.344 13.648,8.370 C13.641,8.370 13.635,8.370 13.628,8.370 C13.628,8.390 13.628,8.410 13.628,8.430 C13.621,8.430 13.615,8.430 13.608,8.430 C13.608,8.443 13.608,8.457 13.608,8.470 C13.601,8.470 13.595,8.470 13.588,8.470 C13.575,8.510 13.561,8.550 13.548,8.590 C13.542,8.590 13.535,8.590 13.528,8.590 C13.528,8.610 13.528,8.630 13.528,8.650 C13.522,8.650 13.515,8.650 13.508,8.650 C13.508,8.663 13.508,8.677 13.508,8.690 C13.502,8.690 13.495,8.690 13.488,8.690 C13.488,8.703 13.488,8.716 13.488,8.730 C13.482,8.730 13.475,8.730 13.468,8.730 C13.468,8.743 13.468,8.757 13.468,8.770 C13.462,8.770 13.455,8.770 13.448,8.770 C13.435,8.810 13.422,8.850 13.408,8.890 C13.402,8.890 13.395,8.890 13.388,8.890 C13.388,8.910 13.388,8.930 13.388,8.950 C13.382,8.950 13.375,8.950 13.368,8.950 C13.368,8.963 13.368,8.976 13.368,8.990 C13.362,8.990 13.355,8.990 13.348,8.990 C13.342,9.016 13.335,9.043 13.328,9.069 C13.322,9.069 13.315,9.069 13.309,9.069 C13.309,9.083 13.309,9.096 13.309,9.109 C13.302,9.109 13.295,9.109 13.289,9.109 C13.289,9.123 13.289,9.136 13.289,9.149 C13.282,9.149 13.275,9.149 13.269,9.149 C13.269,9.163 13.269,9.176 13.269,9.189 C13.262,9.189 13.255,9.189 13.249,9.189 C13.249,9.203 13.249,9.216 13.249,9.229 C13.242,9.229 13.235,9.229 13.229,9.229 C13.229,9.243 13.229,9.256 13.229,9.269 C13.222,9.269 13.215,9.269 13.209,9.269 C13.209,9.283 13.209,9.296 13.209,9.309 C13.202,9.309 13.195,9.309 13.189,9.309 C13.189,9.322 13.189,9.336 13.189,9.349 C13.182,9.349 13.175,9.349 13.169,9.349 C13.169,9.362 13.169,9.376 13.169,9.389 C13.162,9.389 13.155,9.389 13.149,9.389 C13.149,9.402 13.149,9.416 13.149,9.429 C13.142,9.429 13.136,9.429 13.129,9.429 C13.129,9.442 13.129,9.456 13.129,9.469 C13.115,9.476 13.102,9.482 13.089,9.489 C13.042,9.596 12.996,9.702 12.949,9.809 C12.936,9.815 12.922,9.822 12.909,9.829 C12.909,9.842 12.909,9.855 12.909,9.869 C12.903,9.869 12.896,9.869 12.889,9.869 C12.889,9.882 12.889,9.895 12.889,9.908 C12.882,9.908 12.876,9.908 12.869,9.908 C12.869,9.922 12.869,9.935 12.869,9.948 C12.863,9.948 12.856,9.948 12.849,9.948 C12.849,9.962 12.849,9.975 12.849,9.988 C12.843,9.988 12.836,9.988 12.829,9.988 C12.829,10.002 12.829,10.015 12.829,10.028 C12.816,10.035 12.803,10.042 12.789,10.048 C12.776,10.088 12.763,10.128 12.749,10.168 C12.736,10.175 12.723,10.181 12.709,10.188 C12.696,10.228 12.683,10.268 12.670,10.308 C12.656,10.315 12.643,10.321 12.630,10.328 C12.616,10.368 12.603,10.408 12.590,10.448 C12.576,10.455 12.563,10.461 12.550,10.468 C12.536,10.508 12.523,10.548 12.510,10.588 C12.496,10.594 12.483,10.601 12.470,10.608 C12.463,10.634 12.457,10.661 12.450,10.688 C12.437,10.694 12.423,10.701 12.410,10.708 C12.403,10.734 12.397,10.761 12.390,10.787 C12.377,10.794 12.363,10.801 12.350,10.807 C12.343,10.834 12.337,10.861 12.330,10.887 C12.317,10.894 12.303,10.901 12.290,10.907 C12.283,10.934 12.277,10.961 12.270,10.987 C12.263,10.987 12.257,10.987 12.250,10.987 C12.243,11.007 12.237,11.027 12.230,11.047 C12.217,11.054 12.204,11.060 12.190,11.067 C12.190,11.080 12.190,11.094 12.190,11.107 C12.184,11.107 12.177,11.107 12.170,11.107 C12.170,11.120 12.170,11.134 12.170,11.147 C12.157,11.154 12.144,11.160 12.130,11.167 C12.130,11.180 12.130,11.194 12.130,11.207 C12.117,11.214 12.104,11.220 12.090,11.227 C12.084,11.254 12.077,11.280 12.070,11.307 C12.057,11.314 12.044,11.320 12.030,11.327 C12.030,11.340 12.030,11.354 12.030,11.367 C12.017,11.374 12.004,11.380 11.991,11.387 C11.984,11.407 11.977,11.427 11.971,11.447 C11.964,11.447 11.957,11.447 11.951,11.447 C11.944,11.473 11.937,11.500 11.931,11.527 C11.917,11.533 11.904,11.540 11.891,11.547 C11.891,11.560 11.891,11.573 11.891,11.587 C11.877,11.593 11.864,11.600 11.851,11.607 C11.851,11.620 11.851,11.633 11.851,11.646 C11.837,11.653 11.824,11.660 11.811,11.666 C11.811,11.680 11.811,11.693 11.811,11.706 C11.797,11.713 11.784,11.720 11.771,11.726 C11.764,11.753 11.758,11.780 11.751,11.806 C11.738,11.813 11.724,11.820 11.711,11.826 C11.711,11.840 11.711,11.853 11.711,11.866 C11.704,11.866 11.698,11.866 11.691,11.866 C11.684,11.886 11.678,11.906 11.671,11.926 C11.658,11.933 11.644,11.939 11.631,11.946 C11.631,11.959 11.631,11.973 11.631,11.986 C11.618,11.993 11.604,12.000 11.591,12.006 C11.591,12.019 11.591,12.033 11.591,12.046 C11.585,12.046 11.578,12.046 11.571,12.046 C11.564,12.066 11.558,12.086 11.551,12.106 C11.538,12.113 11.525,12.119 11.511,12.126 C11.511,12.139 11.511,12.153 11.511,12.166 C11.491,12.179 11.471,12.193 11.451,12.206 C11.451,12.219 11.451,12.233 11.451,12.246 C11.438,12.252 11.425,12.259 11.411,12.266 C11.405,12.286 11.398,12.306 11.391,12.326 C11.385,12.326 11.378,12.326 11.372,12.326 C11.372,12.339 11.372,12.352 11.372,12.366 C11.358,12.372 11.345,12.379 11.332,12.386 C11.332,12.399 11.332,12.412 11.332,12.426 C11.325,12.426 11.318,12.426 11.312,12.426 C11.305,12.446 11.298,12.466 11.292,12.486 C11.278,12.492 11.265,12.499 11.252,12.505 C11.252,12.519 11.252,12.532 11.252,12.545 C11.232,12.559 11.212,12.572 11.192,12.585 C11.192,12.599 11.192,12.612 11.192,12.625 C11.178,12.632 11.165,12.639 11.152,12.645 C11.152,12.659 11.152,12.672 11.152,12.685 C11.139,12.692 11.125,12.699 11.112,12.705 C11.112,12.719 11.112,12.732 11.112,12.745 C11.092,12.758 11.072,12.772 11.052,12.785 C11.052,12.798 11.052,12.812 11.052,12.825 C11.039,12.832 11.025,12.839 11.012,12.845 C11.012,12.859 11.012,12.872 11.012,12.885 C10.992,12.898 10.972,12.912 10.952,12.925 C10.952,12.938 10.952,12.952 10.952,12.965 C10.939,12.972 10.925,12.978 10.912,12.985 C10.912,12.998 10.912,13.012 10.912,13.025 C10.892,13.038 10.872,13.052 10.852,13.065 C10.852,13.078 10.852,13.092 10.852,13.105 C10.839,13.111 10.826,13.118 10.812,13.125 C10.812,13.138 10.812,13.151 10.812,13.165 C10.799,13.171 10.786,13.178 10.772,13.185 C10.766,13.205 10.759,13.225 10.752,13.245 C10.732,13.258 10.712,13.271 10.693,13.285 C10.693,13.298 10.693,13.311 10.693,13.325 C10.679,13.331 10.666,13.338 10.653,13.345 C10.653,13.358 10.653,13.371 10.653,13.384 C10.639,13.391 10.626,13.398 10.613,13.404 C10.606,13.424 10.599,13.444 10.593,13.464 C10.573,13.478 10.553,13.491 10.533,13.504 C10.533,13.518 10.533,13.531 10.533,13.544 C10.513,13.558 10.493,13.571 10.473,13.584 C10.473,13.598 10.473,13.611 10.473,13.624 C10.453,13.637 10.433,13.651 10.413,13.664 C10.413,13.678 10.413,13.691 10.413,13.704 C10.393,13.718 10.373,13.731 10.353,13.744 C10.353,13.757 10.353,13.771 10.353,13.784 C10.333,13.797 10.313,13.811 10.293,13.824 C10.293,13.837 10.293,13.851 10.293,13.864 C10.266,13.884 10.240,13.904 10.213,13.924 C10.207,13.944 10.200,13.964 10.193,13.984 C10.180,13.990 10.167,13.997 10.153,14.004 C10.153,14.017 10.153,14.030 10.153,14.044 C10.133,14.057 10.113,14.070 10.093,14.084 C10.093,14.097 10.093,14.110 10.093,14.124 C10.067,14.144 10.040,14.164 10.014,14.184 C10.014,14.197 10.014,14.210 10.014,14.223 C9.987,14.243 9.960,14.263 9.934,14.283 C9.927,14.303 9.920,14.323 9.914,14.343 C9.900,14.350 9.887,14.357 9.874,14.363 C9.874,14.377 9.874,14.390 9.874,14.403 C9.847,14.423 9.821,14.443 9.794,14.463 C9.794,14.476 9.794,14.490 9.794,14.503 C9.761,14.530 9.727,14.557 9.694,14.583 C9.694,14.596 9.694,14.610 9.694,14.623 C9.667,14.643 9.641,14.663 9.614,14.683 C9.614,14.696 9.614,14.710 9.614,14.723 C9.608,14.723 9.601,14.723 9.594,14.723 C9.568,14.756 9.541,14.790 9.514,14.823 C9.501,14.823 9.488,14.823 9.474,14.823 ZM9.454,2.237 C9.398,2.285 9.279,2.233 9.195,2.257 C9.195,2.264 9.195,2.271 9.195,2.277 C9.155,2.277 9.115,2.277 9.075,2.277 C9.075,2.284 9.075,2.291 9.075,2.297 C9.042,2.297 9.008,2.297 8.975,2.297 C8.975,2.304 8.975,2.311 8.975,2.317 C8.948,2.317 8.922,2.317 8.895,2.317 C8.895,2.324 8.895,2.331 8.895,2.337 C8.869,2.337 8.842,2.337 8.815,2.337 C8.815,2.344 8.815,2.351 8.815,2.357 C8.795,2.357 8.775,2.357 8.755,2.357 C8.755,2.364 8.755,2.371 8.755,2.377 C8.735,2.377 8.715,2.377 8.696,2.377 C8.696,2.384 8.696,2.391 8.696,2.397 C8.676,2.397 8.656,2.397 8.636,2.397 C8.636,2.404 8.636,2.410 8.636,2.417 C8.622,2.417 8.609,2.417 8.596,2.417 C8.596,2.424 8.596,2.430 8.596,2.437 C8.576,2.437 8.556,2.437 8.536,2.437 C8.536,2.444 8.536,2.450 8.536,2.457 C8.496,2.470 8.456,2.484 8.416,2.497 C8.416,2.504 8.416,2.510 8.416,2.517 C8.403,2.517 8.389,2.517 8.376,2.517 C8.376,2.524 8.376,2.530 8.376,2.537 C8.349,2.544 8.323,2.550 8.296,2.557 C8.290,2.570 8.283,2.584 8.276,2.597 C8.250,2.604 8.223,2.610 8.196,2.617 C8.196,2.624 8.196,2.630 8.196,2.637 C8.176,2.644 8.156,2.650 8.136,2.657 C8.130,2.670 8.123,2.683 8.116,2.697 C8.103,2.697 8.090,2.697 8.076,2.697 C8.070,2.710 8.063,2.723 8.057,2.737 C8.036,2.743 8.017,2.750 7.997,2.757 C7.970,2.790 7.943,2.823 7.917,2.857 C7.903,2.857 7.890,2.857 7.877,2.857 C7.830,2.910 7.784,2.963 7.737,3.016 C7.717,3.030 7.697,3.043 7.677,3.056 C7.677,3.070 7.677,3.083 7.677,3.096 C7.644,3.123 7.611,3.150 7.577,3.176 C7.571,3.196 7.564,3.216 7.557,3.236 C7.544,3.243 7.531,3.250 7.517,3.256 C7.517,3.269 7.517,3.283 7.517,3.296 C7.504,3.303 7.491,3.309 7.477,3.316 C7.471,3.336 7.464,3.356 7.457,3.376 C7.451,3.376 7.444,3.376 7.437,3.376 C7.431,3.403 7.424,3.429 7.417,3.456 C7.404,3.463 7.391,3.469 7.378,3.476 C7.371,3.503 7.364,3.529 7.358,3.556 C7.351,3.556 7.344,3.556 7.338,3.556 C7.338,3.569 7.338,3.582 7.338,3.596 C7.331,3.596 7.324,3.596 7.318,3.596 C7.304,3.636 7.291,3.676 7.278,3.716 C7.271,3.716 7.264,3.716 7.258,3.716 C7.258,3.736 7.258,3.755 7.258,3.775 C7.251,3.775 7.244,3.775 7.238,3.775 C7.238,3.789 7.238,3.802 7.238,3.816 C7.231,3.816 7.224,3.816 7.218,3.816 C7.218,3.836 7.218,3.856 7.218,3.876 C7.211,3.876 7.205,3.876 7.198,3.876 C7.198,3.895 7.198,3.915 7.198,3.935 C7.191,3.935 7.184,3.935 7.178,3.935 C7.178,3.955 7.178,3.975 7.178,3.995 C7.171,3.995 7.165,3.995 7.158,3.995 C7.158,4.015 7.158,4.035 7.158,4.055 C7.151,4.055 7.145,4.055 7.138,4.055 C7.138,4.082 7.138,4.109 7.138,4.135 C7.131,4.135 7.125,4.135 7.118,4.135 C7.111,4.202 7.105,4.268 7.098,4.335 C7.091,4.335 7.085,4.335 7.078,4.335 C7.078,4.401 7.078,4.468 7.078,4.535 C7.071,4.535 7.065,4.535 7.058,4.535 C7.017,4.683 7.087,5.074 7.118,5.174 C7.118,5.207 7.118,5.240 7.118,5.274 C7.125,5.274 7.131,5.274 7.138,5.274 C7.138,5.294 7.138,5.314 7.138,5.334 C7.145,5.334 7.151,5.334 7.158,5.334 C7.158,5.360 7.158,5.387 7.158,5.414 C7.165,5.414 7.171,5.414 7.178,5.414 C7.178,5.434 7.178,5.454 7.178,5.474 C7.184,5.474 7.191,5.474 7.198,5.474 C7.198,5.494 7.198,5.514 7.198,5.534 C7.205,5.534 7.211,5.534 7.218,5.534 C7.218,5.554 7.218,5.574 7.218,5.594 C7.224,5.594 7.231,5.594 7.238,5.594 C7.238,5.607 7.238,5.620 7.238,5.633 C7.244,5.633 7.251,5.633 7.258,5.633 C7.258,5.653 7.258,5.673 7.258,5.693 C7.264,5.693 7.271,5.693 7.278,5.693 C7.291,5.733 7.304,5.773 7.318,5.813 C7.324,5.813 7.331,5.813 7.338,5.813 C7.344,5.840 7.351,5.866 7.358,5.893 C7.371,5.900 7.384,5.906 7.397,5.913 C7.404,5.940 7.411,5.966 7.417,5.993 C7.431,6.000 7.444,6.006 7.457,6.013 C7.457,6.026 7.457,6.040 7.457,6.053 C7.471,6.060 7.484,6.066 7.497,6.073 C7.497,6.086 7.497,6.099 7.497,6.113 C7.511,6.119 7.524,6.126 7.537,6.133 C7.537,6.146 7.537,6.159 7.537,6.173 C7.557,6.186 7.577,6.200 7.597,6.213 C7.597,6.226 7.597,6.239 7.597,6.253 C7.637,6.286 7.677,6.319 7.717,6.353 C7.717,6.366 7.717,6.379 7.717,6.393 C7.750,6.419 7.784,6.446 7.817,6.472 C7.824,6.486 7.830,6.499 7.837,6.512 C7.850,6.512 7.863,6.512 7.877,6.512 C7.910,6.552 7.943,6.592 7.977,6.632 C7.990,6.632 8.003,6.632 8.017,6.632 C8.030,6.652 8.043,6.672 8.057,6.692 C8.070,6.692 8.083,6.692 8.096,6.692 C8.103,6.706 8.110,6.719 8.116,6.732 C8.136,6.739 8.156,6.745 8.176,6.752 C8.176,6.759 8.176,6.765 8.176,6.772 C8.190,6.772 8.203,6.772 8.216,6.772 C8.223,6.785 8.230,6.799 8.236,6.812 C8.263,6.819 8.290,6.825 8.316,6.832 C8.323,6.845 8.329,6.859 8.336,6.872 C8.363,6.879 8.389,6.885 8.416,6.892 C8.416,6.899 8.416,6.905 8.416,6.912 C8.443,6.919 8.469,6.925 8.496,6.932 C8.496,6.939 8.496,6.945 8.496,6.952 C8.516,6.952 8.536,6.952 8.556,6.952 C8.828,7.071 9.074,7.152 9.474,7.152 C9.581,7.152 9.687,7.152 9.794,7.152 C9.794,7.145 9.794,7.138 9.794,7.132 C9.834,7.132 9.874,7.132 9.914,7.132 C9.914,7.125 9.914,7.118 9.914,7.112 C9.947,7.112 9.980,7.112 10.014,7.112 C10.014,7.105 10.014,7.098 10.014,7.092 C10.047,7.092 10.080,7.092 10.113,7.092 C10.113,7.085 10.113,7.078 10.113,7.072 C10.133,7.072 10.153,7.072 10.173,7.072 C10.173,7.065 10.173,7.059 10.173,7.052 C10.200,7.052 10.227,7.052 10.253,7.052 C10.253,7.045 10.253,7.039 10.253,7.032 C10.266,7.032 10.280,7.032 10.293,7.032 C10.293,7.025 10.293,7.018 10.293,7.012 C10.333,7.005 10.373,6.998 10.413,6.992 C10.413,6.985 10.413,6.978 10.413,6.972 C10.440,6.965 10.466,6.958 10.493,6.952 C10.493,6.945 10.493,6.939 10.493,6.932 C10.513,6.932 10.533,6.932 10.553,6.932 C10.553,6.925 10.553,6.919 10.553,6.912 C10.579,6.905 10.606,6.899 10.633,6.892 C10.633,6.885 10.633,6.879 10.633,6.872 C10.646,6.872 10.659,6.872 10.673,6.872 C10.679,6.859 10.686,6.845 10.693,6.832 C10.719,6.825 10.746,6.819 10.772,6.812 C10.779,6.799 10.786,6.785 10.792,6.772 C10.806,6.772 10.819,6.772 10.832,6.772 C10.832,6.765 10.832,6.759 10.832,6.752 C10.852,6.745 10.872,6.739 10.892,6.732 C10.899,6.719 10.906,6.706 10.912,6.692 C10.925,6.692 10.939,6.692 10.952,6.692 C10.972,6.666 10.992,6.639 11.012,6.612 C11.025,6.612 11.039,6.612 11.052,6.612 C11.085,6.572 11.118,6.532 11.152,6.492 C11.165,6.492 11.178,6.492 11.192,6.492 C11.225,6.446 11.258,6.399 11.292,6.353 C11.332,6.319 11.372,6.286 11.411,6.253 C11.411,6.239 11.411,6.226 11.411,6.213 C11.431,6.200 11.451,6.186 11.471,6.173 C11.471,6.159 11.471,6.146 11.471,6.133 C11.485,6.126 11.498,6.119 11.511,6.113 C11.511,6.099 11.511,6.086 11.511,6.073 C11.525,6.066 11.538,6.060 11.551,6.053 C11.558,6.033 11.564,6.013 11.571,5.993 C11.578,5.993 11.585,5.993 11.591,5.993 C11.598,5.966 11.604,5.940 11.611,5.913 C11.624,5.906 11.638,5.900 11.651,5.893 C11.658,5.866 11.664,5.840 11.671,5.813 C11.678,5.813 11.684,5.813 11.691,5.813 C11.698,5.787 11.704,5.760 11.711,5.733 C11.718,5.733 11.724,5.733 11.731,5.733 C11.731,5.713 11.731,5.693 11.731,5.673 C11.738,5.673 11.744,5.673 11.751,5.673 C11.758,5.647 11.764,5.620 11.771,5.594 C11.778,5.594 11.784,5.594 11.791,5.594 C11.811,5.507 11.831,5.420 11.851,5.334 C12.008,4.864 11.958,4.293 11.791,3.876 C11.791,3.856 11.791,3.836 11.791,3.816 C11.784,3.816 11.778,3.816 11.771,3.816 C11.771,3.802 11.771,3.789 11.771,3.775 C11.764,3.775 11.758,3.775 11.751,3.775 C11.751,3.755 11.751,3.736 11.751,3.716 C11.744,3.716 11.738,3.716 11.731,3.716 C11.718,3.676 11.704,3.636 11.691,3.596 C11.684,3.596 11.678,3.596 11.671,3.596 C11.671,3.582 11.671,3.569 11.671,3.556 C11.664,3.556 11.658,3.556 11.651,3.556 C11.644,3.529 11.638,3.503 11.631,3.476 C11.205,2.797 10.531,2.264 9.454,2.237 ZM9.375,3.476 C9.966,3.468 10.282,3.685 10.513,4.035 C10.526,4.042 10.539,4.049 10.553,4.055 C10.559,4.082 10.566,4.109 10.573,4.135 C10.579,4.135 10.586,4.135 10.593,4.135 C10.599,4.162 10.606,4.188 10.613,4.215 C10.619,4.215 10.626,4.215 10.633,4.215 C10.633,4.235 10.633,4.255 10.633,4.275 C10.639,4.275 10.646,4.275 10.653,4.275 C10.653,4.288 10.653,4.302 10.653,4.315 C10.659,4.315 10.666,4.315 10.673,4.315 C10.673,4.342 10.673,4.368 10.673,4.395 C10.698,4.473 10.750,4.788 10.712,4.914 C10.706,4.914 10.699,4.914 10.693,4.914 C10.693,4.948 10.693,4.981 10.693,5.014 C10.686,5.014 10.679,5.014 10.673,5.014 C10.673,5.034 10.673,5.054 10.673,5.074 C10.666,5.074 10.659,5.074 10.653,5.074 C10.653,5.094 10.653,5.114 10.653,5.134 C10.646,5.134 10.639,5.134 10.633,5.134 C10.633,5.154 10.633,5.174 10.633,5.194 C10.626,5.194 10.619,5.194 10.613,5.194 C10.613,5.207 10.613,5.221 10.613,5.234 C10.606,5.234 10.599,5.234 10.593,5.234 C10.579,5.274 10.566,5.314 10.553,5.354 C10.539,5.360 10.526,5.367 10.513,5.374 C10.513,5.387 10.513,5.400 10.513,5.414 C10.493,5.427 10.473,5.440 10.453,5.454 C10.453,5.467 10.453,5.480 10.453,5.494 C10.413,5.527 10.373,5.560 10.333,5.594 C10.320,5.613 10.306,5.633 10.293,5.653 C10.280,5.653 10.266,5.653 10.253,5.653 C10.240,5.673 10.227,5.693 10.213,5.713 C10.200,5.713 10.187,5.713 10.173,5.713 C10.167,5.727 10.160,5.740 10.153,5.753 C10.140,5.753 10.127,5.753 10.113,5.753 C10.113,5.760 10.113,5.767 10.113,5.773 C10.100,5.773 10.087,5.773 10.073,5.773 C10.073,5.780 10.073,5.787 10.073,5.793 C10.060,5.793 10.047,5.793 10.033,5.793 C10.033,5.800 10.033,5.807 10.033,5.813 C10.020,5.813 10.007,5.813 9.994,5.813 C9.994,5.820 9.994,5.827 9.994,5.833 C9.980,5.833 9.967,5.833 9.954,5.833 C9.954,5.840 9.954,5.846 9.954,5.853 C9.934,5.853 9.914,5.853 9.894,5.853 C9.894,5.860 9.894,5.866 9.894,5.873 C9.874,5.873 9.854,5.873 9.834,5.873 C9.834,5.880 9.834,5.886 9.834,5.893 C9.807,5.893 9.781,5.893 9.754,5.893 C9.754,5.900 9.754,5.906 9.754,5.913 C9.701,5.913 9.647,5.913 9.594,5.913 C9.594,5.920 9.594,5.926 9.594,5.933 C9.534,5.950 9.445,5.922 9.414,5.913 C9.361,5.913 9.308,5.913 9.255,5.913 C9.255,5.906 9.255,5.900 9.255,5.893 C9.228,5.893 9.201,5.893 9.175,5.893 C9.175,5.886 9.175,5.880 9.175,5.873 C9.155,5.873 9.135,5.873 9.115,5.873 C9.115,5.866 9.115,5.860 9.115,5.853 C9.095,5.853 9.075,5.853 9.055,5.853 C9.055,5.846 9.055,5.840 9.055,5.833 C9.042,5.833 9.028,5.833 9.015,5.833 C9.015,5.827 9.015,5.820 9.015,5.813 C8.982,5.807 8.948,5.800 8.915,5.793 C8.909,5.780 8.902,5.767 8.895,5.753 C8.882,5.753 8.869,5.753 8.855,5.753 C8.855,5.747 8.855,5.740 8.855,5.733 C8.835,5.727 8.815,5.720 8.795,5.713 C8.789,5.700 8.782,5.687 8.775,5.673 C8.762,5.673 8.749,5.673 8.735,5.673 C8.722,5.653 8.709,5.633 8.696,5.613 C8.649,5.574 8.602,5.534 8.556,5.494 C8.556,5.480 8.556,5.467 8.556,5.454 C8.536,5.440 8.516,5.427 8.496,5.414 C8.496,5.400 8.496,5.387 8.496,5.374 C8.482,5.367 8.469,5.360 8.456,5.354 C8.443,5.314 8.429,5.274 8.416,5.234 C8.409,5.234 8.403,5.234 8.396,5.234 C8.396,5.221 8.396,5.207 8.396,5.194 C8.389,5.194 8.383,5.194 8.376,5.194 C8.376,5.174 8.376,5.154 8.376,5.134 C8.369,5.134 8.363,5.134 8.356,5.134 C8.356,5.121 8.356,5.107 8.356,5.094 C8.349,5.094 8.343,5.094 8.336,5.094 C8.336,5.067 8.336,5.041 8.336,5.014 C8.329,5.014 8.323,5.014 8.316,5.014 C8.316,4.987 8.316,4.961 8.316,4.934 C8.309,4.934 8.303,4.934 8.296,4.934 C8.296,4.781 8.296,4.628 8.296,4.475 C8.303,4.475 8.309,4.475 8.316,4.475 C8.316,4.448 8.316,4.421 8.316,4.395 C8.323,4.395 8.329,4.395 8.336,4.395 C8.343,4.348 8.349,4.302 8.356,4.255 C8.363,4.255 8.369,4.255 8.376,4.255 C8.376,4.242 8.376,4.228 8.376,4.215 C8.383,4.215 8.389,4.215 8.396,4.215 C8.396,4.202 8.396,4.188 8.396,4.175 C8.403,4.175 8.409,4.175 8.416,4.175 C8.416,4.162 8.416,4.148 8.416,4.135 C8.423,4.135 8.429,4.135 8.436,4.135 C8.436,4.122 8.436,4.109 8.436,4.095 C8.443,4.095 8.449,4.095 8.456,4.095 C8.456,4.082 8.456,4.069 8.456,4.055 C8.469,4.049 8.482,4.042 8.496,4.035 C8.496,4.022 8.496,4.009 8.496,3.995 C8.509,3.989 8.522,3.982 8.536,3.975 C8.536,3.962 8.536,3.949 8.536,3.935 C8.562,3.915 8.589,3.895 8.616,3.876 C8.662,3.822 8.709,3.769 8.755,3.716 C8.769,3.716 8.782,3.716 8.795,3.716 C8.802,3.702 8.809,3.689 8.815,3.676 C8.829,3.676 8.842,3.676 8.855,3.676 C8.862,3.662 8.869,3.649 8.875,3.636 C8.902,3.629 8.929,3.622 8.955,3.616 C8.955,3.609 8.955,3.602 8.955,3.596 C8.968,3.596 8.982,3.596 8.995,3.596 C8.995,3.589 8.995,3.582 8.995,3.576 C9.015,3.576 9.035,3.576 9.055,3.576 C9.055,3.569 9.055,3.562 9.055,3.556 C9.068,3.556 9.082,3.556 9.095,3.556 C9.095,3.549 9.095,3.542 9.095,3.536 C9.142,3.529 9.188,3.522 9.235,3.516 C9.235,3.509 9.235,3.503 9.235,3.496 C9.281,3.496 9.328,3.496 9.375,3.496 C9.375,3.489 9.375,3.483 9.375,3.476 ZM7.797,14.603 C7.637,14.610 7.477,14.616 7.318,14.623 C7.318,14.630 7.318,14.636 7.318,14.643 C7.238,14.643 7.158,14.643 7.078,14.643 C7.078,14.650 7.078,14.656 7.078,14.663 C7.005,14.663 6.932,14.663 6.858,14.663 C6.858,14.670 6.858,14.676 6.858,14.683 C6.792,14.683 6.725,14.683 6.659,14.683 C6.659,14.690 6.659,14.696 6.659,14.703 C6.599,14.703 6.539,14.703 6.479,14.703 C6.479,14.710 6.479,14.716 6.479,14.723 C6.426,14.723 6.372,14.723 6.319,14.723 C6.101,14.787 5.814,14.780 5.600,14.843 C5.554,14.843 5.507,14.843 5.460,14.843 C5.460,14.849 5.460,14.856 5.460,14.863 C5.420,14.863 5.381,14.863 5.341,14.863 C5.341,14.869 5.341,14.876 5.341,14.883 C5.301,14.883 5.261,14.883 5.221,14.883 C5.221,14.889 5.221,14.896 5.221,14.903 C5.187,14.903 5.154,14.903 5.121,14.903 C5.121,14.909 5.121,14.916 5.121,14.923 C5.081,14.923 5.041,14.923 5.001,14.923 C4.824,14.977 4.595,15.007 4.422,15.063 C4.389,15.063 4.355,15.063 4.322,15.063 C4.322,15.069 4.322,15.076 4.322,15.082 C4.296,15.082 4.269,15.082 4.242,15.082 C4.242,15.089 4.242,15.096 4.242,15.102 C4.216,15.102 4.189,15.102 4.162,15.102 C4.162,15.109 4.162,15.116 4.162,15.122 C4.136,15.122 4.109,15.122 4.083,15.122 C4.083,15.129 4.083,15.136 4.083,15.142 C4.056,15.142 4.029,15.142 4.003,15.142 C4.003,15.149 4.003,15.156 4.003,15.162 C3.923,15.176 3.843,15.189 3.763,15.202 C3.763,15.209 3.763,15.216 3.763,15.222 C3.690,15.236 3.617,15.249 3.543,15.262 C3.543,15.269 3.543,15.276 3.543,15.282 C3.477,15.296 3.410,15.309 3.344,15.322 C3.344,15.329 3.344,15.335 3.344,15.342 C3.324,15.342 3.304,15.342 3.284,15.342 C3.284,15.349 3.284,15.356 3.284,15.362 C3.264,15.362 3.244,15.362 3.224,15.362 C3.224,15.369 3.224,15.376 3.224,15.382 C3.204,15.382 3.184,15.382 3.164,15.382 C3.164,15.389 3.164,15.396 3.164,15.402 C3.144,15.402 3.124,15.402 3.104,15.402 C3.104,15.409 3.104,15.416 3.104,15.422 C3.084,15.422 3.064,15.422 3.044,15.422 C3.044,15.429 3.044,15.436 3.044,15.442 C3.024,15.442 3.004,15.442 2.984,15.442 C2.984,15.449 2.984,15.455 2.984,15.462 C2.964,15.462 2.944,15.462 2.924,15.462 C2.924,15.469 2.924,15.475 2.924,15.482 C2.904,15.482 2.884,15.482 2.864,15.482 C2.864,15.489 2.864,15.495 2.864,15.502 C2.851,15.502 2.838,15.502 2.824,15.502 C2.824,15.509 2.824,15.515 2.824,15.522 C2.784,15.529 2.745,15.535 2.705,15.542 C2.705,15.549 2.705,15.555 2.705,15.562 C2.691,15.562 2.678,15.562 2.665,15.562 C2.665,15.569 2.665,15.575 2.665,15.582 C2.645,15.582 2.625,15.582 2.605,15.582 C2.605,15.589 2.605,15.595 2.605,15.602 C2.591,15.602 2.578,15.602 2.565,15.602 C2.565,15.609 2.565,15.615 2.565,15.622 C2.545,15.622 2.525,15.622 2.505,15.622 C2.505,15.629 2.505,15.635 2.505,15.642 C2.492,15.642 2.478,15.642 2.465,15.642 C2.465,15.649 2.465,15.655 2.465,15.662 C2.432,15.669 2.398,15.675 2.365,15.682 C2.365,15.689 2.365,15.695 2.365,15.702 C2.325,15.715 2.285,15.728 2.245,15.742 C2.245,15.748 2.245,15.755 2.245,15.762 C2.232,15.762 2.219,15.762 2.205,15.762 C2.205,15.768 2.205,15.775 2.205,15.782 C2.192,15.782 2.179,15.782 2.165,15.782 C2.165,15.788 2.165,15.795 2.165,15.802 C2.152,15.802 2.139,15.802 2.126,15.802 C2.126,15.808 2.126,15.815 2.126,15.822 C2.112,15.822 2.099,15.822 2.086,15.822 C2.086,15.828 2.086,15.835 2.086,15.842 C2.072,15.842 2.059,15.842 2.046,15.842 C2.046,15.848 2.046,15.855 2.046,15.862 C2.032,15.862 2.019,15.862 2.006,15.862 C1.999,15.875 1.992,15.888 1.986,15.902 C1.972,15.902 1.959,15.902 1.946,15.902 C1.946,15.908 1.946,15.915 1.946,15.922 C1.902,15.948 1.917,15.913 1.886,15.961 C1.879,15.961 1.872,15.961 1.866,15.961 C1.866,15.968 1.866,15.975 1.866,15.981 C1.872,15.981 1.879,15.981 1.886,15.981 C1.941,16.043 1.993,16.042 2.066,16.081 C2.066,16.088 2.066,16.095 2.066,16.101 C2.079,16.101 2.092,16.101 2.105,16.101 C2.112,16.115 2.119,16.128 2.126,16.141 C2.139,16.141 2.152,16.141 2.165,16.141 C2.165,16.148 2.165,16.155 2.165,16.161 C2.192,16.168 2.219,16.175 2.245,16.181 C2.245,16.188 2.245,16.195 2.245,16.201 C2.265,16.201 2.285,16.201 2.305,16.201 C2.305,16.208 2.305,16.215 2.305,16.221 C2.319,16.221 2.332,16.221 2.345,16.221 C2.345,16.228 2.345,16.235 2.345,16.241 C2.372,16.248 2.398,16.255 2.425,16.261 C2.425,16.268 2.425,16.275 2.425,16.281 C2.445,16.281 2.465,16.281 2.485,16.281 C2.485,16.288 2.485,16.295 2.485,16.301 C2.512,16.308 2.538,16.314 2.565,16.321 C2.565,16.328 2.565,16.334 2.565,16.341 C2.944,16.468 3.324,16.594 3.703,16.721 C3.730,16.721 3.756,16.721 3.783,16.721 C3.783,16.727 3.783,16.734 3.783,16.741 C3.856,16.754 3.929,16.767 4.003,16.781 C4.003,16.787 4.003,16.794 4.003,16.801 C4.063,16.807 4.122,16.814 4.182,16.820 C4.437,16.907 4.757,16.940 5.021,17.020 C5.061,17.020 5.101,17.020 5.141,17.020 C5.141,17.027 5.141,17.034 5.141,17.040 C5.174,17.040 5.208,17.040 5.241,17.040 C5.241,17.047 5.241,17.054 5.241,17.060 C5.281,17.060 5.321,17.060 5.361,17.060 C5.361,17.067 5.361,17.074 5.361,17.080 C5.400,17.080 5.441,17.080 5.480,17.080 C5.480,17.087 5.480,17.094 5.480,17.100 C5.527,17.100 5.574,17.100 5.620,17.100 C5.734,17.134 5.903,17.146 6.020,17.180 C6.073,17.180 6.126,17.180 6.179,17.180 C6.392,17.241 6.683,17.218 6.898,17.280 C6.972,17.280 7.045,17.280 7.118,17.280 C7.118,17.287 7.118,17.293 7.118,17.300 C7.191,17.300 7.264,17.300 7.338,17.300 C7.344,17.300 7.351,17.300 7.358,17.300 C7.358,17.307 7.358,17.313 7.358,17.320 C7.451,17.320 7.544,17.320 7.637,17.320 C7.637,17.327 7.637,17.333 7.637,17.340 C7.750,17.340 7.863,17.340 7.977,17.340 C8.085,17.371 8.275,17.326 8.396,17.360 C8.622,17.423 8.971,17.374 9.235,17.380 C9.346,17.383 9.562,17.437 9.694,17.400 C9.694,17.393 9.694,17.387 9.694,17.380 C9.887,17.380 10.080,17.380 10.273,17.380 C10.386,17.380 10.499,17.380 10.613,17.380 C10.613,17.373 10.613,17.367 10.613,17.360 C10.734,17.326 10.923,17.371 11.032,17.340 C11.099,17.340 11.165,17.340 11.232,17.340 C11.371,17.333 11.511,17.327 11.651,17.320 C11.651,17.313 11.651,17.307 11.651,17.300 C11.871,17.287 12.090,17.273 12.310,17.260 C12.310,17.253 12.310,17.247 12.310,17.240 C12.370,17.240 12.430,17.240 12.490,17.240 C12.490,17.233 12.490,17.227 12.490,17.220 C12.550,17.220 12.610,17.220 12.670,17.220 C12.670,17.213 12.670,17.207 12.670,17.200 C12.723,17.200 12.776,17.200 12.829,17.200 C12.829,17.193 12.829,17.187 12.829,17.180 C12.876,17.180 12.922,17.180 12.969,17.180 C12.969,17.173 12.969,17.167 12.969,17.160 C13.022,17.160 13.076,17.160 13.129,17.160 C13.129,17.154 13.129,17.147 13.129,17.140 C13.175,17.140 13.222,17.140 13.269,17.140 C13.269,17.134 13.269,17.127 13.269,17.120 C13.355,17.114 13.442,17.107 13.528,17.100 C13.732,17.040 13.988,17.023 14.187,16.960 C14.254,16.954 14.320,16.947 14.387,16.940 C14.387,16.934 14.387,16.927 14.387,16.921 C14.420,16.921 14.454,16.921 14.487,16.921 C14.487,16.914 14.487,16.907 14.487,16.901 C14.547,16.894 14.607,16.887 14.667,16.880 C14.667,16.874 14.667,16.867 14.667,16.860 C14.693,16.860 14.720,16.860 14.746,16.860 C14.746,16.854 14.746,16.847 14.746,16.840 C14.773,16.840 14.800,16.840 14.826,16.840 C14.826,16.834 14.826,16.827 14.826,16.820 C14.853,16.820 14.879,16.820 14.906,16.820 C14.906,16.814 14.906,16.807 14.906,16.801 C14.939,16.801 14.973,16.801 15.006,16.801 C15.006,16.794 15.006,16.787 15.006,16.781 C15.026,16.781 15.046,16.781 15.066,16.781 C15.066,16.774 15.066,16.767 15.066,16.761 C15.119,16.754 15.172,16.747 15.226,16.741 C15.226,16.734 15.226,16.727 15.226,16.721 C15.252,16.721 15.279,16.721 15.306,16.721 C15.306,16.714 15.306,16.707 15.306,16.701 C15.325,16.701 15.345,16.701 15.365,16.701 C15.365,16.694 15.365,16.687 15.365,16.681 C15.412,16.674 15.459,16.667 15.505,16.661 C15.505,16.654 15.505,16.647 15.505,16.641 C15.532,16.641 15.558,16.641 15.585,16.641 C15.585,16.634 15.585,16.627 15.585,16.621 C15.605,16.621 15.625,16.621 15.645,16.621 C15.645,16.614 15.645,16.607 15.645,16.601 C15.665,16.601 15.685,16.601 15.705,16.601 C15.705,16.594 15.705,16.587 15.705,16.581 C15.725,16.581 15.745,16.581 15.765,16.581 C15.765,16.574 15.765,16.567 15.765,16.561 C15.785,16.561 15.805,16.561 15.825,16.561 C15.825,16.554 15.825,16.548 15.825,16.541 C15.845,16.541 15.865,16.541 15.885,16.541 C15.885,16.534 15.885,16.528 15.885,16.521 C15.905,16.521 15.925,16.521 15.945,16.521 C15.945,16.514 15.945,16.508 15.945,16.501 C15.965,16.501 15.985,16.501 16.004,16.501 C16.004,16.494 16.004,16.488 16.004,16.481 C16.064,16.468 16.124,16.454 16.184,16.441 C16.184,16.434 16.184,16.428 16.184,16.421 C16.198,16.421 16.211,16.421 16.224,16.421 C16.224,16.414 16.224,16.408 16.224,16.401 C16.264,16.394 16.304,16.388 16.344,16.381 C16.344,16.374 16.344,16.368 16.344,16.361 C16.357,16.361 16.371,16.361 16.384,16.361 C16.384,16.354 16.384,16.348 16.384,16.341 C16.404,16.341 16.424,16.341 16.444,16.341 C16.444,16.334 16.444,16.328 16.444,16.321 C16.470,16.314 16.497,16.308 16.524,16.301 C16.524,16.295 16.524,16.288 16.524,16.281 C16.544,16.281 16.564,16.281 16.584,16.281 C16.584,16.275 16.584,16.268 16.584,16.261 C16.597,16.261 16.610,16.261 16.624,16.261 C16.624,16.255 16.624,16.248 16.624,16.241 C16.650,16.235 16.677,16.228 16.703,16.221 C16.703,16.215 16.703,16.208 16.703,16.201 C16.723,16.201 16.743,16.201 16.763,16.201 C16.763,16.195 16.763,16.188 16.763,16.181 C16.790,16.175 16.817,16.168 16.843,16.161 C16.843,16.155 16.843,16.148 16.843,16.141 C16.857,16.141 16.870,16.141 16.883,16.141 C16.890,16.128 16.897,16.115 16.903,16.101 C16.916,16.101 16.930,16.101 16.943,16.101 C16.943,16.095 16.943,16.088 16.943,16.081 C16.956,16.081 16.970,16.081 16.983,16.081 C17.025,16.059 17.118,16.000 17.143,15.961 C17.117,15.949 17.115,15.929 17.103,15.922 C17.089,15.922 17.076,15.922 17.063,15.922 C17.063,15.915 17.063,15.908 17.063,15.902 C17.050,15.902 17.036,15.902 17.023,15.902 C17.016,15.888 17.010,15.875 17.003,15.862 C16.990,15.862 16.976,15.862 16.963,15.862 C16.963,15.855 16.963,15.848 16.963,15.842 C16.950,15.842 16.936,15.842 16.923,15.842 C16.923,15.835 16.923,15.828 16.923,15.822 C16.910,15.822 16.897,15.822 16.883,15.822 C16.883,15.815 16.883,15.808 16.883,15.802 C16.870,15.802 16.857,15.802 16.843,15.802 C16.843,15.795 16.843,15.788 16.843,15.782 C16.830,15.782 16.817,15.782 16.803,15.782 C16.803,15.775 16.803,15.768 16.803,15.762 C16.790,15.762 16.777,15.762 16.763,15.762 C16.763,15.755 16.763,15.748 16.763,15.742 C16.723,15.728 16.683,15.715 16.643,15.702 C16.643,15.695 16.643,15.689 16.643,15.682 C16.610,15.675 16.577,15.669 16.544,15.662 C16.544,15.655 16.544,15.649 16.544,15.642 C16.530,15.642 16.517,15.642 16.504,15.642 C16.504,15.635 16.504,15.629 16.504,15.622 C16.484,15.622 16.464,15.622 16.444,15.622 C16.444,15.615 16.444,15.609 16.444,15.602 C16.431,15.602 16.417,15.602 16.404,15.602 C16.404,15.595 16.404,15.589 16.404,15.582 C16.371,15.575 16.337,15.569 16.304,15.562 C16.304,15.555 16.304,15.549 16.304,15.542 C16.284,15.542 16.264,15.542 16.244,15.542 C16.244,15.535 16.244,15.529 16.244,15.522 C16.231,15.522 16.218,15.522 16.204,15.522 C16.204,15.515 16.204,15.509 16.204,15.502 C16.184,15.502 16.164,15.502 16.144,15.502 C16.144,15.495 16.144,15.489 16.144,15.482 C16.124,15.482 16.104,15.482 16.084,15.482 C16.084,15.475 16.084,15.469 16.084,15.462 C16.064,15.462 16.044,15.462 16.024,15.462 C16.024,15.455 16.024,15.449 16.024,15.442 C16.004,15.442 15.985,15.442 15.965,15.442 C15.965,15.436 15.965,15.429 15.965,15.422 C15.945,15.422 15.925,15.422 15.905,15.422 C15.905,15.416 15.905,15.409 15.905,15.402 C15.885,15.402 15.865,15.402 15.845,15.402 C15.845,15.396 15.845,15.389 15.845,15.382 C15.825,15.382 15.805,15.382 15.785,15.382 C15.785,15.376 15.785,15.369 15.785,15.362 C15.765,15.362 15.745,15.362 15.725,15.362 C15.725,15.356 15.725,15.349 15.725,15.342 C15.705,15.342 15.685,15.342 15.665,15.342 C15.665,15.335 15.665,15.329 15.665,15.322 C15.645,15.322 15.625,15.322 15.605,15.322 C15.605,15.316 15.605,15.309 15.605,15.302 C15.558,15.296 15.512,15.289 15.465,15.282 C15.465,15.276 15.465,15.269 15.465,15.262 C15.419,15.256 15.372,15.249 15.325,15.242 C15.325,15.236 15.325,15.229 15.325,15.222 C15.299,15.222 15.272,15.222 15.246,15.222 C15.125,15.181 14.967,15.144 14.846,15.102 C14.733,15.082 14.620,15.063 14.507,15.043 C14.507,15.036 14.507,15.029 14.507,15.023 C14.101,14.949 13.695,14.876 13.289,14.803 C13.142,14.790 12.996,14.776 12.849,14.763 C12.849,14.756 12.849,14.750 12.849,14.743 C12.796,14.743 12.743,14.743 12.690,14.743 C12.690,14.736 12.690,14.730 12.690,14.723 C12.636,14.723 12.583,14.723 12.530,14.723 C12.530,14.716 12.530,14.710 12.530,14.703 C12.470,14.703 12.410,14.703 12.350,14.703 C12.350,14.696 12.350,14.690 12.350,14.683 C12.283,14.683 12.217,14.683 12.150,14.683 C12.150,14.676 12.150,14.670 12.150,14.663 C12.077,14.663 12.004,14.663 11.931,14.663 C11.931,14.656 11.931,14.650 11.931,14.643 C11.851,14.643 11.771,14.643 11.691,14.643 C11.691,14.636 11.691,14.630 11.691,14.623 C11.531,14.616 11.371,14.610 11.212,14.603 C11.224,14.547 11.242,14.520 11.272,14.483 C11.278,14.483 11.285,14.483 11.292,14.483 C11.292,14.470 11.292,14.457 11.292,14.443 C11.312,14.430 11.332,14.417 11.352,14.403 C11.352,14.390 11.352,14.377 11.352,14.363 C11.372,14.350 11.391,14.337 11.411,14.323 C11.411,14.310 11.411,14.297 11.411,14.283 C11.431,14.270 11.451,14.257 11.471,14.243 C11.471,14.230 11.471,14.217 11.471,14.204 C11.491,14.190 11.511,14.177 11.531,14.164 C11.531,14.150 11.531,14.137 11.531,14.124 C11.551,14.110 11.571,14.097 11.591,14.084 C11.591,14.070 11.591,14.057 11.591,14.044 C11.611,14.030 11.631,14.017 11.651,14.004 C11.651,13.990 11.651,13.977 11.651,13.964 C11.671,13.951 11.691,13.937 11.711,13.924 C11.711,13.911 11.711,13.897 11.711,13.884 C11.724,13.877 11.738,13.871 11.751,13.864 C11.751,13.851 11.751,13.837 11.751,13.824 C11.764,13.817 11.778,13.811 11.791,13.804 C11.797,13.784 11.804,13.764 11.811,13.744 C11.831,13.731 11.851,13.718 11.871,13.704 C11.871,13.691 11.871,13.678 11.871,13.664 C11.884,13.658 11.897,13.651 11.911,13.644 C11.911,13.631 11.911,13.617 11.911,13.604 C11.931,13.591 11.951,13.578 11.971,13.564 C11.971,13.551 11.971,13.538 11.971,13.524 C11.984,13.518 11.997,13.511 12.011,13.504 C12.011,13.491 12.011,13.478 12.011,13.464 C12.030,13.451 12.051,13.438 12.070,13.424 C12.070,13.411 12.070,13.398 12.070,13.384 C12.077,13.384 12.084,13.384 12.090,13.384 C12.097,13.364 12.104,13.345 12.110,13.325 C12.124,13.318 12.137,13.311 12.150,13.305 C12.150,13.291 12.150,13.278 12.150,13.265 C12.170,13.251 12.190,13.238 12.210,13.225 C12.210,13.211 12.210,13.198 12.210,13.185 C12.224,13.178 12.237,13.171 12.250,13.165 C12.250,13.151 12.250,13.138 12.250,13.125 C12.257,13.125 12.263,13.125 12.270,13.125 C12.277,13.105 12.283,13.085 12.290,13.065 C12.401,13.063 12.524,13.080 12.610,13.105 C12.670,13.105 12.729,13.105 12.789,13.105 C12.789,13.111 12.789,13.118 12.789,13.125 C12.843,13.125 12.896,13.125 12.949,13.125 C12.949,13.131 12.949,13.138 12.949,13.145 C13.002,13.145 13.056,13.145 13.109,13.145 C13.109,13.151 13.109,13.158 13.109,13.165 C13.209,13.171 13.309,13.178 13.408,13.185 C13.666,13.262 13.994,13.267 14.247,13.345 C14.354,13.358 14.460,13.371 14.567,13.384 C14.819,13.465 15.121,13.501 15.365,13.584 C15.445,13.598 15.525,13.611 15.605,13.624 C15.605,13.631 15.605,13.637 15.605,13.644 C15.678,13.657 15.752,13.671 15.825,13.684 C15.825,13.691 15.825,13.698 15.825,13.704 C15.871,13.711 15.918,13.718 15.965,13.724 C15.965,13.731 15.965,13.737 15.965,13.744 C16.031,13.757 16.098,13.771 16.164,13.784 C16.164,13.791 16.164,13.797 16.164,13.804 C16.184,13.804 16.204,13.804 16.224,13.804 C16.224,13.811 16.224,13.817 16.224,13.824 C16.244,13.824 16.264,13.824 16.284,13.824 C16.284,13.831 16.284,13.837 16.284,13.844 C16.304,13.844 16.324,13.844 16.344,13.844 C16.344,13.851 16.344,13.857 16.344,13.864 C16.404,13.877 16.464,13.891 16.524,13.904 C16.524,13.911 16.524,13.917 16.524,13.924 C16.537,13.924 16.550,13.924 16.564,13.924 C16.564,13.931 16.564,13.937 16.564,13.944 C16.624,13.957 16.683,13.970 16.743,13.984 C16.743,13.990 16.743,13.997 16.743,14.004 C16.757,14.004 16.770,14.004 16.783,14.004 C16.783,14.010 16.783,14.017 16.783,14.024 C16.823,14.030 16.863,14.037 16.903,14.044 C16.903,14.050 16.903,14.057 16.903,14.064 C16.916,14.064 16.930,14.064 16.943,14.064 C16.943,14.070 16.943,14.077 16.943,14.084 C16.963,14.084 16.983,14.084 17.003,14.084 C17.003,14.090 17.003,14.097 17.003,14.104 C17.030,14.110 17.056,14.117 17.083,14.124 C17.083,14.130 17.083,14.137 17.083,14.144 C17.103,14.144 17.123,14.144 17.143,14.144 C17.143,14.150 17.143,14.157 17.143,14.164 C17.169,14.170 17.196,14.177 17.223,14.184 C17.223,14.190 17.223,14.197 17.223,14.204 C17.243,14.204 17.263,14.204 17.283,14.204 C17.283,14.210 17.283,14.217 17.283,14.223 C17.322,14.237 17.362,14.250 17.402,14.263 C17.402,14.270 17.402,14.277 17.402,14.283 C17.416,14.283 17.429,14.283 17.442,14.283 C17.442,14.290 17.442,14.297 17.442,14.303 C17.456,14.303 17.469,14.303 17.482,14.303 C17.482,14.310 17.482,14.317 17.482,14.323 C17.496,14.323 17.509,14.323 17.522,14.323 C17.522,14.330 17.522,14.337 17.522,14.343 C17.536,14.343 17.549,14.343 17.562,14.343 C17.562,14.350 17.562,14.357 17.562,14.363 C17.575,14.363 17.589,14.363 17.602,14.363 C17.602,14.370 17.602,14.377 17.602,14.383 C17.615,14.383 17.629,14.383 17.642,14.383 C17.642,14.390 17.642,14.397 17.642,14.403 C17.655,14.403 17.669,14.403 17.682,14.403 C17.682,14.410 17.682,14.417 17.682,14.423 C17.695,14.423 17.709,14.423 17.722,14.423 C17.722,14.430 17.722,14.437 17.722,14.443 C17.735,14.443 17.749,14.443 17.762,14.443 C17.768,14.457 17.775,14.470 17.782,14.483 C17.822,14.496 17.862,14.510 17.902,14.523 C17.908,14.537 17.915,14.550 17.922,14.563 C17.948,14.570 17.975,14.577 18.001,14.583 C18.008,14.596 18.015,14.610 18.021,14.623 C18.035,14.623 18.048,14.623 18.061,14.623 C18.061,14.630 18.061,14.636 18.061,14.643 C18.081,14.650 18.101,14.656 18.121,14.663 C18.128,14.676 18.135,14.690 18.141,14.703 C18.155,14.703 18.168,14.703 18.181,14.703 C18.194,14.723 18.208,14.743 18.221,14.763 C18.234,14.763 18.248,14.763 18.261,14.763 C18.274,14.783 18.288,14.803 18.301,14.823 C18.314,14.823 18.328,14.823 18.341,14.823 C18.368,14.856 18.394,14.889 18.421,14.923 C18.434,14.923 18.447,14.923 18.461,14.923 C18.481,14.949 18.501,14.976 18.521,15.003 C18.567,15.043 18.614,15.082 18.660,15.122 C18.660,15.136 18.660,15.149 18.660,15.162 C18.687,15.182 18.714,15.202 18.740,15.222 C18.740,15.236 18.740,15.249 18.740,15.262 C18.760,15.276 18.780,15.289 18.800,15.302 C18.800,15.316 18.800,15.329 18.800,15.342 C18.814,15.349 18.827,15.356 18.840,15.362 C18.840,15.376 18.840,15.389 18.840,15.402 C18.847,15.402 18.853,15.402 18.860,15.402 C18.860,15.416 18.860,15.429 18.860,15.442 C18.867,15.442 18.873,15.442 18.880,15.442 C18.880,15.455 18.880,15.469 18.880,15.482 C18.887,15.482 18.893,15.482 18.900,15.482 C18.900,15.495 18.900,15.509 18.900,15.522 C18.907,15.522 18.913,15.522 18.920,15.522 C18.920,15.535 18.920,15.549 18.920,15.562 C18.927,15.562 18.933,15.562 18.940,15.562 C18.940,15.582 18.940,15.602 18.940,15.622 C18.947,15.622 18.953,15.622 18.960,15.622 C18.960,15.642 18.960,15.662 18.960,15.682 C18.967,15.682 18.973,15.682 18.980,15.682 C18.980,15.708 18.980,15.735 18.980,15.762 C18.987,15.762 18.993,15.762 19.000,15.762 C19.000,15.835 19.000,15.908 19.000,15.981 C19.000,16.221 18.961,16.310 18.880,16.461 C18.873,16.488 18.867,16.514 18.860,16.541 C18.847,16.548 18.834,16.554 18.820,16.561 C18.820,16.574 18.820,16.587 18.820,16.601 C18.807,16.607 18.794,16.614 18.780,16.621 C18.780,16.634 18.780,16.647 18.780,16.661 C18.760,16.674 18.740,16.687 18.720,16.701 C18.720,16.714 18.720,16.727 18.720,16.741 C18.680,16.774 18.640,16.807 18.601,16.840 C18.601,16.854 18.601,16.867 18.601,16.880 C18.581,16.894 18.561,16.907 18.541,16.921 C18.541,16.927 18.541,16.934 18.541,16.940 C18.527,16.940 18.514,16.940 18.501,16.940 C18.461,16.987 18.421,17.034 18.381,17.080 C18.368,17.080 18.354,17.080 18.341,17.080 C18.321,17.107 18.301,17.134 18.281,17.160 C18.268,17.160 18.254,17.160 18.241,17.160 C18.228,17.180 18.214,17.200 18.201,17.220 C18.188,17.220 18.174,17.220 18.161,17.220 C18.155,17.233 18.148,17.247 18.141,17.260 C18.121,17.267 18.101,17.273 18.081,17.280 C18.081,17.287 18.081,17.293 18.081,17.300 C18.068,17.300 18.055,17.300 18.041,17.300 C18.035,17.313 18.028,17.327 18.021,17.340 C17.995,17.347 17.968,17.353 17.942,17.360 C17.935,17.373 17.928,17.387 17.922,17.400 C17.895,17.407 17.868,17.413 17.842,17.420 C17.835,17.433 17.828,17.446 17.822,17.460 C17.808,17.460 17.795,17.460 17.782,17.460 C17.782,17.466 17.782,17.473 17.782,17.480 C17.768,17.480 17.755,17.480 17.742,17.480 C17.742,17.486 17.742,17.493 17.742,17.500 C17.728,17.500 17.715,17.500 17.702,17.500 C17.702,17.506 17.702,17.513 17.702,17.520 C17.689,17.520 17.675,17.520 17.662,17.520 C17.655,17.533 17.649,17.546 17.642,17.560 C17.615,17.566 17.589,17.573 17.562,17.580 C17.562,17.586 17.562,17.593 17.562,17.600 C17.549,17.600 17.536,17.600 17.522,17.600 C17.522,17.606 17.522,17.613 17.522,17.620 C17.482,17.633 17.442,17.646 17.402,17.660 C17.402,17.666 17.402,17.673 17.402,17.679 C17.382,17.679 17.362,17.679 17.342,17.679 C17.342,17.686 17.342,17.693 17.342,17.699 C17.329,17.699 17.316,17.699 17.303,17.699 C17.303,17.706 17.303,17.713 17.303,17.719 C17.276,17.726 17.249,17.733 17.223,17.740 C17.223,17.746 17.223,17.753 17.223,17.760 C17.203,17.760 17.183,17.760 17.163,17.760 C17.163,17.766 17.163,17.773 17.163,17.780 C17.136,17.786 17.109,17.793 17.083,17.799 C17.083,17.806 17.083,17.813 17.083,17.819 C17.063,17.819 17.043,17.819 17.023,17.819 C17.023,17.826 17.023,17.833 17.023,17.839 C17.010,17.839 16.996,17.839 16.983,17.839 C16.983,17.846 16.983,17.853 16.983,17.859 C16.963,17.859 16.943,17.859 16.923,17.859 C16.923,17.866 16.923,17.873 16.923,17.879 C16.910,17.879 16.897,17.879 16.883,17.879 C16.883,17.886 16.883,17.893 16.883,17.899 C16.570,18.006 16.257,18.112 15.945,18.219 C15.918,18.219 15.891,18.219 15.865,18.219 C15.865,18.226 15.865,18.232 15.865,18.239 C15.845,18.239 15.825,18.239 15.805,18.239 C15.805,18.246 15.805,18.252 15.805,18.259 C15.778,18.259 15.752,18.259 15.725,18.259 C15.725,18.266 15.725,18.272 15.725,18.279 C15.698,18.279 15.672,18.279 15.645,18.279 C15.645,18.285 15.645,18.292 15.645,18.299 C15.625,18.299 15.605,18.299 15.585,18.299 C15.585,18.305 15.585,18.312 15.585,18.319 C15.558,18.319 15.532,18.319 15.505,18.319 C15.505,18.325 15.505,18.332 15.505,18.339 C15.479,18.339 15.452,18.339 15.425,18.339 C15.425,18.345 15.425,18.352 15.425,18.359 C15.399,18.359 15.372,18.359 15.345,18.359 C15.345,18.365 15.345,18.372 15.345,18.379 C15.319,18.379 15.292,18.379 15.266,18.379 C15.266,18.385 15.266,18.392 15.266,18.399 C15.212,18.405 15.159,18.412 15.106,18.419 C15.106,18.425 15.106,18.432 15.106,18.439 C15.046,18.445 14.986,18.452 14.926,18.459 C14.926,18.465 14.926,18.472 14.926,18.479 C14.866,18.485 14.806,18.492 14.746,18.499 C14.746,18.505 14.746,18.512 14.746,18.519 C14.646,18.532 14.547,18.545 14.447,18.558 C14.447,18.565 14.447,18.572 14.447,18.578 C14.407,18.578 14.367,18.578 14.327,18.578 C14.327,18.585 14.327,18.592 14.327,18.599 C14.294,18.599 14.260,18.599 14.227,18.599 C14.227,18.605 14.227,18.612 14.227,18.619 C14.187,18.619 14.147,18.619 14.107,18.619 C13.843,18.699 13.501,18.700 13.229,18.778 C13.122,18.785 13.016,18.792 12.909,18.798 C12.692,18.861 12.391,18.835 12.170,18.898 C12.090,18.898 12.011,18.898 11.931,18.898 C11.931,18.905 11.931,18.911 11.931,18.918 C11.857,18.918 11.784,18.918 11.711,18.918 C11.704,18.918 11.698,18.918 11.691,18.918 C11.691,18.925 11.691,18.931 11.691,18.938 C11.591,18.938 11.491,18.938 11.391,18.938 C11.391,18.945 11.391,18.951 11.391,18.958 C11.278,18.958 11.165,18.958 11.052,18.958 C10.934,18.991 10.734,18.944 10.613,18.978 C10.613,18.985 10.613,18.991 10.613,18.998 C10.287,18.998 9.960,18.998 9.634,18.998 C9.368,18.998 9.102,18.998 8.835,18.998 C8.693,18.998 8.506,19.009 8.396,18.978 C8.309,18.978 8.223,18.978 8.136,18.978 C7.957,18.971 7.777,18.965 7.597,18.958 C7.597,18.951 7.597,18.945 7.597,18.938 C7.504,18.938 7.411,18.938 7.318,18.938 C7.318,18.931 7.318,18.925 7.318,18.918 C7.238,18.918 7.158,18.918 7.078,18.918 C7.078,18.911 7.078,18.905 7.078,18.898 C7.071,18.898 7.065,18.898 7.058,18.898 C6.985,18.898 6.912,18.898 6.838,18.898 C6.838,18.892 6.838,18.885 6.838,18.878 C6.772,18.878 6.705,18.878 6.639,18.878 C6.639,18.872 6.639,18.865 6.639,18.858 C6.512,18.852 6.386,18.845 6.259,18.838 C5.991,18.761 5.643,18.776 5.381,18.698 C5.254,18.685 5.128,18.672 5.001,18.658 C5.001,18.652 5.001,18.645 5.001,18.639 C4.928,18.632 4.855,18.625 4.781,18.619 C4.781,18.612 4.781,18.605 4.781,18.599 C4.708,18.592 4.635,18.585 4.562,18.578 C4.388,18.525 4.171,18.493 4.003,18.439 C3.969,18.439 3.936,18.439 3.903,18.439 C3.903,18.432 3.903,18.425 3.903,18.419 C3.876,18.419 3.850,18.419 3.823,18.419 C3.729,18.387 3.598,18.351 3.503,18.319 C3.450,18.312 3.397,18.305 3.344,18.299 C3.344,18.292 3.344,18.285 3.344,18.279 C3.250,18.259 3.157,18.239 3.064,18.219 C3.064,18.212 3.064,18.206 3.064,18.199 C2.998,18.186 2.931,18.172 2.864,18.159 C2.864,18.152 2.864,18.146 2.864,18.139 C2.844,18.139 2.824,18.139 2.804,18.139 C2.804,18.132 2.804,18.126 2.804,18.119 C2.784,18.119 2.765,18.119 2.745,18.119 C2.745,18.112 2.745,18.106 2.745,18.099 C2.725,18.099 2.705,18.099 2.685,18.099 C2.685,18.092 2.685,18.086 2.685,18.079 C2.665,18.079 2.645,18.079 2.625,18.079 C2.625,18.072 2.625,18.066 2.625,18.059 C2.605,18.059 2.585,18.059 2.565,18.059 C2.565,18.052 2.565,18.046 2.565,18.039 C2.505,18.026 2.445,18.013 2.385,17.999 C2.385,17.993 2.385,17.986 2.385,17.979 C2.372,17.979 2.359,17.979 2.345,17.979 C2.345,17.973 2.345,17.966 2.345,17.959 C2.305,17.953 2.265,17.946 2.225,17.939 C2.225,17.933 2.225,17.926 2.225,17.919 C2.212,17.919 2.199,17.919 2.185,17.919 C2.185,17.913 2.185,17.906 2.185,17.899 C2.165,17.899 2.145,17.899 2.126,17.899 C2.126,17.893 2.126,17.886 2.126,17.879 C2.092,17.873 2.059,17.866 2.026,17.859 C2.026,17.853 2.026,17.846 2.026,17.839 C2.012,17.839 1.999,17.839 1.986,17.839 C1.986,17.833 1.986,17.826 1.986,17.819 C1.966,17.819 1.946,17.819 1.926,17.819 C1.926,17.813 1.926,17.806 1.926,17.799 C1.899,17.793 1.872,17.786 1.846,17.780 C1.846,17.773 1.846,17.766 1.846,17.760 C1.826,17.760 1.806,17.760 1.786,17.760 C1.786,17.753 1.786,17.746 1.786,17.740 C1.773,17.740 1.759,17.740 1.746,17.740 C1.746,17.733 1.746,17.726 1.746,17.719 C1.719,17.713 1.693,17.706 1.666,17.699 C1.666,17.693 1.666,17.686 1.666,17.679 C1.646,17.679 1.626,17.679 1.606,17.679 C1.606,17.673 1.606,17.666 1.606,17.660 C1.566,17.646 1.526,17.633 1.486,17.620 C1.486,17.613 1.486,17.606 1.486,17.600 C1.473,17.600 1.460,17.600 1.447,17.600 C1.447,17.593 1.447,17.586 1.447,17.580 C1.420,17.573 1.393,17.566 1.367,17.560 C1.360,17.546 1.353,17.533 1.347,17.520 C1.333,17.520 1.320,17.520 1.307,17.520 C1.307,17.513 1.307,17.506 1.307,17.500 C1.293,17.500 1.280,17.500 1.267,17.500 C1.267,17.493 1.267,17.486 1.267,17.480 C1.253,17.480 1.240,17.480 1.227,17.480 C1.227,17.473 1.227,17.466 1.227,17.460 C1.214,17.460 1.200,17.460 1.187,17.460 C1.180,17.446 1.174,17.433 1.167,17.420 C1.140,17.413 1.114,17.407 1.087,17.400 C1.080,17.387 1.074,17.373 1.067,17.360 C1.040,17.353 1.014,17.347 0.987,17.340 C0.981,17.327 0.974,17.313 0.967,17.300 C0.954,17.300 0.941,17.300 0.927,17.300 C0.927,17.293 0.927,17.287 0.927,17.280 C0.907,17.273 0.887,17.267 0.867,17.260 C0.861,17.247 0.854,17.233 0.847,17.220 C0.834,17.220 0.821,17.220 0.807,17.220 C0.794,17.200 0.781,17.180 0.768,17.160 C0.754,17.160 0.741,17.160 0.728,17.160 C0.708,17.134 0.688,17.107 0.668,17.080 C0.654,17.080 0.641,17.080 0.628,17.080 C0.588,17.034 0.548,16.987 0.508,16.940 C0.495,16.940 0.481,16.940 0.468,16.940 C0.468,16.934 0.468,16.927 0.468,16.921 C0.448,16.907 0.428,16.894 0.408,16.880 C0.408,16.867 0.408,16.854 0.408,16.840 C0.368,16.807 0.328,16.774 0.288,16.741 C0.288,16.727 0.288,16.714 0.288,16.701 C0.268,16.687 0.248,16.674 0.228,16.661 C0.228,16.647 0.228,16.634 0.228,16.621 C0.215,16.614 0.202,16.607 0.188,16.601 C0.188,16.587 0.188,16.574 0.188,16.561 C0.175,16.554 0.162,16.548 0.148,16.541 C0.148,16.528 0.148,16.514 0.148,16.501 C0.142,16.501 0.135,16.501 0.129,16.501 C0.115,16.461 0.102,16.421 0.089,16.381 C0.082,16.381 0.075,16.381 0.069,16.381 C0.062,16.341 0.055,16.301 0.049,16.261 C0.042,16.261 0.035,16.261 0.029,16.261 C0.010,16.209 -0.014,15.837 0.009,15.762 C0.015,15.762 0.022,15.762 0.029,15.762 C0.029,15.735 0.029,15.708 0.029,15.682 C0.035,15.682 0.042,15.682 0.049,15.682 C0.049,15.662 0.049,15.642 0.049,15.622 C0.055,15.622 0.062,15.622 0.069,15.622 C0.069,15.602 0.069,15.582 0.069,15.562 C0.075,15.562 0.082,15.562 0.089,15.562 C0.089,15.549 0.089,15.535 0.089,15.522 C0.095,15.522 0.102,15.522 0.108,15.522 C0.108,15.509 0.108,15.495 0.108,15.482 C0.115,15.482 0.122,15.482 0.129,15.482 C0.129,15.469 0.129,15.455 0.129,15.442 C0.135,15.442 0.142,15.442 0.148,15.442 C0.148,15.429 0.148,15.416 0.148,15.402 C0.155,15.402 0.162,15.402 0.168,15.402 C0.168,15.389 0.168,15.376 0.168,15.362 C0.182,15.356 0.195,15.349 0.208,15.342 C0.208,15.329 0.208,15.316 0.208,15.302 C0.228,15.289 0.248,15.276 0.268,15.262 C0.268,15.249 0.268,15.236 0.268,15.222 C0.295,15.202 0.322,15.182 0.348,15.162 C0.348,15.149 0.348,15.136 0.348,15.122 C0.395,15.082 0.441,15.043 0.488,15.003 C0.508,14.976 0.528,14.949 0.548,14.923 C0.561,14.923 0.574,14.923 0.588,14.923 C0.614,14.889 0.641,14.856 0.668,14.823 C0.681,14.823 0.694,14.823 0.708,14.823 C0.721,14.803 0.734,14.783 0.748,14.763 C0.761,14.763 0.774,14.763 0.787,14.763 C0.801,14.743 0.814,14.723 0.827,14.703 C0.841,14.703 0.854,14.703 0.867,14.703 C0.874,14.690 0.881,14.676 0.887,14.663 C0.901,14.663 0.914,14.663 0.927,14.663 C0.934,14.650 0.941,14.636 0.947,14.623 C0.967,14.616 0.987,14.610 1.007,14.603 C1.007,14.596 1.007,14.590 1.007,14.583 C1.020,14.583 1.034,14.583 1.047,14.583 C1.047,14.577 1.047,14.570 1.047,14.563 C1.060,14.563 1.074,14.563 1.087,14.563 C1.094,14.550 1.100,14.537 1.107,14.523 C1.147,14.510 1.187,14.496 1.227,14.483 C1.233,14.470 1.240,14.457 1.247,14.443 C1.260,14.443 1.273,14.443 1.287,14.443 C1.287,14.437 1.287,14.430 1.287,14.423 C1.300,14.423 1.313,14.423 1.327,14.423 C1.327,14.417 1.327,14.410 1.327,14.403 C1.340,14.403 1.353,14.403 1.367,14.403 C1.367,14.397 1.367,14.390 1.367,14.383 C1.380,14.383 1.393,14.383 1.407,14.383 C1.407,14.377 1.407,14.370 1.407,14.363 C1.420,14.363 1.433,14.363 1.447,14.363 C1.447,14.357 1.447,14.350 1.447,14.343 C1.460,14.343 1.473,14.343 1.486,14.343 C1.486,14.337 1.486,14.330 1.486,14.323 C1.500,14.323 1.513,14.323 1.526,14.323 C1.526,14.317 1.526,14.310 1.526,14.303 C1.540,14.303 1.553,14.303 1.566,14.303 C1.566,14.297 1.566,14.290 1.566,14.283 C1.580,14.283 1.593,14.283 1.606,14.283 C1.606,14.277 1.606,14.270 1.606,14.263 C1.646,14.250 1.686,14.237 1.726,14.223 C1.726,14.217 1.726,14.210 1.726,14.204 C1.759,14.197 1.793,14.190 1.826,14.184 C1.826,14.177 1.826,14.170 1.826,14.164 C1.853,14.157 1.879,14.150 1.906,14.144 C1.906,14.137 1.906,14.130 1.906,14.124 C1.926,14.124 1.946,14.124 1.966,14.124 C1.966,14.117 1.966,14.110 1.966,14.104 C1.979,14.104 1.992,14.104 2.006,14.104 C2.006,14.097 2.006,14.090 2.006,14.084 C2.026,14.084 2.046,14.084 2.066,14.084 C2.066,14.077 2.066,14.070 2.066,14.064 C2.079,14.064 2.092,14.064 2.105,14.064 C2.105,14.057 2.105,14.050 2.105,14.044 C2.145,14.037 2.185,14.030 2.225,14.024 C2.225,14.017 2.225,14.010 2.225,14.004 C2.239,14.004 2.252,14.004 2.265,14.004 C2.265,13.997 2.265,13.990 2.265,13.984 C2.285,13.984 2.305,13.984 2.325,13.984 C2.325,13.977 2.325,13.970 2.325,13.964 C2.345,13.964 2.365,13.964 2.385,13.964 C2.385,13.957 2.385,13.951 2.385,13.944 C2.398,13.944 2.412,13.944 2.425,13.944 C2.425,13.937 2.425,13.931 2.425,13.924 C2.485,13.911 2.545,13.897 2.605,13.884 C2.605,13.877 2.605,13.871 2.605,13.864 C2.625,13.864 2.645,13.864 2.665,13.864 C2.665,13.857 2.665,13.851 2.665,13.844 C2.685,13.844 2.705,13.844 2.725,13.844 C2.725,13.837 2.725,13.831 2.725,13.824 C2.745,13.824 2.765,13.824 2.784,13.824 C2.784,13.817 2.784,13.811 2.784,13.804 C2.804,13.804 2.824,13.804 2.844,13.804 C2.844,13.797 2.844,13.791 2.844,13.784 C2.911,13.771 2.978,13.757 3.044,13.744 C3.044,13.737 3.044,13.731 3.044,13.724 C3.091,13.718 3.137,13.711 3.184,13.704 C3.184,13.698 3.184,13.691 3.184,13.684 C3.257,13.671 3.330,13.657 3.404,13.644 C3.404,13.637 3.404,13.631 3.404,13.624 C3.483,13.611 3.563,13.598 3.643,13.584 C3.888,13.501 4.189,13.464 4.442,13.384 C4.548,13.371 4.655,13.358 4.762,13.345 C4.934,13.292 5.165,13.276 5.341,13.225 C5.387,13.225 5.434,13.225 5.480,13.225 C5.601,13.189 5.778,13.180 5.900,13.145 C5.953,13.145 6.006,13.145 6.060,13.145 C6.060,13.138 6.060,13.131 6.060,13.125 C6.272,13.105 6.486,13.085 6.699,13.065 C6.712,13.090 6.730,13.092 6.739,13.105 C6.739,13.118 6.739,13.131 6.739,13.145 C6.752,13.151 6.765,13.158 6.778,13.165 C6.778,13.178 6.778,13.191 6.778,13.205 C6.792,13.211 6.805,13.218 6.818,13.225 C6.818,13.238 6.818,13.251 6.818,13.265 C6.838,13.278 6.858,13.291 6.878,13.305 C6.878,13.318 6.878,13.331 6.878,13.345 C6.885,13.345 6.892,13.345 6.898,13.345 C6.905,13.364 6.912,13.384 6.918,13.404 C6.932,13.411 6.945,13.418 6.958,13.424 C6.958,13.438 6.958,13.451 6.958,13.464 C6.978,13.478 6.998,13.491 7.018,13.504 C7.018,13.518 7.018,13.531 7.018,13.544 C7.031,13.551 7.045,13.558 7.058,13.564 C7.058,13.578 7.058,13.591 7.058,13.604 C7.071,13.611 7.085,13.617 7.098,13.624 C7.105,13.644 7.111,13.664 7.118,13.684 C7.138,13.698 7.158,13.711 7.178,13.724 C7.178,13.737 7.178,13.751 7.178,13.764 C7.191,13.771 7.205,13.777 7.218,13.784 C7.218,13.797 7.218,13.811 7.218,13.824 C7.238,13.837 7.258,13.851 7.278,13.864 C7.278,13.877 7.278,13.891 7.278,13.904 C7.298,13.917 7.318,13.931 7.338,13.944 C7.338,13.957 7.338,13.970 7.338,13.984 C7.358,13.997 7.378,14.010 7.397,14.024 C7.397,14.037 7.397,14.050 7.397,14.064 C7.417,14.077 7.437,14.090 7.457,14.104 C7.457,14.117 7.457,14.130 7.457,14.144 C7.477,14.157 7.497,14.170 7.517,14.184 C7.517,14.197 7.517,14.210 7.517,14.223 C7.537,14.237 7.557,14.250 7.577,14.263 C7.577,14.277 7.577,14.290 7.577,14.303 C7.597,14.317 7.617,14.330 7.637,14.343 C7.637,14.357 7.637,14.370 7.637,14.383 C7.657,14.397 7.677,14.410 7.697,14.423 C7.697,14.437 7.697,14.450 7.697,14.463 C7.710,14.470 7.724,14.476 7.737,14.483 C7.744,14.503 7.750,14.523 7.757,14.543 C7.764,14.543 7.770,14.543 7.777,14.543 C7.784,14.563 7.790,14.583 7.797,14.603 Z"/>
</svg>
