<svg 
 xmlns="http://www.w3.org/2000/svg"
 width="40px" height="77px">
<path fill-rule="evenodd"  fill="rgb(239, 18, 49)"
 d="M40.000,77.000 C40.000,77.000 32.062,60.029 36.000,42.000 C39.938,23.970 40.223,8.644 18.000,-0.000 C18.000,-0.000 31.655,16.114 16.000,37.999 C16.000,37.999 13.868,22.953 -0.000,26.000 C-0.000,26.000 8.960,30.591 7.000,46.000 C5.040,61.408 21.000,62.999 21.000,62.999 C21.000,62.999 15.991,52.034 22.000,42.000 C28.009,31.966 28.000,19.000 28.000,19.000 C28.000,19.000 31.254,27.130 25.000,43.000 C18.746,58.870 37.843,75.604 40.000,77.000 Z"/>
</svg>